<?xml version="1.0" encoding="UTF-8" standalone="no"?>
<!DOCTYPE svg PUBLIC "-//W3C//DTD SVG 1.1//EN"
 "http://www.w3.org/Graphics/SVG/1.1/DTD/svg11.dtd">
<!-- Generated by graphviz version 12.2.1 (20241206.2353)
 -->
<!-- Title: model/BloodVessel.h Pages: 1 -->
<svg width="869pt" height="248pt"
 viewBox="0.00 0.00 868.88 248.25" xmlns="http://www.w3.org/2000/svg" xmlns:xlink="http://www.w3.org/1999/xlink">
<g id="graph0" class="graph" transform="scale(1 1) rotate(0) translate(4 244.25)">
<title>model/BloodVessel.h</title>
<!-- Node1 -->
<g id="Node000001" class="node">
<title>Node1</title>
<g id="a_Node000001"><a xlink:title="model::BloodVessel source file">
<polygon fill="#999999" stroke="#666666" points="441.38,-240.25 333.88,-240.25 333.88,-221 441.38,-221 441.38,-240.25"/>
<text text-anchor="middle" x="387.62" y="-226.75" font-family="Helvetica,sans-Serif" font-size="10.00">model/BloodVessel.h</text>
</a>
</g>
</g>
<!-- Node2 -->
<g id="Node000002" class="node">
<title>Node2</title>
<g id="a_Node000002"><a xlink:title=" ">
<polygon fill="#e0e0e0" stroke="#999999" points="45.25,-74.5 0,-74.5 0,-55.25 45.25,-55.25 45.25,-74.5"/>
<text text-anchor="middle" x="22.62" y="-61" font-family="Helvetica,sans-Serif" font-size="10.00">math.h</text>
</a>
</g>
</g>
<!-- Node1&#45;&gt;Node2 -->
<g id="edge1_Node000001_Node000002" class="edge">
<title>Node1&#45;&gt;Node2</title>
<g id="a_edge1_Node000001_Node000002"><a xlink:title=" ">
<path fill="none" stroke="#63b8ff" d="M362.93,-220.52C318.33,-203.86 221.66,-166.77 142.62,-129.75 109.3,-114.14 72.05,-93.85 48.02,-80.37"/>
<polygon fill="#63b8ff" stroke="#63b8ff" points="50.03,-77.48 39.6,-75.61 46.59,-83.58 50.03,-77.48"/>
</a>
</g>
</g>
<!-- Node3 -->
<g id="Node000003" class="node">
<title>Node3</title>
<g id="a_Node000003"><a xlink:href="_block_8h.html" target="_top" xlink:title="model::Block source file">
<polygon fill="white" stroke="#666666" points="411.75,-185 363.5,-185 363.5,-165.75 411.75,-165.75 411.75,-185"/>
<text text-anchor="middle" x="387.62" y="-171.5" font-family="Helvetica,sans-Serif" font-size="10.00">Block.h</text>
</a>
</g>
</g>
<!-- Node1&#45;&gt;Node3 -->
<g id="edge2_Node000001_Node000003" class="edge">
<title>Node1&#45;&gt;Node3</title>
<g id="a_edge2_Node000001_Node000003"><a xlink:title=" ">
<path fill="none" stroke="#63b8ff" d="M387.62,-220.83C387.62,-214.32 387.62,-205.17 387.62,-196.87"/>
<polygon fill="#63b8ff" stroke="#63b8ff" points="391.13,-196.87 387.63,-186.87 384.13,-196.87 391.13,-196.87"/>
</a>
</g>
</g>
<!-- Node15 -->
<g id="Node000015" class="node">
<title>Node15</title>
<g id="a_Node000015"><a xlink:href="_sparse_system_8h.html" target="_top" xlink:title="SparseSystem source file.">
<polygon fill="white" stroke="#666666" points="693.25,-129.75 606,-129.75 606,-110.5 693.25,-110.5 693.25,-129.75"/>
<text text-anchor="middle" x="649.62" y="-116.25" font-family="Helvetica,sans-Serif" font-size="10.00">SparseSystem.h</text>
</a>
</g>
</g>
<!-- Node1&#45;&gt;Node15 -->
<g id="edge27_Node000001_Node000015" class="edge">
<title>Node1&#45;&gt;Node15</title>
<g id="a_edge27_Node000001_Node000015"><a xlink:title=" ">
<path fill="none" stroke="#63b8ff" d="M409.51,-220.56C455.65,-201.45 563.09,-156.96 617.22,-134.54"/>
<polygon fill="#63b8ff" stroke="#63b8ff" points="618.32,-137.88 626.22,-130.82 615.64,-131.41 618.32,-137.88"/>
</a>
</g>
</g>
<!-- Node4 -->
<g id="Node000004" class="node">
<title>Node4</title>
<g id="a_Node000004"><a xlink:title=" ">
<polygon fill="#e0e0e0" stroke="#999999" points="523.25,-74.5 460,-74.5 460,-55.25 523.25,-55.25 523.25,-74.5"/>
<text text-anchor="middle" x="491.62" y="-61" font-family="Helvetica,sans-Serif" font-size="10.00">Eigen/Core</text>
</a>
</g>
</g>
<!-- Node3&#45;&gt;Node4 -->
<g id="edge3_Node000003_Node000004" class="edge">
<title>Node3&#45;&gt;Node4</title>
<g id="a_edge3_Node000003_Node000004"><a xlink:title=" ">
<path fill="none" stroke="#63b8ff" d="M411.97,-171.65C454.79,-166.3 540.76,-152.88 558.62,-129.75 573.35,-110.69 547.89,-92.06 524.23,-79.89"/>
<polygon fill="#63b8ff" stroke="#63b8ff" points="525.88,-76.8 515.35,-75.59 522.83,-83.1 525.88,-76.8"/>
</a>
</g>
</g>
<!-- Node5 -->
<g id="Node000005" class="node">
<title>Node5</title>
<g id="a_Node000005"><a xlink:title=" ">
<polygon fill="#e0e0e0" stroke="#999999" points="360.02,-129.75 331.23,-129.75 331.23,-110.5 360.02,-110.5 360.02,-129.75"/>
<text text-anchor="middle" x="345.62" y="-116.25" font-family="Helvetica,sans-Serif" font-size="10.00">list</text>
</a>
</g>
</g>
<!-- Node3&#45;&gt;Node5 -->
<g id="edge4_Node000003_Node000005" class="edge">
<title>Node3&#45;&gt;Node5</title>
<g id="a_edge4_Node000003_Node000005"><a xlink:title=" ">
<path fill="none" stroke="#63b8ff" d="M380.69,-165.58C375.01,-158.38 366.79,-147.96 359.73,-139.01"/>
<polygon fill="#63b8ff" stroke="#63b8ff" points="362.59,-136.98 353.65,-131.3 357.09,-141.32 362.59,-136.98"/>
</a>
</g>
</g>
<!-- Node6 -->
<g id="Node000006" class="node">
<title>Node6</title>
<g id="a_Node000006"><a xlink:title=" ">
<polygon fill="#e0e0e0" stroke="#999999" points="350,-19.25 315.25,-19.25 315.25,0 350,0 350,-19.25"/>
<text text-anchor="middle" x="332.62" y="-5.75" font-family="Helvetica,sans-Serif" font-size="10.00">map</text>
</a>
</g>
</g>
<!-- Node3&#45;&gt;Node6 -->
<g id="edge5_Node000003_Node000006" class="edge">
<title>Node3&#45;&gt;Node6</title>
<g id="a_edge5_Node000003_Node000006"><a xlink:title=" ">
<path fill="none" stroke="#63b8ff" d="M387.74,-165.26C387.67,-144.7 385.65,-93.52 368.62,-55.25 364.15,-45.18 356.81,-35.48 349.93,-27.71"/>
<polygon fill="#63b8ff" stroke="#63b8ff" points="352.69,-25.54 343.29,-20.66 347.6,-30.34 352.69,-25.54"/>
</a>
</g>
</g>
<!-- Node7 -->
<g id="Node000007" class="node">
<title>Node7</title>
<g id="a_Node000007"><a xlink:title=" ">
<polygon fill="#e0e0e0" stroke="#999999" points="275.12,-19.25 232.12,-19.25 232.12,0 275.12,0 275.12,-19.25"/>
<text text-anchor="middle" x="253.62" y="-5.75" font-family="Helvetica,sans-Serif" font-size="10.00">vector</text>
</a>
</g>
</g>
<!-- Node3&#45;&gt;Node7 -->
<g id="edge6_Node000003_Node000007" class="edge">
<title>Node3&#45;&gt;Node7</title>
<g id="a_edge6_Node000003_Node000007"><a xlink:title=" ">
<path fill="none" stroke="#63b8ff" d="M363,-170.14C297.46,-158.29 121.71,-122.47 92.62,-74.5 63.13,-25.87 165.09,-14.23 220.37,-11.47"/>
<polygon fill="#63b8ff" stroke="#63b8ff" points="220.35,-14.97 230.2,-11.06 220.06,-7.98 220.35,-14.97"/>
</a>
</g>
</g>
<!-- Node8 -->
<g id="Node000008" class="node">
<title>Node8</title>
<g id="a_Node000008"><a xlink:href="_block_type_8h.html" target="_top" xlink:title="Specifies the types of blocks and their parameters.">
<polygon fill="white" stroke="#666666" points="485.25,-129.75 416,-129.75 416,-110.5 485.25,-110.5 485.25,-129.75"/>
<text text-anchor="middle" x="450.62" y="-116.25" font-family="Helvetica,sans-Serif" font-size="10.00">BlockType.h</text>
</a>
</g>
</g>
<!-- Node3&#45;&gt;Node8 -->
<g id="edge7_Node000003_Node000008" class="edge">
<title>Node3&#45;&gt;Node8</title>
<g id="a_edge7_Node000003_Node000008"><a xlink:title=" ">
<path fill="none" stroke="#63b8ff" d="M398.31,-165.34C407.33,-157.72 420.46,-146.62 431.31,-137.45"/>
<polygon fill="#63b8ff" stroke="#63b8ff" points="433.56,-140.13 438.94,-131 429.04,-134.78 433.56,-140.13"/>
</a>
</g>
</g>
<!-- Node10 -->
<g id="Node000010" class="node">
<title>Node10</title>
<g id="a_Node000010"><a xlink:href="_d_o_f_handler_8h.html" target="_top" xlink:title="model::DOFHandler source file">
<polygon fill="white" stroke="#666666" points="359.38,-74.5 281.88,-74.5 281.88,-55.25 359.38,-55.25 359.38,-74.5"/>
<text text-anchor="middle" x="320.62" y="-61" font-family="Helvetica,sans-Serif" font-size="10.00">DOFHandler.h</text>
</a>
</g>
</g>
<!-- Node3&#45;&gt;Node10 -->
<g id="edge9_Node000003_Node000010" class="edge">
<title>Node3&#45;&gt;Node10</title>
<g id="a_edge9_Node000003_Node000010"><a xlink:title=" ">
<path fill="none" stroke="#63b8ff" d="M365.02,-165.39C350.13,-158.17 331.75,-146.45 322.62,-129.75 315.37,-116.47 315.28,-99.21 316.77,-85.98"/>
<polygon fill="#63b8ff" stroke="#63b8ff" points="320.2,-86.7 318.28,-76.28 313.29,-85.63 320.2,-86.7"/>
</a>
</g>
</g>
<!-- Node11 -->
<g id="Node000011" class="node">
<title>Node11</title>
<g id="a_Node000011"><a xlink:href="_parameter_8h.html" target="_top" xlink:title="model::Parameter source file">
<polygon fill="white" stroke="#666666" points="275.88,-129.75 207.38,-129.75 207.38,-110.5 275.88,-110.5 275.88,-129.75"/>
<text text-anchor="middle" x="241.62" y="-116.25" font-family="Helvetica,sans-Serif" font-size="10.00">Parameter.h</text>
</a>
</g>
</g>
<!-- Node3&#45;&gt;Node11 -->
<g id="edge13_Node000003_Node000011" class="edge">
<title>Node3&#45;&gt;Node11</title>
<g id="a_edge13_Node000003_Node000011"><a xlink:title=" ">
<path fill="none" stroke="#63b8ff" d="M363.19,-165.46C339.75,-156.91 304.08,-143.9 277.44,-134.19"/>
<polygon fill="#63b8ff" stroke="#63b8ff" points="278.65,-130.9 268.05,-130.76 276.25,-137.48 278.65,-130.9"/>
</a>
</g>
</g>
<!-- Node3&#45;&gt;Node15 -->
<g id="edge20_Node000003_Node000015" class="edge">
<title>Node3&#45;&gt;Node15</title>
<g id="a_edge20_Node000003_Node000015"><a xlink:title=" ">
<path fill="none" stroke="#63b8ff" d="M411.8,-169.46C453.05,-161.08 538,-143.81 594.4,-132.35"/>
<polygon fill="#63b8ff" stroke="#63b8ff" points="595.04,-135.79 604.14,-130.37 593.64,-128.93 595.04,-135.79"/>
</a>
</g>
</g>
<!-- Node19 -->
<g id="Node000019" class="node">
<title>Node19</title>
<g id="a_Node000019"><a xlink:href="_state_8h.html" target="_top" xlink:title="State source file.">
<polygon fill="white" stroke="#666666" points="550,-129.75 503.25,-129.75 503.25,-110.5 550,-110.5 550,-129.75"/>
<text text-anchor="middle" x="526.62" y="-116.25" font-family="Helvetica,sans-Serif" font-size="10.00">State.h</text>
</a>
</g>
</g>
<!-- Node3&#45;&gt;Node19 -->
<g id="edge25_Node000003_Node000019" class="edge">
<title>Node3&#45;&gt;Node19</title>
<g id="a_edge25_Node000003_Node000019"><a xlink:title=" ">
<path fill="none" stroke="#63b8ff" d="M411.2,-165.34C433.47,-156.81 467.12,-143.92 492.35,-134.26"/>
<polygon fill="#63b8ff" stroke="#63b8ff" points="493.43,-137.59 501.52,-130.74 490.93,-131.05 493.43,-137.59"/>
</a>
</g>
</g>
<!-- Node9 -->
<g id="Node000009" class="node">
<title>Node9</title>
<g id="a_Node000009"><a xlink:title=" ">
<polygon fill="#e0e0e0" stroke="#999999" points="435.62,-19.25 395.62,-19.25 395.62,0 435.62,0 435.62,-19.25"/>
<text text-anchor="middle" x="415.62" y="-5.75" font-family="Helvetica,sans-Serif" font-size="10.00">string</text>
</a>
</g>
</g>
<!-- Node8&#45;&gt;Node9 -->
<g id="edge8_Node000008_Node000009" class="edge">
<title>Node8&#45;&gt;Node9</title>
<g id="a_edge8_Node000008_Node000009"><a xlink:title=" ">
<path fill="none" stroke="#63b8ff" d="M447.76,-110.25C442.17,-92.92 429.69,-54.23 422.03,-30.49"/>
<polygon fill="#63b8ff" stroke="#63b8ff" points="425.39,-29.51 418.99,-21.07 418.73,-31.66 425.39,-29.51"/>
</a>
</g>
</g>
<!-- Node10&#45;&gt;Node6 -->
<g id="edge10_Node000010_Node000006" class="edge">
<title>Node10&#45;&gt;Node6</title>
<g id="a_edge10_Node000010_Node000006"><a xlink:title=" ">
<path fill="none" stroke="#63b8ff" d="M322.61,-55.08C324.09,-48.49 326.18,-39.21 328.07,-30.82"/>
<polygon fill="#63b8ff" stroke="#63b8ff" points="331.48,-31.61 330.27,-21.09 324.65,-30.07 331.48,-31.61"/>
</a>
</g>
</g>
<!-- Node10&#45;&gt;Node7 -->
<g id="edge12_Node000010_Node000007" class="edge">
<title>Node10&#45;&gt;Node7</title>
<g id="a_edge12_Node000010_Node000007"><a xlink:title=" ">
<path fill="none" stroke="#63b8ff" d="M309.26,-54.84C299.58,-47.15 285.43,-35.9 273.82,-26.68"/>
<polygon fill="#63b8ff" stroke="#63b8ff" points="276.01,-23.95 266.01,-20.47 271.66,-29.43 276.01,-23.95"/>
</a>
</g>
</g>
<!-- Node10&#45;&gt;Node9 -->
<g id="edge11_Node000010_Node000009" class="edge">
<title>Node10&#45;&gt;Node9</title>
<g id="a_edge11_Node000010_Node000009"><a xlink:title=" ">
<path fill="none" stroke="#63b8ff" d="M336.74,-54.84C351.21,-46.73 372.7,-34.68 389.61,-25.21"/>
<polygon fill="#63b8ff" stroke="#63b8ff" points="391.1,-28.39 398.11,-20.44 387.68,-22.28 391.1,-28.39"/>
</a>
</g>
</g>
<!-- Node11&#45;&gt;Node2 -->
<g id="edge14_Node000011_Node000002" class="edge">
<title>Node11&#45;&gt;Node2</title>
<g id="a_edge14_Node000011_Node000002"><a xlink:title=" ">
<path fill="none" stroke="#63b8ff" d="M206.92,-110.69C165.78,-100.68 97.65,-84.12 56.76,-74.17"/>
<polygon fill="#63b8ff" stroke="#63b8ff" points="57.76,-70.82 47.21,-71.85 56.1,-77.62 57.76,-70.82"/>
</a>
</g>
</g>
<!-- Node11&#45;&gt;Node7 -->
<g id="edge17_Node000011_Node000007" class="edge">
<title>Node11&#45;&gt;Node7</title>
<g id="a_edge17_Node000011_Node000007"><a xlink:title=" ">
<path fill="none" stroke="#63b8ff" d="M242.61,-110.25C244.51,-93 248.76,-54.58 251.39,-30.81"/>
<polygon fill="#63b8ff" stroke="#63b8ff" points="254.84,-31.46 252.46,-21.13 247.88,-30.69 254.84,-31.46"/>
</a>
</g>
</g>
<!-- Node11&#45;&gt;Node10 -->
<g id="edge19_Node000011_Node000010" class="edge">
<title>Node11&#45;&gt;Node10</title>
<g id="a_edge19_Node000011_Node000010"><a xlink:title=" ">
<path fill="none" stroke="#63b8ff" d="M255.03,-110.09C266.72,-102.21 283.93,-90.61 297.79,-81.27"/>
<polygon fill="#63b8ff" stroke="#63b8ff" points="299.57,-84.29 305.9,-75.8 295.65,-78.49 299.57,-84.29"/>
</a>
</g>
</g>
<!-- Node12 -->
<g id="Node000012" class="node">
<title>Node12</title>
<g id="a_Node000012"><a xlink:title=" ">
<polygon fill="#e0e0e0" stroke="#999999" points="594.38,-74.5 540.88,-74.5 540.88,-55.25 594.38,-55.25 594.38,-74.5"/>
<text text-anchor="middle" x="567.62" y="-61" font-family="Helvetica,sans-Serif" font-size="10.00">iostream</text>
</a>
</g>
</g>
<!-- Node11&#45;&gt;Node12 -->
<g id="edge15_Node000011_Node000012" class="edge">
<title>Node11&#45;&gt;Node12</title>
<g id="a_edge15_Node000011_Node000012"><a xlink:title=" ">
<path fill="none" stroke="#63b8ff" d="M276.29,-114.83C328.98,-108.08 432.59,-93.95 529.39,-75.01"/>
<polygon fill="#63b8ff" stroke="#63b8ff" points="529.93,-78.47 539.06,-73.1 528.57,-71.61 529.93,-78.47"/>
</a>
</g>
</g>
<!-- Node13 -->
<g id="Node000013" class="node">
<title>Node13</title>
<g id="a_Node000013"><a xlink:title=" ">
<polygon fill="#e0e0e0" stroke="#999999" points="225.88,-74.5 175.38,-74.5 175.38,-55.25 225.88,-55.25 225.88,-74.5"/>
<text text-anchor="middle" x="200.62" y="-61" font-family="Helvetica,sans-Serif" font-size="10.00">numeric</text>
</a>
</g>
</g>
<!-- Node11&#45;&gt;Node13 -->
<g id="edge16_Node000011_Node000013" class="edge">
<title>Node11&#45;&gt;Node13</title>
<g id="a_edge16_Node000011_Node000013"><a xlink:title=" ">
<path fill="none" stroke="#63b8ff" d="M234.85,-110.33C229.31,-103.13 221.28,-92.71 214.4,-83.76"/>
<polygon fill="#63b8ff" stroke="#63b8ff" points="217.34,-81.85 208.47,-76.06 211.79,-86.12 217.34,-81.85"/>
</a>
</g>
</g>
<!-- Node14 -->
<g id="Node000014" class="node">
<title>Node14</title>
<g id="a_Node000014"><a xlink:title=" ">
<polygon fill="#e0e0e0" stroke="#999999" points="157.5,-74.5 101.75,-74.5 101.75,-55.25 157.5,-55.25 157.5,-74.5"/>
<text text-anchor="middle" x="129.62" y="-61" font-family="Helvetica,sans-Serif" font-size="10.00">algorithm</text>
</a>
</g>
</g>
<!-- Node11&#45;&gt;Node14 -->
<g id="edge18_Node000011_Node000014" class="edge">
<title>Node11&#45;&gt;Node14</title>
<g id="a_edge18_Node000011_Node000014"><a xlink:title=" ">
<path fill="none" stroke="#63b8ff" d="M222.63,-110.09C205.17,-101.79 179.03,-89.36 158.9,-79.79"/>
<polygon fill="#63b8ff" stroke="#63b8ff" points="160.62,-76.74 150.08,-75.6 157.61,-83.06 160.62,-76.74"/>
</a>
</g>
</g>
<!-- Node15&#45;&gt;Node12 -->
<g id="edge23_Node000015_Node000012" class="edge">
<title>Node15&#45;&gt;Node12</title>
<g id="a_edge23_Node000015_Node000012"><a xlink:title=" ">
<path fill="none" stroke="#63b8ff" d="M635.71,-110.09C623.46,-102.14 605.37,-90.39 590.91,-81"/>
<polygon fill="#63b8ff" stroke="#63b8ff" points="593.17,-78.29 582.87,-75.78 589.35,-84.16 593.17,-78.29"/>
</a>
</g>
</g>
<!-- Node16 -->
<g id="Node000016" class="node">
<title>Node16</title>
<g id="a_Node000016"><a xlink:title=" ">
<polygon fill="#e0e0e0" stroke="#999999" points="686.5,-74.5 612.75,-74.5 612.75,-55.25 686.5,-55.25 686.5,-74.5"/>
<text text-anchor="middle" x="649.62" y="-61" font-family="Helvetica,sans-Serif" font-size="10.00">Eigen/Sparse</text>
</a>
</g>
</g>
<!-- Node15&#45;&gt;Node16 -->
<g id="edge21_Node000015_Node000016" class="edge">
<title>Node15&#45;&gt;Node16</title>
<g id="a_edge21_Node000015_Node000016"><a xlink:title=" ">
<path fill="none" stroke="#63b8ff" d="M649.62,-110.33C649.62,-103.82 649.62,-94.67 649.62,-86.37"/>
<polygon fill="#63b8ff" stroke="#63b8ff" points="653.13,-86.37 649.63,-76.37 646.13,-86.37 653.13,-86.37"/>
</a>
</g>
</g>
<!-- Node17 -->
<g id="Node000017" class="node">
<title>Node17</title>
<g id="a_Node000017"><a xlink:title=" ">
<polygon fill="#e0e0e0" stroke="#999999" points="792.25,-74.5 705,-74.5 705,-55.25 792.25,-55.25 792.25,-74.5"/>
<text text-anchor="middle" x="748.62" y="-61" font-family="Helvetica,sans-Serif" font-size="10.00">Eigen/SparseLU</text>
</a>
</g>
</g>
<!-- Node15&#45;&gt;Node17 -->
<g id="edge22_Node000015_Node000017" class="edge">
<title>Node15&#45;&gt;Node17</title>
<g id="a_edge22_Node000015_Node000017"><a xlink:title=" ">
<path fill="none" stroke="#63b8ff" d="M666.42,-110.09C681.64,-101.91 704.32,-89.71 722.01,-80.19"/>
<polygon fill="#63b8ff" stroke="#63b8ff" points="723.27,-83.49 730.42,-75.67 719.95,-77.32 723.27,-83.49"/>
</a>
</g>
</g>
<!-- Node18 -->
<g id="Node000018" class="node">
<title>Node18</title>
<g id="a_Node000018"><a xlink:title=" ">
<polygon fill="#e0e0e0" stroke="#999999" points="860.88,-74.5 810.38,-74.5 810.38,-55.25 860.88,-55.25 860.88,-74.5"/>
<text text-anchor="middle" x="835.62" y="-61" font-family="Helvetica,sans-Serif" font-size="10.00">memory</text>
</a>
</g>
</g>
<!-- Node15&#45;&gt;Node18 -->
<g id="edge24_Node000015_Node000018" class="edge">
<title>Node15&#45;&gt;Node18</title>
<g id="a_edge24_Node000015_Node000018"><a xlink:title=" ">
<path fill="none" stroke="#63b8ff" d="M681.18,-110.09C713.77,-100.76 764.59,-86.21 798.95,-76.38"/>
<polygon fill="#63b8ff" stroke="#63b8ff" points="799.81,-79.77 808.46,-73.65 797.89,-73.04 799.81,-79.77"/>
</a>
</g>
</g>
<!-- Node19&#45;&gt;Node4 -->
<g id="edge26_Node000019_Node000004" class="edge">
<title>Node19&#45;&gt;Node4</title>
<g id="a_edge26_Node000019_Node000004"><a xlink:title=" ">
<path fill="none" stroke="#63b8ff" d="M520.85,-110.33C516.21,-103.28 509.55,-93.15 503.76,-84.33"/>
<polygon fill="#63b8ff" stroke="#63b8ff" points="506.78,-82.56 498.36,-76.12 500.93,-86.4 506.78,-82.56"/>
</a>
</g>
</g>
</g>
</svg>
