<?xml version="1.0" encoding="UTF-8" standalone="no"?>
<!DOCTYPE svg PUBLIC "-//W3C//DTD SVG 1.1//EN"
 "http://www.w3.org/Graphics/SVG/1.1/DTD/svg11.dtd">
<!-- Generated by graphviz version 12.2.1 (20241206.2353)
 -->
<!-- Title: model/BloodVesselJunction.h Pages: 1 -->
<svg width="845pt" height="304pt"
 viewBox="0.00 0.00 844.87 303.50" xmlns="http://www.w3.org/2000/svg" xmlns:xlink="http://www.w3.org/1999/xlink">
<g id="graph0" class="graph" transform="scale(1 1) rotate(0) translate(4 299.5)">
<title>model/BloodVesselJunction.h</title>
<!-- Node1 -->
<g id="Node000001" class="node">
<title>Node1</title>
<g id="a_Node000001"><a xlink:title="model::BloodVesselJunction source file">
<polygon fill="#999999" stroke="#666666" points="511.12,-295.5 366.87,-295.5 366.87,-276.25 511.12,-276.25 511.12,-295.5"/>
<text text-anchor="middle" x="439" y="-282" font-family="Helvetica,sans-Serif" font-size="10.00">model/BloodVesselJunction.h</text>
</a>
</g>
</g>
<!-- Node2 -->
<g id="Node000002" class="node">
<title>Node2</title>
<g id="a_Node000002"><a xlink:href="_block_8h.html" target="_top" xlink:title="model::Block source file">
<polygon fill="white" stroke="#666666" points="323.12,-185 274.87,-185 274.87,-165.75 323.12,-165.75 323.12,-185"/>
<text text-anchor="middle" x="299" y="-171.5" font-family="Helvetica,sans-Serif" font-size="10.00">Block.h</text>
</a>
</g>
</g>
<!-- Node1&#45;&gt;Node2 -->
<g id="edge1_Node000001_Node000002" class="edge">
<title>Node1&#45;&gt;Node2</title>
<g id="a_edge1_Node000001_Node000002"><a xlink:title=" ">
<path fill="none" stroke="#63b8ff" d="M427.54,-276C403.85,-257.64 349.21,-215.29 319.36,-192.16"/>
<polygon fill="#63b8ff" stroke="#63b8ff" points="321.85,-189.66 311.81,-186.3 317.57,-195.2 321.85,-189.66"/>
</a>
</g>
</g>
<!-- Node15 -->
<g id="Node000015" class="node">
<title>Node15</title>
<g id="a_Node000015"><a xlink:href="_sparse_system_8h.html" target="_top" xlink:title="SparseSystem source file.">
<polygon fill="white" stroke="#666666" points="676.62,-129.75 589.37,-129.75 589.37,-110.5 676.62,-110.5 676.62,-129.75"/>
<text text-anchor="middle" x="633" y="-116.25" font-family="Helvetica,sans-Serif" font-size="10.00">SparseSystem.h</text>
</a>
</g>
</g>
<!-- Node1&#45;&gt;Node15 -->
<g id="edge30_Node000001_Node000015" class="edge">
<title>Node1&#45;&gt;Node15</title>
<g id="a_edge30_Node000001_Node000015"><a xlink:title=" ">
<path fill="none" stroke="#63b8ff" d="M449.7,-275.84C481.18,-249.27 573.71,-171.16 613.95,-137.2"/>
<polygon fill="#63b8ff" stroke="#63b8ff" points="616.02,-140.04 621.4,-130.91 611.5,-134.69 616.02,-140.04"/>
</a>
</g>
</g>
<!-- Node20 -->
<g id="Node000020" class="node">
<title>Node20</title>
<g id="a_Node000020"><a xlink:href="_blood_vessel_8h.html" target="_top" xlink:title="model::BloodVessel source file">
<polygon fill="white" stroke="#666666" points="478.12,-240.25 399.87,-240.25 399.87,-221 478.12,-221 478.12,-240.25"/>
<text text-anchor="middle" x="439" y="-226.75" font-family="Helvetica,sans-Serif" font-size="10.00">BloodVessel.h</text>
</a>
</g>
</g>
<!-- Node1&#45;&gt;Node20 -->
<g id="edge26_Node000001_Node000020" class="edge">
<title>Node1&#45;&gt;Node20</title>
<g id="a_edge26_Node000001_Node000020"><a xlink:title=" ">
<path fill="none" stroke="#63b8ff" d="M439,-276.08C439,-269.57 439,-260.42 439,-252.12"/>
<polygon fill="#63b8ff" stroke="#63b8ff" points="442.5,-252.12 439,-242.12 435.5,-252.12 442.5,-252.12"/>
</a>
</g>
</g>
<!-- Node3 -->
<g id="Node000003" class="node">
<title>Node3</title>
<g id="a_Node000003"><a xlink:title=" ">
<polygon fill="#e0e0e0" stroke="#999999" points="122.62,-74.5 59.37,-74.5 59.37,-55.25 122.62,-55.25 122.62,-74.5"/>
<text text-anchor="middle" x="91" y="-61" font-family="Helvetica,sans-Serif" font-size="10.00">Eigen/Core</text>
</a>
</g>
</g>
<!-- Node2&#45;&gt;Node3 -->
<g id="edge2_Node000002_Node000003" class="edge">
<title>Node2&#45;&gt;Node3</title>
<g id="a_edge2_Node000002_Node000003"><a xlink:title=" ">
<path fill="none" stroke="#63b8ff" d="M274.59,-171.01C243.86,-165.92 190.35,-154.13 151,-129.75 131.66,-117.77 114.45,-98 103.47,-83.62"/>
<polygon fill="#63b8ff" stroke="#63b8ff" points="106.55,-81.9 97.81,-75.91 100.91,-86.04 106.55,-81.9"/>
</a>
</g>
</g>
<!-- Node4 -->
<g id="Node000004" class="node">
<title>Node4</title>
<g id="a_Node000004"><a xlink:title=" ">
<polygon fill="#e0e0e0" stroke="#999999" points="380.4,-129.75 351.6,-129.75 351.6,-110.5 380.4,-110.5 380.4,-129.75"/>
<text text-anchor="middle" x="366" y="-116.25" font-family="Helvetica,sans-Serif" font-size="10.00">list</text>
</a>
</g>
</g>
<!-- Node2&#45;&gt;Node4 -->
<g id="edge3_Node000002_Node000004" class="edge">
<title>Node2&#45;&gt;Node4</title>
<g id="a_edge3_Node000002_Node000004"><a xlink:title=" ">
<path fill="none" stroke="#63b8ff" d="M310.36,-165.34C320.04,-157.65 334.19,-146.4 345.8,-137.18"/>
<polygon fill="#63b8ff" stroke="#63b8ff" points="347.96,-139.93 353.61,-130.97 343.61,-134.45 347.96,-139.93"/>
</a>
</g>
</g>
<!-- Node5 -->
<g id="Node000005" class="node">
<title>Node5</title>
<g id="a_Node000005"><a xlink:title=" ">
<polygon fill="#e0e0e0" stroke="#999999" points="43.37,-19.25 8.62,-19.25 8.62,0 43.37,0 43.37,-19.25"/>
<text text-anchor="middle" x="26" y="-5.75" font-family="Helvetica,sans-Serif" font-size="10.00">map</text>
</a>
</g>
</g>
<!-- Node2&#45;&gt;Node5 -->
<g id="edge4_Node000002_Node000005" class="edge">
<title>Node2&#45;&gt;Node5</title>
<g id="a_edge4_Node000002_Node000005"><a xlink:title=" ">
<path fill="none" stroke="#63b8ff" d="M274.38,-174.43C211.34,-174.01 46.66,-169.07 13,-129.75 -10.93,-101.8 4.4,-55.63 16.17,-29.74"/>
<polygon fill="#63b8ff" stroke="#63b8ff" points="19.16,-31.59 20.36,-21.07 12.86,-28.54 19.16,-31.59"/>
</a>
</g>
</g>
<!-- Node6 -->
<g id="Node000006" class="node">
<title>Node6</title>
<g id="a_Node000006"><a xlink:title=" ">
<polygon fill="#e0e0e0" stroke="#999999" points="267.5,-19.25 224.5,-19.25 224.5,0 267.5,0 267.5,-19.25"/>
<text text-anchor="middle" x="246" y="-5.75" font-family="Helvetica,sans-Serif" font-size="10.00">vector</text>
</a>
</g>
</g>
<!-- Node2&#45;&gt;Node6 -->
<g id="edge5_Node000002_Node000006" class="edge">
<title>Node2&#45;&gt;Node6</title>
<g id="a_edge5_Node000002_Node000006"><a xlink:title=" ">
<path fill="none" stroke="#63b8ff" d="M323.56,-171.75C397.19,-162.97 607.04,-130.84 542,-55.25 508.35,-16.15 348.89,-10.86 278.98,-10.45"/>
<polygon fill="#63b8ff" stroke="#63b8ff" points="279.31,-6.95 269.3,-10.43 279.29,-13.95 279.31,-6.95"/>
</a>
</g>
</g>
<!-- Node7 -->
<g id="Node000007" class="node">
<title>Node7</title>
<g id="a_Node000007"><a xlink:href="_block_type_8h.html" target="_top" xlink:title="Specifies the types of blocks and their parameters.">
<polygon fill="white" stroke="#666666" points="91.62,-129.75 22.37,-129.75 22.37,-110.5 91.62,-110.5 91.62,-129.75"/>
<text text-anchor="middle" x="57" y="-116.25" font-family="Helvetica,sans-Serif" font-size="10.00">BlockType.h</text>
</a>
</g>
</g>
<!-- Node2&#45;&gt;Node7 -->
<g id="edge6_Node000002_Node000007" class="edge">
<title>Node2&#45;&gt;Node7</title>
<g id="a_edge6_Node000002_Node000007"><a xlink:title=" ">
<path fill="none" stroke="#63b8ff" d="M274.46,-168.98C234.35,-160.15 154.13,-142.5 103.13,-131.28"/>
<polygon fill="#63b8ff" stroke="#63b8ff" points="104.09,-127.9 93.57,-129.17 102.58,-134.74 104.09,-127.9"/>
</a>
</g>
</g>
<!-- Node9 -->
<g id="Node000009" class="node">
<title>Node9</title>
<g id="a_Node000009"><a xlink:href="_d_o_f_handler_8h.html" target="_top" xlink:title="model::DOFHandler source file">
<polygon fill="white" stroke="#666666" points="217.75,-74.5 140.25,-74.5 140.25,-55.25 217.75,-55.25 217.75,-74.5"/>
<text text-anchor="middle" x="179" y="-61" font-family="Helvetica,sans-Serif" font-size="10.00">DOFHandler.h</text>
</a>
</g>
</g>
<!-- Node2&#45;&gt;Node9 -->
<g id="edge8_Node000002_Node000009" class="edge">
<title>Node2&#45;&gt;Node9</title>
<g id="a_edge8_Node000002_Node000009"><a xlink:title=" ">
<path fill="none" stroke="#63b8ff" d="M289.18,-165.5C269.13,-147.38 223.24,-105.88 197.46,-82.57"/>
<polygon fill="#63b8ff" stroke="#63b8ff" points="199.84,-80 190.07,-75.89 195.14,-85.19 199.84,-80"/>
</a>
</g>
</g>
<!-- Node10 -->
<g id="Node000010" class="node">
<title>Node10</title>
<g id="a_Node000010"><a xlink:href="_parameter_8h.html" target="_top" xlink:title="model::Parameter source file">
<polygon fill="white" stroke="#666666" points="333.25,-129.75 264.75,-129.75 264.75,-110.5 333.25,-110.5 333.25,-129.75"/>
<text text-anchor="middle" x="299" y="-116.25" font-family="Helvetica,sans-Serif" font-size="10.00">Parameter.h</text>
</a>
</g>
</g>
<!-- Node2&#45;&gt;Node10 -->
<g id="edge12_Node000002_Node000010" class="edge">
<title>Node2&#45;&gt;Node10</title>
<g id="a_edge12_Node000002_Node000010"><a xlink:title=" ">
<path fill="none" stroke="#63b8ff" d="M299,-165.58C299,-159.07 299,-149.92 299,-141.62"/>
<polygon fill="#63b8ff" stroke="#63b8ff" points="302.5,-141.62 299,-131.62 295.5,-141.62 302.5,-141.62"/>
</a>
</g>
</g>
<!-- Node2&#45;&gt;Node15 -->
<g id="edge19_Node000002_Node000015" class="edge">
<title>Node2&#45;&gt;Node15</title>
<g id="a_edge19_Node000002_Node000015"><a xlink:title=" ">
<path fill="none" stroke="#63b8ff" d="M323.56,-170.46C376.82,-161.97 504.1,-141.68 577.75,-129.93"/>
<polygon fill="#63b8ff" stroke="#63b8ff" points="578.28,-133.39 587.6,-128.36 577.18,-126.48 578.28,-133.39"/>
</a>
</g>
</g>
<!-- Node19 -->
<g id="Node000019" class="node">
<title>Node19</title>
<g id="a_Node000019"><a xlink:href="_state_8h.html" target="_top" xlink:title="State source file.">
<polygon fill="white" stroke="#666666" points="206.37,-129.75 159.62,-129.75 159.62,-110.5 206.37,-110.5 206.37,-129.75"/>
<text text-anchor="middle" x="183" y="-116.25" font-family="Helvetica,sans-Serif" font-size="10.00">State.h</text>
</a>
</g>
</g>
<!-- Node2&#45;&gt;Node19 -->
<g id="edge24_Node000002_Node000019" class="edge">
<title>Node2&#45;&gt;Node19</title>
<g id="a_edge24_Node000002_Node000019"><a xlink:title=" ">
<path fill="none" stroke="#63b8ff" d="M279.32,-165.34C261.15,-157 233.91,-144.5 213.03,-134.91"/>
<polygon fill="#63b8ff" stroke="#63b8ff" points="214.69,-131.83 204.15,-130.83 211.77,-138.19 214.69,-131.83"/>
</a>
</g>
</g>
<!-- Node8 -->
<g id="Node000008" class="node">
<title>Node8</title>
<g id="a_Node000008"><a xlink:title=" ">
<polygon fill="#e0e0e0" stroke="#999999" points="166,-19.25 126,-19.25 126,0 166,0 166,-19.25"/>
<text text-anchor="middle" x="146" y="-5.75" font-family="Helvetica,sans-Serif" font-size="10.00">string</text>
</a>
</g>
</g>
<!-- Node7&#45;&gt;Node8 -->
<g id="edge7_Node000007_Node000008" class="edge">
<title>Node7&#45;&gt;Node8</title>
<g id="a_edge7_Node000007_Node000008"><a xlink:title=" ">
<path fill="none" stroke="#63b8ff" d="M52.66,-110.05C47.04,-96.88 39.2,-72.18 50,-55.25 64.14,-33.08 92.45,-21.75 114.69,-16.07"/>
<polygon fill="#63b8ff" stroke="#63b8ff" points="115.19,-19.55 124.17,-13.93 113.65,-12.72 115.19,-19.55"/>
</a>
</g>
</g>
<!-- Node9&#45;&gt;Node5 -->
<g id="edge9_Node000009_Node000005" class="edge">
<title>Node9&#45;&gt;Node5</title>
<g id="a_edge9_Node000009_Node000005"><a xlink:title=" ">
<path fill="none" stroke="#63b8ff" d="M153.04,-54.84C125.62,-45.3 82.5,-30.29 54.24,-20.46"/>
<polygon fill="#63b8ff" stroke="#63b8ff" points="55.51,-17.19 44.91,-17.21 53.21,-23.8 55.51,-17.19"/>
</a>
</g>
</g>
<!-- Node9&#45;&gt;Node6 -->
<g id="edge11_Node000009_Node000006" class="edge">
<title>Node9&#45;&gt;Node6</title>
<g id="a_edge11_Node000009_Node000006"><a xlink:title=" ">
<path fill="none" stroke="#63b8ff" d="M190.36,-54.84C200.04,-47.15 214.19,-35.9 225.8,-26.68"/>
<polygon fill="#63b8ff" stroke="#63b8ff" points="227.96,-29.43 233.61,-20.47 223.61,-23.95 227.96,-29.43"/>
</a>
</g>
</g>
<!-- Node9&#45;&gt;Node8 -->
<g id="edge10_Node000009_Node000008" class="edge">
<title>Node9&#45;&gt;Node8</title>
<g id="a_edge10_Node000009_Node000008"><a xlink:title=" ">
<path fill="none" stroke="#63b8ff" d="M173.55,-55.08C169.23,-48.11 163.03,-38.12 157.61,-29.37"/>
<polygon fill="#63b8ff" stroke="#63b8ff" points="160.6,-27.55 152.36,-20.9 154.65,-31.24 160.6,-27.55"/>
</a>
</g>
</g>
<!-- Node10&#45;&gt;Node6 -->
<g id="edge16_Node000010_Node000006" class="edge">
<title>Node10&#45;&gt;Node6</title>
<g id="a_edge16_Node000010_Node000006"><a xlink:title=" ">
<path fill="none" stroke="#63b8ff" d="M290.64,-110.22C283,-101.65 271.88,-88.05 265,-74.5 257.93,-60.59 253.03,-43.6 249.98,-30.64"/>
<polygon fill="#63b8ff" stroke="#63b8ff" points="253.47,-30.2 247.93,-21.17 246.63,-31.68 253.47,-30.2"/>
</a>
</g>
</g>
<!-- Node10&#45;&gt;Node9 -->
<g id="edge18_Node000010_Node000009" class="edge">
<title>Node10&#45;&gt;Node9</title>
<g id="a_edge18_Node000010_Node000009"><a xlink:title=" ">
<path fill="none" stroke="#63b8ff" d="M278.64,-110.09C259.76,-101.72 231.41,-89.13 209.77,-79.53"/>
<polygon fill="#63b8ff" stroke="#63b8ff" points="211.4,-76.42 200.84,-75.57 208.56,-82.82 211.4,-76.42"/>
</a>
</g>
</g>
<!-- Node11 -->
<g id="Node000011" class="node">
<title>Node11</title>
<g id="a_Node000011"><a xlink:title=" ">
<polygon fill="#e0e0e0" stroke="#999999" points="461.62,-74.5 416.37,-74.5 416.37,-55.25 461.62,-55.25 461.62,-74.5"/>
<text text-anchor="middle" x="439" y="-61" font-family="Helvetica,sans-Serif" font-size="10.00">math.h</text>
</a>
</g>
</g>
<!-- Node10&#45;&gt;Node11 -->
<g id="edge13_Node000010_Node000011" class="edge">
<title>Node10&#45;&gt;Node11</title>
<g id="a_edge13_Node000010_Node000011"><a xlink:title=" ">
<path fill="none" stroke="#63b8ff" d="M322.74,-110.09C345.44,-101.46 379.88,-88.36 405.39,-78.66"/>
<polygon fill="#63b8ff" stroke="#63b8ff" points="406.54,-81.96 414.65,-75.14 404.06,-75.42 406.54,-81.96"/>
</a>
</g>
</g>
<!-- Node12 -->
<g id="Node000012" class="node">
<title>Node12</title>
<g id="a_Node000012"><a xlink:title=" ">
<polygon fill="#e0e0e0" stroke="#999999" points="532.75,-74.5 479.25,-74.5 479.25,-55.25 532.75,-55.25 532.75,-74.5"/>
<text text-anchor="middle" x="506" y="-61" font-family="Helvetica,sans-Serif" font-size="10.00">iostream</text>
</a>
</g>
</g>
<!-- Node10&#45;&gt;Node12 -->
<g id="edge14_Node000010_Node000012" class="edge">
<title>Node10&#45;&gt;Node12</title>
<g id="a_edge14_Node000010_Node000012"><a xlink:title=" ">
<path fill="none" stroke="#63b8ff" d="M333.64,-110.21C370.83,-100.65 429.72,-85.5 468.11,-75.62"/>
<polygon fill="#63b8ff" stroke="#63b8ff" points="468.56,-79.12 477.38,-73.24 466.82,-72.34 468.56,-79.12"/>
</a>
</g>
</g>
<!-- Node13 -->
<g id="Node000013" class="node">
<title>Node13</title>
<g id="a_Node000013"><a xlink:title=" ">
<polygon fill="#e0e0e0" stroke="#999999" points="324.25,-74.5 273.75,-74.5 273.75,-55.25 324.25,-55.25 324.25,-74.5"/>
<text text-anchor="middle" x="299" y="-61" font-family="Helvetica,sans-Serif" font-size="10.00">numeric</text>
</a>
</g>
</g>
<!-- Node10&#45;&gt;Node13 -->
<g id="edge15_Node000010_Node000013" class="edge">
<title>Node10&#45;&gt;Node13</title>
<g id="a_edge15_Node000010_Node000013"><a xlink:title=" ">
<path fill="none" stroke="#63b8ff" d="M299,-110.33C299,-103.82 299,-94.67 299,-86.37"/>
<polygon fill="#63b8ff" stroke="#63b8ff" points="302.5,-86.37 299,-76.37 295.5,-86.37 302.5,-86.37"/>
</a>
</g>
</g>
<!-- Node14 -->
<g id="Node000014" class="node">
<title>Node14</title>
<g id="a_Node000014"><a xlink:title=" ">
<polygon fill="#e0e0e0" stroke="#999999" points="397.87,-74.5 342.12,-74.5 342.12,-55.25 397.87,-55.25 397.87,-74.5"/>
<text text-anchor="middle" x="370" y="-61" font-family="Helvetica,sans-Serif" font-size="10.00">algorithm</text>
</a>
</g>
</g>
<!-- Node10&#45;&gt;Node14 -->
<g id="edge17_Node000010_Node000014" class="edge">
<title>Node10&#45;&gt;Node14</title>
<g id="a_edge17_Node000010_Node000014"><a xlink:title=" ">
<path fill="none" stroke="#63b8ff" d="M311.04,-110.09C321.4,-102.32 336.6,-90.92 348.96,-81.65"/>
<polygon fill="#63b8ff" stroke="#63b8ff" points="351.02,-84.48 356.92,-75.68 346.82,-78.88 351.02,-84.48"/>
</a>
</g>
</g>
<!-- Node15&#45;&gt;Node12 -->
<g id="edge22_Node000015_Node000012" class="edge">
<title>Node15&#45;&gt;Node12</title>
<g id="a_edge22_Node000015_Node000012"><a xlink:title=" ">
<path fill="none" stroke="#63b8ff" d="M611.45,-110.09C591.38,-101.68 561.19,-89.02 538.25,-79.4"/>
<polygon fill="#63b8ff" stroke="#63b8ff" points="539.62,-76.18 529.04,-75.54 536.91,-82.63 539.62,-76.18"/>
</a>
</g>
</g>
<!-- Node16 -->
<g id="Node000016" class="node">
<title>Node16</title>
<g id="a_Node000016"><a xlink:title=" ">
<polygon fill="#e0e0e0" stroke="#999999" points="836.87,-74.5 763.12,-74.5 763.12,-55.25 836.87,-55.25 836.87,-74.5"/>
<text text-anchor="middle" x="800" y="-61" font-family="Helvetica,sans-Serif" font-size="10.00">Eigen/Sparse</text>
</a>
</g>
</g>
<!-- Node15&#45;&gt;Node16 -->
<g id="edge20_Node000015_Node000016" class="edge">
<title>Node15&#45;&gt;Node16</title>
<g id="a_edge20_Node000015_Node000016"><a xlink:title=" ">
<path fill="none" stroke="#63b8ff" d="M661.32,-110.09C688.68,-101.37 730.32,-88.09 760.84,-78.36"/>
<polygon fill="#63b8ff" stroke="#63b8ff" points="761.62,-81.78 770.09,-75.41 759.49,-75.12 761.62,-81.78"/>
</a>
</g>
</g>
<!-- Node17 -->
<g id="Node000017" class="node">
<title>Node17</title>
<g id="a_Node000017"><a xlink:title=" ">
<polygon fill="#e0e0e0" stroke="#999999" points="676.62,-74.5 589.37,-74.5 589.37,-55.25 676.62,-55.25 676.62,-74.5"/>
<text text-anchor="middle" x="633" y="-61" font-family="Helvetica,sans-Serif" font-size="10.00">Eigen/SparseLU</text>
</a>
</g>
</g>
<!-- Node15&#45;&gt;Node17 -->
<g id="edge21_Node000015_Node000017" class="edge">
<title>Node15&#45;&gt;Node17</title>
<g id="a_edge21_Node000015_Node000017"><a xlink:title=" ">
<path fill="none" stroke="#63b8ff" d="M633,-110.33C633,-103.82 633,-94.67 633,-86.37"/>
<polygon fill="#63b8ff" stroke="#63b8ff" points="636.5,-86.37 633,-76.37 629.5,-86.37 636.5,-86.37"/>
</a>
</g>
</g>
<!-- Node18 -->
<g id="Node000018" class="node">
<title>Node18</title>
<g id="a_Node000018"><a xlink:title=" ">
<polygon fill="#e0e0e0" stroke="#999999" points="745.25,-74.5 694.75,-74.5 694.75,-55.25 745.25,-55.25 745.25,-74.5"/>
<text text-anchor="middle" x="720" y="-61" font-family="Helvetica,sans-Serif" font-size="10.00">memory</text>
</a>
</g>
</g>
<!-- Node15&#45;&gt;Node18 -->
<g id="edge23_Node000015_Node000018" class="edge">
<title>Node15&#45;&gt;Node18</title>
<g id="a_edge23_Node000015_Node000018"><a xlink:title=" ">
<path fill="none" stroke="#63b8ff" d="M647.75,-110.09C660.88,-102.06 680.32,-90.16 695.73,-80.73"/>
<polygon fill="#63b8ff" stroke="#63b8ff" points="697.17,-83.95 703.87,-75.74 693.52,-77.98 697.17,-83.95"/>
</a>
</g>
</g>
<!-- Node19&#45;&gt;Node3 -->
<g id="edge25_Node000019_Node000003" class="edge">
<title>Node19&#45;&gt;Node3</title>
<g id="a_edge25_Node000019_Node000003"><a xlink:title=" ">
<path fill="none" stroke="#63b8ff" d="M167.39,-110.09C153.38,-101.98 132.56,-89.93 116.19,-80.46"/>
<polygon fill="#63b8ff" stroke="#63b8ff" points="118.4,-77.69 107.99,-75.71 114.89,-83.75 118.4,-77.69"/>
</a>
</g>
</g>
<!-- Node20&#45;&gt;Node2 -->
<g id="edge28_Node000020_Node000002" class="edge">
<title>Node20&#45;&gt;Node2</title>
<g id="a_edge28_Node000020_Node000002"><a xlink:title=" ">
<path fill="none" stroke="#63b8ff" d="M415.25,-220.59C392.82,-212.06 358.93,-199.17 333.52,-189.51"/>
<polygon fill="#63b8ff" stroke="#63b8ff" points="334.87,-186.27 324.28,-185.99 332.38,-192.82 334.87,-186.27"/>
</a>
</g>
</g>
<!-- Node20&#45;&gt;Node11 -->
<g id="edge27_Node000020_Node000011" class="edge">
<title>Node20&#45;&gt;Node11</title>
<g id="a_edge27_Node000020_Node000011"><a xlink:title=" ">
<path fill="none" stroke="#63b8ff" d="M439,-220.82C439,-195.5 439,-122 439,-86.09"/>
<polygon fill="#63b8ff" stroke="#63b8ff" points="442.5,-86.24 439,-76.24 435.5,-86.24 442.5,-86.24"/>
</a>
</g>
</g>
<!-- Node20&#45;&gt;Node15 -->
<g id="edge29_Node000020_Node000015" class="edge">
<title>Node20&#45;&gt;Node15</title>
<g id="a_edge29_Node000020_Node000015"><a xlink:title=" ">
<path fill="none" stroke="#63b8ff" d="M455.2,-220.56C488.72,-201.81 565.95,-158.62 606.7,-135.83"/>
<polygon fill="#63b8ff" stroke="#63b8ff" points="608.36,-138.91 615.38,-130.98 604.94,-132.8 608.36,-138.91"/>
</a>
</g>
</g>
</g>
</svg>
