<?xml version="1.0" encoding="UTF-8" standalone="no"?>
<!DOCTYPE svg PUBLIC "-//W3C//DTD SVG 1.1//EN"
 "http://www.w3.org/Graphics/SVG/1.1/DTD/svg11.dtd">
<!-- Generated by graphviz version 12.2.1 (20241206.2353)
 -->
<!-- Title: model/BlockFactory.h Pages: 1 -->
<svg width="931pt" height="248pt"
 viewBox="0.00 0.00 931.33 248.25" xmlns="http://www.w3.org/2000/svg" xmlns:xlink="http://www.w3.org/1999/xlink">
<g id="graph0" class="graph" transform="scale(1 1) rotate(0) translate(4 244.25)">
<title>model/BlockFactory.h</title>
<!-- Node1 -->
<g id="Node000001" class="node">
<title>Node1</title>
<g id="a_Node000001"><a xlink:title="Define the block factory functional.">
<polygon fill="#999999" stroke="#666666" points="140.88,-240.25 31.12,-240.25 31.12,-221 140.88,-221 140.88,-240.25"/>
<text text-anchor="middle" x="86" y="-226.75" font-family="Helvetica,sans-Serif" font-size="10.00">model/BlockFactory.h</text>
</a>
</g>
</g>
<!-- Node2 -->
<g id="Node000002" class="node">
<title>Node2</title>
<g id="a_Node000002"><a xlink:title=" ">
<polygon fill="#e0e0e0" stroke="#999999" points="58,-185 0,-185 0,-165.75 58,-165.75 58,-185"/>
<text text-anchor="middle" x="29" y="-171.5" font-family="Helvetica,sans-Serif" font-size="10.00">functional</text>
</a>
</g>
</g>
<!-- Node1&#45;&gt;Node2 -->
<g id="edge1_Node000001_Node000002" class="edge">
<title>Node1&#45;&gt;Node2</title>
<g id="a_edge1_Node000001_Node000002"><a xlink:title=" ">
<path fill="none" stroke="#63b8ff" d="M76.33,-220.59C68.26,-213.05 56.53,-202.1 46.78,-192.98"/>
<polygon fill="#63b8ff" stroke="#63b8ff" points="49.33,-190.58 39.63,-186.31 44.55,-195.69 49.33,-190.58"/>
</a>
</g>
</g>
<!-- Node3 -->
<g id="Node000003" class="node">
<title>Node3</title>
<g id="a_Node000003"><a xlink:title=" ">
<polygon fill="#e0e0e0" stroke="#999999" points="246.5,-19.25 203.5,-19.25 203.5,0 246.5,0 246.5,-19.25"/>
<text text-anchor="middle" x="225" y="-5.75" font-family="Helvetica,sans-Serif" font-size="10.00">vector</text>
</a>
</g>
</g>
<!-- Node1&#45;&gt;Node3 -->
<g id="edge2_Node000001_Node000003" class="edge">
<title>Node1&#45;&gt;Node3</title>
<g id="a_edge2_Node000001_Node000003"><a xlink:title=" ">
<path fill="none" stroke="#63b8ff" d="M84.05,-220.85C78.46,-193.16 65.15,-106.43 105,-55.25 125.79,-28.55 164.3,-17.82 192.09,-13.52"/>
<polygon fill="#63b8ff" stroke="#63b8ff" points="192.31,-17.02 201.77,-12.23 191.39,-10.08 192.31,-17.02"/>
</a>
</g>
</g>
<!-- Node4 -->
<g id="Node000004" class="node">
<title>Node4</title>
<g id="a_Node000004"><a xlink:href="_block_8h.html" target="_top" xlink:title="model::Block source file">
<polygon fill="white" stroke="#666666" points="346.12,-185 297.88,-185 297.88,-165.75 346.12,-165.75 346.12,-185"/>
<text text-anchor="middle" x="322" y="-171.5" font-family="Helvetica,sans-Serif" font-size="10.00">Block.h</text>
</a>
</g>
</g>
<!-- Node1&#45;&gt;Node4 -->
<g id="edge3_Node000001_Node000004" class="edge">
<title>Node1&#45;&gt;Node4</title>
<g id="a_edge3_Node000001_Node000004"><a xlink:title=" ">
<path fill="none" stroke="#63b8ff" d="M126.3,-220.53C171.28,-210.38 243.38,-194.11 286.37,-184.41"/>
<polygon fill="#63b8ff" stroke="#63b8ff" points="286.96,-187.87 295.94,-182.25 285.42,-181.04 286.96,-187.87"/>
</a>
</g>
</g>
<!-- Node4&#45;&gt;Node3 -->
<g id="edge7_Node000004_Node000003" class="edge">
<title>Node4&#45;&gt;Node3</title>
<g id="a_edge7_Node000004_Node000003"><a xlink:title=" ">
<path fill="none" stroke="#63b8ff" d="M312.76,-165.34C296.36,-148.81 262.1,-111.91 243,-74.5 235.93,-60.66 231.32,-43.67 228.53,-30.69"/>
<polygon fill="#63b8ff" stroke="#63b8ff" points="232.03,-30.35 226.69,-21.2 225.16,-31.68 232.03,-30.35"/>
</a>
</g>
</g>
<!-- Node5 -->
<g id="Node000005" class="node">
<title>Node5</title>
<g id="a_Node000005"><a xlink:title=" ">
<polygon fill="#e0e0e0" stroke="#999999" points="177.62,-74.5 114.38,-74.5 114.38,-55.25 177.62,-55.25 177.62,-74.5"/>
<text text-anchor="middle" x="146" y="-61" font-family="Helvetica,sans-Serif" font-size="10.00">Eigen/Core</text>
</a>
</g>
</g>
<!-- Node4&#45;&gt;Node5 -->
<g id="edge4_Node000004_Node000005" class="edge">
<title>Node4&#45;&gt;Node5</title>
<g id="a_edge4_Node000004_Node000005"><a xlink:title=" ">
<path fill="none" stroke="#63b8ff" d="M307.86,-165.41C288.21,-152.99 251.51,-129.86 220,-110.5 203.65,-100.45 185.16,-89.3 170.75,-80.66"/>
<polygon fill="#63b8ff" stroke="#63b8ff" points="172.74,-77.77 162.37,-75.64 169.15,-83.78 172.74,-77.77"/>
</a>
</g>
</g>
<!-- Node6 -->
<g id="Node000006" class="node">
<title>Node6</title>
<g id="a_Node000006"><a xlink:title=" ">
<polygon fill="#e0e0e0" stroke="#999999" points="211.4,-129.75 182.6,-129.75 182.6,-110.5 211.4,-110.5 211.4,-129.75"/>
<text text-anchor="middle" x="197" y="-116.25" font-family="Helvetica,sans-Serif" font-size="10.00">list</text>
</a>
</g>
</g>
<!-- Node4&#45;&gt;Node6 -->
<g id="edge5_Node000004_Node000006" class="edge">
<title>Node4&#45;&gt;Node6</title>
<g id="a_edge5_Node000004_Node000006"><a xlink:title=" ">
<path fill="none" stroke="#63b8ff" d="M300.8,-165.34C279.01,-156.06 245.1,-141.61 222.01,-131.78"/>
<polygon fill="#63b8ff" stroke="#63b8ff" points="223.61,-128.66 213.04,-127.96 220.87,-135.1 223.61,-128.66"/>
</a>
</g>
</g>
<!-- Node7 -->
<g id="Node000007" class="node">
<title>Node7</title>
<g id="a_Node000007"><a xlink:title=" ">
<polygon fill="#e0e0e0" stroke="#999999" points="879.38,-19.25 844.62,-19.25 844.62,0 879.38,0 879.38,-19.25"/>
<text text-anchor="middle" x="862" y="-5.75" font-family="Helvetica,sans-Serif" font-size="10.00">map</text>
</a>
</g>
</g>
<!-- Node4&#45;&gt;Node7 -->
<g id="edge6_Node000004_Node000007" class="edge">
<title>Node4&#45;&gt;Node7</title>
<g id="a_edge6_Node000004_Node000007"><a xlink:title=" ">
<path fill="none" stroke="#63b8ff" d="M346.52,-173.55C447.5,-170.02 828.01,-155.11 875,-129.75 908.64,-111.59 934.59,-89.69 918,-55.25 911.97,-42.73 900.53,-32.64 889.55,-25.24"/>
<polygon fill="#63b8ff" stroke="#63b8ff" points="891.41,-22.27 881.06,-20 887.73,-28.23 891.41,-22.27"/>
</a>
</g>
</g>
<!-- Node8 -->
<g id="Node000008" class="node">
<title>Node8</title>
<g id="a_Node000008"><a xlink:href="_block_type_8h.html" target="_top" xlink:title="Specifies the types of blocks and their parameters.">
<polygon fill="white" stroke="#666666" points="865.62,-129.75 796.38,-129.75 796.38,-110.5 865.62,-110.5 865.62,-129.75"/>
<text text-anchor="middle" x="831" y="-116.25" font-family="Helvetica,sans-Serif" font-size="10.00">BlockType.h</text>
</a>
</g>
</g>
<!-- Node4&#45;&gt;Node8 -->
<g id="edge8_Node000004_Node000008" class="edge">
<title>Node4&#45;&gt;Node8</title>
<g id="a_edge8_Node000004_Node000008"><a xlink:title=" ">
<path fill="none" stroke="#63b8ff" d="M346.55,-171.81C426.46,-163.45 680.02,-136.92 784.9,-125.95"/>
<polygon fill="#63b8ff" stroke="#63b8ff" points="784.97,-129.46 794.55,-124.94 784.24,-122.5 784.97,-129.46"/>
</a>
</g>
</g>
<!-- Node10 -->
<g id="Node000010" class="node">
<title>Node10</title>
<g id="a_Node000010"><a xlink:href="_d_o_f_handler_8h.html" target="_top" xlink:title="model::DOFHandler source file">
<polygon fill="white" stroke="#666666" points="554.75,-74.5 477.25,-74.5 477.25,-55.25 554.75,-55.25 554.75,-74.5"/>
<text text-anchor="middle" x="516" y="-61" font-family="Helvetica,sans-Serif" font-size="10.00">DOFHandler.h</text>
</a>
</g>
</g>
<!-- Node4&#45;&gt;Node10 -->
<g id="edge10_Node000004_Node000010" class="edge">
<title>Node4&#45;&gt;Node10</title>
<g id="a_edge10_Node000004_Node000010"><a xlink:title=" ">
<path fill="none" stroke="#63b8ff" d="M340.98,-165.41C359.16,-156.7 387.26,-142.89 411,-129.75 439.43,-114.01 471.18,-94.4 492.25,-81.09"/>
<polygon fill="#63b8ff" stroke="#63b8ff" points="494.11,-84.05 500.67,-75.74 490.36,-78.15 494.11,-84.05"/>
</a>
</g>
</g>
<!-- Node11 -->
<g id="Node000011" class="node">
<title>Node11</title>
<g id="a_Node000011"><a xlink:href="_parameter_8h.html" target="_top" xlink:title="model::Parameter source file">
<polygon fill="white" stroke="#666666" points="402.25,-129.75 333.75,-129.75 333.75,-110.5 402.25,-110.5 402.25,-129.75"/>
<text text-anchor="middle" x="368" y="-116.25" font-family="Helvetica,sans-Serif" font-size="10.00">Parameter.h</text>
</a>
</g>
</g>
<!-- Node4&#45;&gt;Node11 -->
<g id="edge14_Node000004_Node000011" class="edge">
<title>Node4&#45;&gt;Node11</title>
<g id="a_edge14_Node000004_Node000011"><a xlink:title=" ">
<path fill="none" stroke="#63b8ff" d="M329.6,-165.58C335.88,-158.3 345.01,-147.73 352.8,-138.73"/>
<polygon fill="#63b8ff" stroke="#63b8ff" points="355.36,-141.11 359.25,-131.25 350.06,-136.53 355.36,-141.11"/>
</a>
</g>
</g>
<!-- Node16 -->
<g id="Node000016" class="node">
<title>Node16</title>
<g id="a_Node000016"><a xlink:href="_sparse_system_8h.html" target="_top" xlink:title="SparseSystem source file.">
<polygon fill="white" stroke="#666666" points="713.62,-129.75 626.38,-129.75 626.38,-110.5 713.62,-110.5 713.62,-129.75"/>
<text text-anchor="middle" x="670" y="-116.25" font-family="Helvetica,sans-Serif" font-size="10.00">SparseSystem.h</text>
</a>
</g>
</g>
<!-- Node4&#45;&gt;Node16 -->
<g id="edge21_Node000004_Node000016" class="edge">
<title>Node4&#45;&gt;Node16</title>
<g id="a_edge21_Node000004_Node000016"><a xlink:title=" ">
<path fill="none" stroke="#63b8ff" d="M346.47,-170.63C401.8,-162.16 537.69,-141.37 614.6,-129.6"/>
<polygon fill="#63b8ff" stroke="#63b8ff" points="615.11,-133.07 624.46,-128.09 614.05,-126.15 615.11,-133.07"/>
</a>
</g>
</g>
<!-- Node20 -->
<g id="Node000020" class="node">
<title>Node20</title>
<g id="a_Node000020"><a xlink:href="_state_8h.html" target="_top" xlink:title="State source file.">
<polygon fill="white" stroke="#666666" points="164.38,-129.75 117.62,-129.75 117.62,-110.5 164.38,-110.5 164.38,-129.75"/>
<text text-anchor="middle" x="141" y="-116.25" font-family="Helvetica,sans-Serif" font-size="10.00">State.h</text>
</a>
</g>
</g>
<!-- Node4&#45;&gt;Node20 -->
<g id="edge26_Node000004_Node000020" class="edge">
<title>Node4&#45;&gt;Node20</title>
<g id="a_edge26_Node000004_Node000020"><a xlink:title=" ">
<path fill="none" stroke="#63b8ff" d="M297.59,-167.19C266.16,-157.95 211.34,-141.82 175.61,-131.31"/>
<polygon fill="#63b8ff" stroke="#63b8ff" points="176.77,-128 166.19,-128.54 174.79,-134.72 176.77,-128"/>
</a>
</g>
</g>
<!-- Node9 -->
<g id="Node000009" class="node">
<title>Node9</title>
<g id="a_Node000009"><a xlink:title=" ">
<polygon fill="#e0e0e0" stroke="#999999" points="633,-19.25 593,-19.25 593,0 633,0 633,-19.25"/>
<text text-anchor="middle" x="613" y="-5.75" font-family="Helvetica,sans-Serif" font-size="10.00">string</text>
</a>
</g>
</g>
<!-- Node8&#45;&gt;Node9 -->
<g id="edge9_Node000008_Node000009" class="edge">
<title>Node8&#45;&gt;Node9</title>
<g id="a_edge9_Node000008_Node000009"><a xlink:title=" ">
<path fill="none" stroke="#63b8ff" d="M854.44,-110.2C881.68,-98.54 920.67,-77.03 902,-55.25 869.11,-16.89 712.65,-11.21 644.66,-10.57"/>
<polygon fill="#63b8ff" stroke="#63b8ff" points="644.95,-7.07 634.93,-10.52 644.91,-14.07 644.95,-7.07"/>
</a>
</g>
</g>
<!-- Node10&#45;&gt;Node3 -->
<g id="edge13_Node000010_Node000003" class="edge">
<title>Node10&#45;&gt;Node3</title>
<g id="a_edge13_Node000010_Node000003"><a xlink:title=" ">
<path fill="none" stroke="#63b8ff" d="M476.76,-56.67C474.14,-56.19 471.53,-55.71 469,-55.25 393.6,-41.44 305.08,-25.26 258.15,-16.68"/>
<polygon fill="#63b8ff" stroke="#63b8ff" points="258.83,-13.25 248.36,-14.89 257.57,-20.13 258.83,-13.25"/>
</a>
</g>
</g>
<!-- Node10&#45;&gt;Node7 -->
<g id="edge11_Node000010_Node000007" class="edge">
<title>Node10&#45;&gt;Node7</title>
<g id="a_edge11_Node000010_Node000007"><a xlink:title=" ">
<path fill="none" stroke="#63b8ff" d="M555.02,-56.77C558.05,-56.24 561.08,-55.73 564,-55.25 662.41,-39.04 779.52,-22.23 832.9,-14.7"/>
<polygon fill="#63b8ff" stroke="#63b8ff" points="833.26,-18.18 842.67,-13.32 832.28,-11.25 833.26,-18.18"/>
</a>
</g>
</g>
<!-- Node10&#45;&gt;Node9 -->
<g id="edge12_Node000010_Node000009" class="edge">
<title>Node10&#45;&gt;Node9</title>
<g id="a_edge12_Node000010_Node000009"><a xlink:title=" ">
<path fill="none" stroke="#63b8ff" d="M532.45,-54.84C547.23,-46.73 569.18,-34.68 586.43,-25.21"/>
<polygon fill="#63b8ff" stroke="#63b8ff" points="588.06,-28.31 595.14,-20.43 584.69,-22.18 588.06,-28.31"/>
</a>
</g>
</g>
<!-- Node11&#45;&gt;Node3 -->
<g id="edge18_Node000011_Node000003" class="edge">
<title>Node11&#45;&gt;Node3</title>
<g id="a_edge18_Node000011_Node000003"><a xlink:title=" ">
<path fill="none" stroke="#63b8ff" d="M333.3,-110.43C311.24,-103.54 283.14,-92.09 263,-74.5 249.18,-62.43 238.99,-44.06 232.66,-30.12"/>
<polygon fill="#63b8ff" stroke="#63b8ff" points="235.96,-28.93 228.84,-21.07 229.51,-31.65 235.96,-28.93"/>
</a>
</g>
</g>
<!-- Node11&#45;&gt;Node10 -->
<g id="edge20_Node000011_Node000010" class="edge">
<title>Node11&#45;&gt;Node10</title>
<g id="a_edge20_Node000011_Node000010"><a xlink:title=" ">
<path fill="none" stroke="#63b8ff" d="M393.11,-110.09C417.03,-101.49 453.28,-88.44 480.22,-78.75"/>
<polygon fill="#63b8ff" stroke="#63b8ff" points="481.12,-82.14 489.35,-75.46 478.75,-75.56 481.12,-82.14"/>
</a>
</g>
</g>
<!-- Node12 -->
<g id="Node000012" class="node">
<title>Node12</title>
<g id="a_Node000012"><a xlink:title=" ">
<polygon fill="#e0e0e0" stroke="#999999" points="459.62,-74.5 414.38,-74.5 414.38,-55.25 459.62,-55.25 459.62,-74.5"/>
<text text-anchor="middle" x="437" y="-61" font-family="Helvetica,sans-Serif" font-size="10.00">math.h</text>
</a>
</g>
</g>
<!-- Node11&#45;&gt;Node12 -->
<g id="edge15_Node000011_Node000012" class="edge">
<title>Node11&#45;&gt;Node12</title>
<g id="a_edge15_Node000011_Node000012"><a xlink:title=" ">
<path fill="none" stroke="#63b8ff" d="M379.7,-110.09C389.78,-102.32 404.54,-90.92 416.56,-81.65"/>
<polygon fill="#63b8ff" stroke="#63b8ff" points="418.49,-84.58 424.27,-75.7 414.21,-79.04 418.49,-84.58"/>
</a>
</g>
</g>
<!-- Node13 -->
<g id="Node000013" class="node">
<title>Node13</title>
<g id="a_Node000013"><a xlink:title=" ">
<polygon fill="#e0e0e0" stroke="#999999" points="626.75,-74.5 573.25,-74.5 573.25,-55.25 626.75,-55.25 626.75,-74.5"/>
<text text-anchor="middle" x="600" y="-61" font-family="Helvetica,sans-Serif" font-size="10.00">iostream</text>
</a>
</g>
</g>
<!-- Node11&#45;&gt;Node13 -->
<g id="edge16_Node000011_Node000013" class="edge">
<title>Node11&#45;&gt;Node13</title>
<g id="a_edge16_Node000011_Node000013"><a xlink:title=" ">
<path fill="none" stroke="#63b8ff" d="M402.72,-111.34C439.7,-103.03 500.23,-89.34 561.79,-75"/>
<polygon fill="#63b8ff" stroke="#63b8ff" points="562.46,-78.43 571.41,-72.75 560.87,-71.62 562.46,-78.43"/>
</a>
</g>
</g>
<!-- Node14 -->
<g id="Node000014" class="node">
<title>Node14</title>
<g id="a_Node000014"><a xlink:title=" ">
<polygon fill="#e0e0e0" stroke="#999999" points="322.25,-74.5 271.75,-74.5 271.75,-55.25 322.25,-55.25 322.25,-74.5"/>
<text text-anchor="middle" x="297" y="-61" font-family="Helvetica,sans-Serif" font-size="10.00">numeric</text>
</a>
</g>
</g>
<!-- Node11&#45;&gt;Node14 -->
<g id="edge17_Node000011_Node000014" class="edge">
<title>Node11&#45;&gt;Node14</title>
<g id="a_edge17_Node000011_Node000014"><a xlink:title=" ">
<path fill="none" stroke="#63b8ff" d="M355.96,-110.09C345.59,-102.32 330.4,-90.92 318.03,-81.65"/>
<polygon fill="#63b8ff" stroke="#63b8ff" points="320.18,-78.88 310.08,-75.68 315.98,-84.48 320.18,-78.88"/>
</a>
</g>
</g>
<!-- Node15 -->
<g id="Node000015" class="node">
<title>Node15</title>
<g id="a_Node000015"><a xlink:title=" ">
<polygon fill="#e0e0e0" stroke="#999999" points="395.88,-74.5 340.12,-74.5 340.12,-55.25 395.88,-55.25 395.88,-74.5"/>
<text text-anchor="middle" x="368" y="-61" font-family="Helvetica,sans-Serif" font-size="10.00">algorithm</text>
</a>
</g>
</g>
<!-- Node11&#45;&gt;Node15 -->
<g id="edge19_Node000011_Node000015" class="edge">
<title>Node11&#45;&gt;Node15</title>
<g id="a_edge19_Node000011_Node000015"><a xlink:title=" ">
<path fill="none" stroke="#63b8ff" d="M368,-110.33C368,-103.82 368,-94.67 368,-86.37"/>
<polygon fill="#63b8ff" stroke="#63b8ff" points="371.5,-86.37 368,-76.37 364.5,-86.37 371.5,-86.37"/>
</a>
</g>
</g>
<!-- Node16&#45;&gt;Node13 -->
<g id="edge24_Node000016_Node000013" class="edge">
<title>Node16&#45;&gt;Node13</title>
<g id="a_edge24_Node000016_Node000013"><a xlink:title=" ">
<path fill="none" stroke="#63b8ff" d="M658.13,-110.09C647.91,-102.32 632.93,-90.92 620.74,-81.65"/>
<polygon fill="#63b8ff" stroke="#63b8ff" points="622.98,-78.96 612.9,-75.69 618.74,-84.53 622.98,-78.96"/>
</a>
</g>
</g>
<!-- Node17 -->
<g id="Node000017" class="node">
<title>Node17</title>
<g id="a_Node000017"><a xlink:title=" ">
<polygon fill="#e0e0e0" stroke="#999999" points="786.88,-74.5 713.12,-74.5 713.12,-55.25 786.88,-55.25 786.88,-74.5"/>
<text text-anchor="middle" x="750" y="-61" font-family="Helvetica,sans-Serif" font-size="10.00">Eigen/Sparse</text>
</a>
</g>
</g>
<!-- Node16&#45;&gt;Node17 -->
<g id="edge22_Node000016_Node000017" class="edge">
<title>Node16&#45;&gt;Node17</title>
<g id="a_edge22_Node000016_Node000017"><a xlink:title=" ">
<path fill="none" stroke="#63b8ff" d="M683.57,-110.09C695.41,-102.21 712.84,-90.61 726.87,-81.27"/>
<polygon fill="#63b8ff" stroke="#63b8ff" points="728.72,-84.25 735.1,-75.79 724.84,-78.42 728.72,-84.25"/>
</a>
</g>
</g>
<!-- Node18 -->
<g id="Node000018" class="node">
<title>Node18</title>
<g id="a_Node000018"><a xlink:title=" ">
<polygon fill="#e0e0e0" stroke="#999999" points="892.62,-74.5 805.38,-74.5 805.38,-55.25 892.62,-55.25 892.62,-74.5"/>
<text text-anchor="middle" x="849" y="-61" font-family="Helvetica,sans-Serif" font-size="10.00">Eigen/SparseLU</text>
</a>
</g>
</g>
<!-- Node16&#45;&gt;Node18 -->
<g id="edge23_Node000016_Node000018" class="edge">
<title>Node16&#45;&gt;Node18</title>
<g id="a_edge23_Node000016_Node000018"><a xlink:title=" ">
<path fill="none" stroke="#63b8ff" d="M700.36,-110.09C729.81,-101.33 774.71,-87.98 807.46,-78.23"/>
<polygon fill="#63b8ff" stroke="#63b8ff" points="808.45,-81.59 817.04,-75.38 806.45,-74.88 808.45,-81.59"/>
</a>
</g>
</g>
<!-- Node19 -->
<g id="Node000019" class="node">
<title>Node19</title>
<g id="a_Node000019"><a xlink:title=" ">
<polygon fill="#e0e0e0" stroke="#999999" points="695.25,-74.5 644.75,-74.5 644.75,-55.25 695.25,-55.25 695.25,-74.5"/>
<text text-anchor="middle" x="670" y="-61" font-family="Helvetica,sans-Serif" font-size="10.00">memory</text>
</a>
</g>
</g>
<!-- Node16&#45;&gt;Node19 -->
<g id="edge25_Node000016_Node000019" class="edge">
<title>Node16&#45;&gt;Node19</title>
<g id="a_edge25_Node000016_Node000019"><a xlink:title=" ">
<path fill="none" stroke="#63b8ff" d="M670,-110.33C670,-103.82 670,-94.67 670,-86.37"/>
<polygon fill="#63b8ff" stroke="#63b8ff" points="673.5,-86.37 670,-76.37 666.5,-86.37 673.5,-86.37"/>
</a>
</g>
</g>
<!-- Node20&#45;&gt;Node5 -->
<g id="edge27_Node000020_Node000005" class="edge">
<title>Node20&#45;&gt;Node5</title>
<g id="a_edge27_Node000020_Node000005"><a xlink:title=" ">
<path fill="none" stroke="#63b8ff" d="M141.83,-110.33C142.44,-103.74 143.32,-94.46 144.1,-86.07"/>
<polygon fill="#63b8ff" stroke="#63b8ff" points="147.56,-86.65 145.01,-76.37 140.6,-86 147.56,-86.65"/>
</a>
</g>
</g>
</g>
</svg>
