<?xml version="1.0" encoding="UTF-8" standalone="no"?>
<!DOCTYPE svg PUBLIC "-//W3C//DTD SVG 1.1//EN"
 "http://www.w3.org/Graphics/SVG/1.1/DTD/svg11.dtd">
<!-- Generated by graphviz version 12.2.1 (20241206.2353)
 -->
<!-- Title: model/Block.h Pages: 1 -->
<svg width="901pt" height="193pt"
 viewBox="0.00 0.00 901.44 193.00" xmlns="http://www.w3.org/2000/svg" xmlns:xlink="http://www.w3.org/1999/xlink">
<g id="graph0" class="graph" transform="scale(1 1) rotate(0) translate(4 189)">
<title>model/Block.h</title>
<!-- Node1 -->
<g id="Node000001" class="node">
<title>Node1</title>
<g id="a_Node000001"><a xlink:title="model::Block source file">
<polygon fill="#999999" stroke="#666666" points="231.38,-185 153.88,-185 153.88,-165.75 231.38,-165.75 231.38,-185"/>
<text text-anchor="middle" x="192.62" y="-171.5" font-family="Helvetica,sans-Serif" font-size="10.00">model/Block.h</text>
</a>
</g>
</g>
<!-- Node2 -->
<g id="Node000002" class="node">
<title>Node2</title>
<g id="a_Node000002"><a xlink:title=" ">
<polygon fill="#e0e0e0" stroke="#999999" points="63.25,-74.5 0,-74.5 0,-55.25 63.25,-55.25 63.25,-74.5"/>
<text text-anchor="middle" x="31.62" y="-61" font-family="Helvetica,sans-Serif" font-size="10.00">Eigen/Core</text>
</a>
</g>
</g>
<!-- Node1&#45;&gt;Node2 -->
<g id="edge1_Node000001_Node000002" class="edge">
<title>Node1&#45;&gt;Node2</title>
<g id="a_edge1_Node000001_Node000002"><a xlink:title=" ">
<path fill="none" stroke="#63b8ff" d="M153.39,-169.48C108.81,-163.01 40.22,-150.02 24.62,-129.75 14.96,-117.18 18.19,-98.86 22.97,-85.07"/>
<polygon fill="#63b8ff" stroke="#63b8ff" points="26.07,-86.76 26.54,-76.17 19.57,-84.15 26.07,-86.76"/>
</a>
</g>
</g>
<!-- Node3 -->
<g id="Node000003" class="node">
<title>Node3</title>
<g id="a_Node000003"><a xlink:title=" ">
<polygon fill="#e0e0e0" stroke="#999999" points="127.03,-129.75 98.22,-129.75 98.22,-110.5 127.03,-110.5 127.03,-129.75"/>
<text text-anchor="middle" x="112.62" y="-116.25" font-family="Helvetica,sans-Serif" font-size="10.00">list</text>
</a>
</g>
</g>
<!-- Node1&#45;&gt;Node3 -->
<g id="edge2_Node000001_Node000003" class="edge">
<title>Node1&#45;&gt;Node3</title>
<g id="a_edge2_Node000001_Node000003"><a xlink:title=" ">
<path fill="none" stroke="#63b8ff" d="M179.05,-165.34C167.22,-157.46 149.79,-145.86 135.75,-136.52"/>
<polygon fill="#63b8ff" stroke="#63b8ff" points="137.79,-133.67 127.52,-131.04 133.91,-139.5 137.79,-133.67"/>
</a>
</g>
</g>
<!-- Node4 -->
<g id="Node000004" class="node">
<title>Node4</title>
<g id="a_Node000004"><a xlink:title=" ">
<polygon fill="#e0e0e0" stroke="#999999" points="196,-19.25 161.25,-19.25 161.25,0 196,0 196,-19.25"/>
<text text-anchor="middle" x="178.62" y="-5.75" font-family="Helvetica,sans-Serif" font-size="10.00">map</text>
</a>
</g>
</g>
<!-- Node1&#45;&gt;Node4 -->
<g id="edge3_Node000001_Node000004" class="edge">
<title>Node1&#45;&gt;Node4</title>
<g id="a_edge3_Node000001_Node000004"><a xlink:title=" ">
<path fill="none" stroke="#63b8ff" d="M188.89,-165.34C185.45,-156.46 180.57,-142.43 178.62,-129.75 173.37,-95.42 175.01,-54.88 176.76,-31.04"/>
<polygon fill="#63b8ff" stroke="#63b8ff" points="180.24,-31.42 177.57,-21.17 173.26,-30.85 180.24,-31.42"/>
</a>
</g>
</g>
<!-- Node5 -->
<g id="Node000005" class="node">
<title>Node5</title>
<g id="a_Node000005"><a xlink:title=" ">
<polygon fill="#e0e0e0" stroke="#999999" points="281.12,-19.25 238.12,-19.25 238.12,0 281.12,0 281.12,-19.25"/>
<text text-anchor="middle" x="259.62" y="-5.75" font-family="Helvetica,sans-Serif" font-size="10.00">vector</text>
</a>
</g>
</g>
<!-- Node1&#45;&gt;Node5 -->
<g id="edge4_Node000001_Node000005" class="edge">
<title>Node1&#45;&gt;Node5</title>
<g id="a_edge4_Node000001_Node000005"><a xlink:title=" ">
<path fill="none" stroke="#63b8ff" d="M192.14,-165.39C191.4,-144.65 191.81,-92.39 211.62,-55.25 217.65,-43.96 227.65,-33.97 236.97,-26.32"/>
<polygon fill="#63b8ff" stroke="#63b8ff" points="238.87,-29.27 244.68,-20.42 234.61,-23.72 238.87,-29.27"/>
</a>
</g>
</g>
<!-- Node6 -->
<g id="Node000006" class="node">
<title>Node6</title>
<g id="a_Node000006"><a xlink:href="_block_type_8h.html" target="_top" xlink:title="Specifies the types of blocks and their parameters.">
<polygon fill="white" stroke="#666666" points="864.25,-129.75 795,-129.75 795,-110.5 864.25,-110.5 864.25,-129.75"/>
<text text-anchor="middle" x="829.62" y="-116.25" font-family="Helvetica,sans-Serif" font-size="10.00">BlockType.h</text>
</a>
</g>
</g>
<!-- Node1&#45;&gt;Node6 -->
<g id="edge5_Node000001_Node000006" class="edge">
<title>Node1&#45;&gt;Node6</title>
<g id="a_edge5_Node000001_Node000006"><a xlink:title=" ">
<path fill="none" stroke="#63b8ff" d="M231.51,-171.12C343.01,-161.8 663.45,-135.02 783.49,-124.98"/>
<polygon fill="#63b8ff" stroke="#63b8ff" points="783.61,-128.48 793.29,-124.16 783.03,-121.51 783.61,-128.48"/>
</a>
</g>
</g>
<!-- Node8 -->
<g id="Node000008" class="node">
<title>Node8</title>
<g id="a_Node000008"><a xlink:href="_d_o_f_handler_8h.html" target="_top" xlink:title="model::DOFHandler source file">
<polygon fill="white" stroke="#666666" points="298.38,-74.5 220.88,-74.5 220.88,-55.25 298.38,-55.25 298.38,-74.5"/>
<text text-anchor="middle" x="259.62" y="-61" font-family="Helvetica,sans-Serif" font-size="10.00">DOFHandler.h</text>
</a>
</g>
</g>
<!-- Node1&#45;&gt;Node8 -->
<g id="edge7_Node000001_Node000008" class="edge">
<title>Node1&#45;&gt;Node8</title>
<g id="a_edge7_Node000001_Node000008"><a xlink:title=" ">
<path fill="none" stroke="#63b8ff" d="M198.11,-165.5C209,-147.85 233.58,-108.05 248.16,-84.45"/>
<polygon fill="#63b8ff" stroke="#63b8ff" points="250.99,-86.51 253.27,-76.16 245.04,-82.83 250.99,-86.51"/>
</a>
</g>
</g>
<!-- Node9 -->
<g id="Node000009" class="node">
<title>Node9</title>
<g id="a_Node000009"><a xlink:href="_parameter_8h.html" target="_top" xlink:title="model::Parameter source file">
<polygon fill="white" stroke="#666666" points="446.88,-129.75 378.38,-129.75 378.38,-110.5 446.88,-110.5 446.88,-129.75"/>
<text text-anchor="middle" x="412.62" y="-116.25" font-family="Helvetica,sans-Serif" font-size="10.00">Parameter.h</text>
</a>
</g>
</g>
<!-- Node1&#45;&gt;Node9 -->
<g id="edge11_Node000001_Node000009" class="edge">
<title>Node1&#45;&gt;Node9</title>
<g id="a_edge11_Node000001_Node000009"><a xlink:title=" ">
<path fill="none" stroke="#63b8ff" d="M229.95,-165.34C267.82,-156.17 326.5,-141.97 367.09,-132.15"/>
<polygon fill="#63b8ff" stroke="#63b8ff" points="367.66,-135.61 376.56,-129.86 366.01,-128.81 367.66,-135.61"/>
</a>
</g>
</g>
<!-- Node14 -->
<g id="Node000014" class="node">
<title>Node14</title>
<g id="a_Node000014"><a xlink:href="_sparse_system_8h.html" target="_top" xlink:title="SparseSystem source file.">
<polygon fill="white" stroke="#666666" points="700.25,-129.75 613,-129.75 613,-110.5 700.25,-110.5 700.25,-129.75"/>
<text text-anchor="middle" x="656.62" y="-116.25" font-family="Helvetica,sans-Serif" font-size="10.00">SparseSystem.h</text>
</a>
</g>
</g>
<!-- Node1&#45;&gt;Node14 -->
<g id="edge18_Node000001_Node000014" class="edge">
<title>Node1&#45;&gt;Node14</title>
<g id="a_edge18_Node000001_Node000014"><a xlink:title=" ">
<path fill="none" stroke="#63b8ff" d="M231.79,-169.88C314.32,-160.41 506.32,-138.37 601.34,-127.47"/>
<polygon fill="#63b8ff" stroke="#63b8ff" points="601.66,-130.96 611.2,-126.34 600.87,-124 601.66,-130.96"/>
</a>
</g>
</g>
<!-- Node18 -->
<g id="Node000018" class="node">
<title>Node18</title>
<g id="a_Node000018"><a xlink:href="_state_8h.html" target="_top" xlink:title="State source file.">
<polygon fill="white" stroke="#666666" points="80,-129.75 33.25,-129.75 33.25,-110.5 80,-110.5 80,-129.75"/>
<text text-anchor="middle" x="56.62" y="-116.25" font-family="Helvetica,sans-Serif" font-size="10.00">State.h</text>
</a>
</g>
</g>
<!-- Node1&#45;&gt;Node18 -->
<g id="edge23_Node000001_Node000018" class="edge">
<title>Node1&#45;&gt;Node18</title>
<g id="a_edge23_Node000001_Node000018"><a xlink:title=" ">
<path fill="none" stroke="#63b8ff" d="M169.55,-165.34C147.87,-156.85 115.14,-144.04 90.5,-134.39"/>
<polygon fill="#63b8ff" stroke="#63b8ff" points="91.81,-131.14 81.22,-130.75 89.25,-137.66 91.81,-131.14"/>
</a>
</g>
</g>
<!-- Node7 -->
<g id="Node000007" class="node">
<title>Node7</title>
<g id="a_Node000007"><a xlink:title=" ">
<polygon fill="#e0e0e0" stroke="#999999" points="633.62,-19.25 593.62,-19.25 593.62,0 633.62,0 633.62,-19.25"/>
<text text-anchor="middle" x="613.62" y="-5.75" font-family="Helvetica,sans-Serif" font-size="10.00">string</text>
</a>
</g>
</g>
<!-- Node6&#45;&gt;Node7 -->
<g id="edge6_Node000006_Node000007" class="edge">
<title>Node6&#45;&gt;Node7</title>
<g id="a_edge6_Node000006_Node000007"><a xlink:title=" ">
<path fill="none" stroke="#63b8ff" d="M848.75,-110.03C871.89,-97.83 905.74,-75.37 888.62,-55.25 857.64,-18.84 710.51,-12.05 645.1,-10.85"/>
<polygon fill="#63b8ff" stroke="#63b8ff" points="645.45,-7.35 635.4,-10.71 645.34,-14.35 645.45,-7.35"/>
</a>
</g>
</g>
<!-- Node8&#45;&gt;Node4 -->
<g id="edge8_Node000008_Node000004" class="edge">
<title>Node8&#45;&gt;Node4</title>
<g id="a_edge8_Node000008_Node000004"><a xlink:title=" ">
<path fill="none" stroke="#63b8ff" d="M245.88,-54.84C233.9,-46.96 216.25,-35.36 202.04,-26.02"/>
<polygon fill="#63b8ff" stroke="#63b8ff" points="203.98,-23.1 193.7,-20.53 200.13,-28.95 203.98,-23.1"/>
</a>
</g>
</g>
<!-- Node8&#45;&gt;Node5 -->
<g id="edge10_Node000008_Node000005" class="edge">
<title>Node8&#45;&gt;Node5</title>
<g id="a_edge10_Node000008_Node000005"><a xlink:title=" ">
<path fill="none" stroke="#63b8ff" d="M259.62,-55.08C259.62,-48.57 259.62,-39.42 259.62,-31.12"/>
<polygon fill="#63b8ff" stroke="#63b8ff" points="263.13,-31.12 259.63,-21.12 256.13,-31.12 263.13,-31.12"/>
</a>
</g>
</g>
<!-- Node8&#45;&gt;Node7 -->
<g id="edge9_Node000008_Node000007" class="edge">
<title>Node8&#45;&gt;Node7</title>
<g id="a_edge9_Node000008_Node000007"><a xlink:title=" ">
<path fill="none" stroke="#63b8ff" d="M298.64,-56.75C301.68,-56.23 304.7,-55.73 307.62,-55.25 407.59,-38.98 526.4,-22.46 581.99,-14.89"/>
<polygon fill="#63b8ff" stroke="#63b8ff" points="582.24,-18.39 591.68,-13.57 581.3,-11.45 582.24,-18.39"/>
</a>
</g>
</g>
<!-- Node9&#45;&gt;Node5 -->
<g id="edge15_Node000009_Node000005" class="edge">
<title>Node9&#45;&gt;Node5</title>
<g id="a_edge15_Node000009_Node000005"><a xlink:title=" ">
<path fill="none" stroke="#63b8ff" d="M424.52,-110.14C440.11,-97.29 463.87,-73.23 449.62,-55.25 430.43,-31.02 342.08,-18.66 292.9,-13.56"/>
<polygon fill="#63b8ff" stroke="#63b8ff" points="293.4,-10.09 283.11,-12.59 292.71,-17.06 293.4,-10.09"/>
</a>
</g>
</g>
<!-- Node9&#45;&gt;Node8 -->
<g id="edge17_Node000009_Node000008" class="edge">
<title>Node9&#45;&gt;Node8</title>
<g id="a_edge17_Node000009_Node000008"><a xlink:title=" ">
<path fill="none" stroke="#63b8ff" d="M386.67,-110.09C361.83,-101.45 324.13,-88.32 296.24,-78.62"/>
<polygon fill="#63b8ff" stroke="#63b8ff" points="297.73,-75.43 287.14,-75.45 295.43,-82.04 297.73,-75.43"/>
</a>
</g>
</g>
<!-- Node10 -->
<g id="Node000010" class="node">
<title>Node10</title>
<g id="a_Node000010"><a xlink:title=" ">
<polygon fill="#e0e0e0" stroke="#999999" points="542.25,-74.5 497,-74.5 497,-55.25 542.25,-55.25 542.25,-74.5"/>
<text text-anchor="middle" x="519.62" y="-61" font-family="Helvetica,sans-Serif" font-size="10.00">math.h</text>
</a>
</g>
</g>
<!-- Node9&#45;&gt;Node10 -->
<g id="edge12_Node000009_Node000010" class="edge">
<title>Node9&#45;&gt;Node10</title>
<g id="a_edge12_Node000009_Node000010"><a xlink:title=" ">
<path fill="none" stroke="#63b8ff" d="M430.78,-110.09C447.3,-101.87 471.97,-89.59 491.12,-80.06"/>
<polygon fill="#63b8ff" stroke="#63b8ff" points="492.64,-83.22 500.03,-75.63 489.52,-76.95 492.64,-83.22"/>
</a>
</g>
</g>
<!-- Node11 -->
<g id="Node000011" class="node">
<title>Node11</title>
<g id="a_Node000011"><a xlink:title=" ">
<polygon fill="#e0e0e0" stroke="#999999" points="613.38,-74.5 559.88,-74.5 559.88,-55.25 613.38,-55.25 613.38,-74.5"/>
<text text-anchor="middle" x="586.62" y="-61" font-family="Helvetica,sans-Serif" font-size="10.00">iostream</text>
</a>
</g>
</g>
<!-- Node9&#45;&gt;Node11 -->
<g id="edge13_Node000009_Node000011" class="edge">
<title>Node9&#45;&gt;Node11</title>
<g id="a_edge13_Node000009_Node000011"><a xlink:title=" ">
<path fill="none" stroke="#63b8ff" d="M442.14,-110.09C471.54,-101.09 516.8,-87.24 548.82,-77.45"/>
<polygon fill="#63b8ff" stroke="#63b8ff" points="549.56,-80.88 558.1,-74.61 547.51,-74.19 549.56,-80.88"/>
</a>
</g>
</g>
<!-- Node12 -->
<g id="Node000012" class="node">
<title>Node12</title>
<g id="a_Node000012"><a xlink:title=" ">
<polygon fill="#e0e0e0" stroke="#999999" points="366.88,-74.5 316.38,-74.5 316.38,-55.25 366.88,-55.25 366.88,-74.5"/>
<text text-anchor="middle" x="341.62" y="-61" font-family="Helvetica,sans-Serif" font-size="10.00">numeric</text>
</a>
</g>
</g>
<!-- Node9&#45;&gt;Node12 -->
<g id="edge14_Node000009_Node000012" class="edge">
<title>Node9&#45;&gt;Node12</title>
<g id="a_edge14_Node000009_Node000012"><a xlink:title=" ">
<path fill="none" stroke="#63b8ff" d="M400.58,-110.09C390.22,-102.32 375.02,-90.92 362.66,-81.65"/>
<polygon fill="#63b8ff" stroke="#63b8ff" points="364.8,-78.88 354.7,-75.68 360.6,-84.48 364.8,-78.88"/>
</a>
</g>
</g>
<!-- Node13 -->
<g id="Node000013" class="node">
<title>Node13</title>
<g id="a_Node000013"><a xlink:title=" ">
<polygon fill="#e0e0e0" stroke="#999999" points="440.5,-74.5 384.75,-74.5 384.75,-55.25 440.5,-55.25 440.5,-74.5"/>
<text text-anchor="middle" x="412.62" y="-61" font-family="Helvetica,sans-Serif" font-size="10.00">algorithm</text>
</a>
</g>
</g>
<!-- Node9&#45;&gt;Node13 -->
<g id="edge16_Node000009_Node000013" class="edge">
<title>Node9&#45;&gt;Node13</title>
<g id="a_edge16_Node000009_Node000013"><a xlink:title=" ">
<path fill="none" stroke="#63b8ff" d="M412.62,-110.33C412.62,-103.82 412.62,-94.67 412.62,-86.37"/>
<polygon fill="#63b8ff" stroke="#63b8ff" points="416.13,-86.37 412.63,-76.37 409.13,-86.37 416.13,-86.37"/>
</a>
</g>
</g>
<!-- Node14&#45;&gt;Node11 -->
<g id="edge21_Node000014_Node000011" class="edge">
<title>Node14&#45;&gt;Node11</title>
<g id="a_edge21_Node000014_Node000011"><a xlink:title=" ">
<path fill="none" stroke="#63b8ff" d="M644.75,-110.09C634.53,-102.32 619.55,-90.92 607.36,-81.65"/>
<polygon fill="#63b8ff" stroke="#63b8ff" points="609.61,-78.96 599.53,-75.69 605.37,-84.53 609.61,-78.96"/>
</a>
</g>
</g>
<!-- Node15 -->
<g id="Node000015" class="node">
<title>Node15</title>
<g id="a_Node000015"><a xlink:title=" ">
<polygon fill="#e0e0e0" stroke="#999999" points="773.5,-74.5 699.75,-74.5 699.75,-55.25 773.5,-55.25 773.5,-74.5"/>
<text text-anchor="middle" x="736.62" y="-61" font-family="Helvetica,sans-Serif" font-size="10.00">Eigen/Sparse</text>
</a>
</g>
</g>
<!-- Node14&#45;&gt;Node15 -->
<g id="edge19_Node000014_Node000015" class="edge">
<title>Node14&#45;&gt;Node15</title>
<g id="a_edge19_Node000014_Node000015"><a xlink:title=" ">
<path fill="none" stroke="#63b8ff" d="M670.2,-110.09C682.03,-102.21 699.46,-90.61 713.5,-81.27"/>
<polygon fill="#63b8ff" stroke="#63b8ff" points="715.34,-84.25 721.73,-75.79 711.46,-78.42 715.34,-84.25"/>
</a>
</g>
</g>
<!-- Node16 -->
<g id="Node000016" class="node">
<title>Node16</title>
<g id="a_Node000016"><a xlink:title=" ">
<polygon fill="#e0e0e0" stroke="#999999" points="879.25,-74.5 792,-74.5 792,-55.25 879.25,-55.25 879.25,-74.5"/>
<text text-anchor="middle" x="835.62" y="-61" font-family="Helvetica,sans-Serif" font-size="10.00">Eigen/SparseLU</text>
</a>
</g>
</g>
<!-- Node14&#45;&gt;Node16 -->
<g id="edge20_Node000014_Node000016" class="edge">
<title>Node14&#45;&gt;Node16</title>
<g id="a_edge20_Node000014_Node000016"><a xlink:title=" ">
<path fill="none" stroke="#63b8ff" d="M686.99,-110.09C716.43,-101.33 761.33,-87.98 794.08,-78.23"/>
<polygon fill="#63b8ff" stroke="#63b8ff" points="795.07,-81.59 803.66,-75.38 793.08,-74.88 795.07,-81.59"/>
</a>
</g>
</g>
<!-- Node17 -->
<g id="Node000017" class="node">
<title>Node17</title>
<g id="a_Node000017"><a xlink:title=" ">
<polygon fill="#e0e0e0" stroke="#999999" points="681.88,-74.5 631.38,-74.5 631.38,-55.25 681.88,-55.25 681.88,-74.5"/>
<text text-anchor="middle" x="656.62" y="-61" font-family="Helvetica,sans-Serif" font-size="10.00">memory</text>
</a>
</g>
</g>
<!-- Node14&#45;&gt;Node17 -->
<g id="edge22_Node000014_Node000017" class="edge">
<title>Node14&#45;&gt;Node17</title>
<g id="a_edge22_Node000014_Node000017"><a xlink:title=" ">
<path fill="none" stroke="#63b8ff" d="M656.62,-110.33C656.62,-103.82 656.62,-94.67 656.62,-86.37"/>
<polygon fill="#63b8ff" stroke="#63b8ff" points="660.13,-86.37 656.63,-76.37 653.13,-86.37 660.13,-86.37"/>
</a>
</g>
</g>
<!-- Node18&#45;&gt;Node2 -->
<g id="edge24_Node000018_Node000002" class="edge">
<title>Node18&#45;&gt;Node2</title>
<g id="a_edge24_Node000018_Node000002"><a xlink:title=" ">
<path fill="none" stroke="#63b8ff" d="M52.5,-110.33C49.3,-103.51 44.74,-93.81 40.7,-85.2"/>
<polygon fill="#63b8ff" stroke="#63b8ff" points="43.9,-83.79 36.49,-76.23 37.57,-86.77 43.9,-83.79"/>
</a>
</g>
</g>
</g>
</svg>
