<?xml version="1.0" encoding="UTF-8" standalone="no"?>
<!DOCTYPE svg PUBLIC "-//W3C//DTD SVG 1.1//EN"
 "http://www.w3.org/Graphics/SVG/1.1/DTD/svg11.dtd">
<!-- Generated by graphviz version 12.2.1 (20241206.2353)
 -->
<!-- Title: model/ClosedLoopCoronaryBC.h Pages: 1 -->
<svg width="843pt" height="304pt"
 viewBox="0.00 0.00 842.91 303.50" xmlns="http://www.w3.org/2000/svg" xmlns:xlink="http://www.w3.org/1999/xlink">
<g id="graph0" class="graph" transform="scale(1 1) rotate(0) translate(4 299.5)">
<title>model/ClosedLoopCoronaryBC.h</title>
<!-- Node1 -->
<g id="Node000001" class="node">
<title>Node1</title>
<g id="a_Node000001"><a xlink:title="model::ClosedLoopCoronaryBC source file">
<polygon fill="#999999" stroke="#666666" points="549.41,-295.5 393.16,-295.5 393.16,-276.25 549.41,-276.25 549.41,-295.5"/>
<text text-anchor="middle" x="471.28" y="-282" font-family="Helvetica,sans-Serif" font-size="10.00">model/ClosedLoopCoronaryBC.h</text>
</a>
</g>
</g>
<!-- Node2 -->
<g id="Node000002" class="node">
<title>Node2</title>
<g id="a_Node000002"><a xlink:href="_block_8h.html" target="_top" xlink:title="model::Block source file">
<polygon fill="white" stroke="#666666" points="378.41,-185 330.16,-185 330.16,-165.75 378.41,-165.75 378.41,-185"/>
<text text-anchor="middle" x="354.28" y="-171.5" font-family="Helvetica,sans-Serif" font-size="10.00">Block.h</text>
</a>
</g>
</g>
<!-- Node1&#45;&gt;Node2 -->
<g id="edge1_Node000001_Node000002" class="edge">
<title>Node1&#45;&gt;Node2</title>
<g id="a_edge1_Node000001_Node000002"><a xlink:title=" ">
<path fill="none" stroke="#63b8ff" d="M461.71,-276C442.17,-257.88 397.42,-216.38 372.28,-193.07"/>
<polygon fill="#63b8ff" stroke="#63b8ff" points="374.81,-190.64 365.1,-186.41 370.05,-195.77 374.81,-190.64"/>
</a>
</g>
</g>
<!-- Node15 -->
<g id="Node000015" class="node">
<title>Node15</title>
<g id="a_Node000015"><a xlink:href="_sparse_system_8h.html" target="_top" xlink:title="SparseSystem source file.">
<polygon fill="white" stroke="#666666" points="648.91,-129.75 561.66,-129.75 561.66,-110.5 648.91,-110.5 648.91,-129.75"/>
<text text-anchor="middle" x="605.28" y="-116.25" font-family="Helvetica,sans-Serif" font-size="10.00">SparseSystem.h</text>
</a>
</g>
</g>
<!-- Node1&#45;&gt;Node15 -->
<g id="edge30_Node000001_Node000015" class="edge">
<title>Node1&#45;&gt;Node15</title>
<g id="a_edge30_Node000001_Node000015"><a xlink:title=" ">
<path fill="none" stroke="#63b8ff" d="M472.5,-275.96C474.61,-262.98 479.86,-238.53 491.28,-221 514.87,-184.8 555.1,-153.95 580.92,-136.48"/>
<polygon fill="#63b8ff" stroke="#63b8ff" points="582.68,-139.51 589.1,-131.08 578.83,-133.66 582.68,-139.51"/>
</a>
</g>
</g>
<!-- Node20 -->
<g id="Node000020" class="node">
<title>Node20</title>
<g id="a_Node000020"><a xlink:href="_closed_loop_heart_pulmonary_8h.html" target="_top" xlink:title="model::ClosedLoopHeartPulmonary source file">
<polygon fill="white" stroke="#666666" points="644.78,-240.25 499.78,-240.25 499.78,-221 644.78,-221 644.78,-240.25"/>
<text text-anchor="middle" x="572.28" y="-226.75" font-family="Helvetica,sans-Serif" font-size="10.00">ClosedLoopHeartPulmonary.h</text>
</a>
</g>
</g>
<!-- Node1&#45;&gt;Node20 -->
<g id="edge26_Node000001_Node000020" class="edge">
<title>Node1&#45;&gt;Node20</title>
<g id="a_edge26_Node000001_Node000020"><a xlink:title=" ">
<path fill="none" stroke="#63b8ff" d="M488.41,-275.84C503.94,-267.66 527.08,-255.46 545.13,-245.94"/>
<polygon fill="#63b8ff" stroke="#63b8ff" points="546.51,-249.17 553.73,-241.41 543.25,-242.98 546.51,-249.17"/>
</a>
</g>
</g>
<!-- Node3 -->
<g id="Node000003" class="node">
<title>Node3</title>
<g id="a_Node000003"><a xlink:title=" ">
<polygon fill="#e0e0e0" stroke="#999999" points="81.91,-74.5 18.66,-74.5 18.66,-55.25 81.91,-55.25 81.91,-74.5"/>
<text text-anchor="middle" x="50.28" y="-61" font-family="Helvetica,sans-Serif" font-size="10.00">Eigen/Core</text>
</a>
</g>
</g>
<!-- Node2&#45;&gt;Node3 -->
<g id="edge2_Node000002_Node000003" class="edge">
<title>Node2&#45;&gt;Node3</title>
<g id="a_edge2_Node000002_Node000003"><a xlink:title=" ">
<path fill="none" stroke="#63b8ff" d="M329.72,-170.24C294.39,-163.86 227.49,-150.18 173.28,-129.75 137.58,-116.3 98.93,-95.01 74.67,-80.75"/>
<polygon fill="#63b8ff" stroke="#63b8ff" points="76.58,-77.82 66.2,-75.71 73,-83.83 76.58,-77.82"/>
</a>
</g>
</g>
<!-- Node4 -->
<g id="Node000004" class="node">
<title>Node4</title>
<g id="a_Node000004"><a xlink:title=" ">
<polygon fill="#e0e0e0" stroke="#999999" points="543.68,-129.75 514.88,-129.75 514.88,-110.5 543.68,-110.5 543.68,-129.75"/>
<text text-anchor="middle" x="529.28" y="-116.25" font-family="Helvetica,sans-Serif" font-size="10.00">list</text>
</a>
</g>
</g>
<!-- Node2&#45;&gt;Node4 -->
<g id="edge3_Node000002_Node000004" class="edge">
<title>Node2&#45;&gt;Node4</title>
<g id="a_edge3_Node000002_Node000004"><a xlink:title=" ">
<path fill="none" stroke="#63b8ff" d="M378.74,-166.98C407.92,-158.16 458.18,-142.93 501.28,-129.75 502.08,-129.5 502.9,-129.25 503.72,-129"/>
<polygon fill="#63b8ff" stroke="#63b8ff" points="504.49,-132.43 513.02,-126.15 502.43,-125.74 504.49,-132.43"/>
</a>
</g>
</g>
<!-- Node5 -->
<g id="Node000005" class="node">
<title>Node5</title>
<g id="a_Node000005"><a xlink:title=" ">
<polygon fill="#e0e0e0" stroke="#999999" points="73.66,-19.25 38.91,-19.25 38.91,0 73.66,0 73.66,-19.25"/>
<text text-anchor="middle" x="56.28" y="-5.75" font-family="Helvetica,sans-Serif" font-size="10.00">map</text>
</a>
</g>
</g>
<!-- Node2&#45;&gt;Node5 -->
<g id="edge4_Node000002_Node000005" class="edge">
<title>Node2&#45;&gt;Node5</title>
<g id="a_edge4_Node000002_Node000005"><a xlink:title=" ">
<path fill="none" stroke="#63b8ff" d="M330.14,-174.64C261.13,-174.88 65.08,-171.78 20.28,-129.75 -4.13,-106.85 -3.93,-86 9.28,-55.25 14.21,-43.77 23.7,-33.86 32.87,-26.31"/>
<polygon fill="#63b8ff" stroke="#63b8ff" points="34.69,-29.32 40.55,-20.49 30.46,-23.74 34.69,-29.32"/>
</a>
</g>
</g>
<!-- Node6 -->
<g id="Node000006" class="node">
<title>Node6</title>
<g id="a_Node000006"><a xlink:title=" ">
<polygon fill="#e0e0e0" stroke="#999999" points="470.78,-19.25 427.78,-19.25 427.78,0 470.78,0 470.78,-19.25"/>
<text text-anchor="middle" x="449.28" y="-5.75" font-family="Helvetica,sans-Serif" font-size="10.00">vector</text>
</a>
</g>
</g>
<!-- Node2&#45;&gt;Node6 -->
<g id="edge5_Node000002_Node000006" class="edge">
<title>Node2&#45;&gt;Node6</title>
<g id="a_edge5_Node000002_Node000006"><a xlink:title=" ">
<path fill="none" stroke="#63b8ff" d="M368.03,-165.34C390.16,-149.85 432.87,-115.88 449.28,-74.5 454.74,-60.74 454.5,-43.96 453.03,-31.05"/>
<polygon fill="#63b8ff" stroke="#63b8ff" points="456.49,-30.55 451.53,-21.19 449.57,-31.6 456.49,-30.55"/>
</a>
</g>
</g>
<!-- Node7 -->
<g id="Node000007" class="node">
<title>Node7</title>
<g id="a_Node000007"><a xlink:href="_block_type_8h.html" target="_top" xlink:title="Specifies the types of blocks and their parameters.">
<polygon fill="white" stroke="#666666" points="251.91,-129.75 182.66,-129.75 182.66,-110.5 251.91,-110.5 251.91,-129.75"/>
<text text-anchor="middle" x="217.28" y="-116.25" font-family="Helvetica,sans-Serif" font-size="10.00">BlockType.h</text>
</a>
</g>
</g>
<!-- Node2&#45;&gt;Node7 -->
<g id="edge6_Node000002_Node000007" class="edge">
<title>Node2&#45;&gt;Node7</title>
<g id="a_edge6_Node000002_Node000007"><a xlink:title=" ">
<path fill="none" stroke="#63b8ff" d="M331.04,-165.34C309.1,-156.81 275.93,-143.92 251.07,-134.26"/>
<polygon fill="#63b8ff" stroke="#63b8ff" points="252.63,-131.11 242.05,-130.75 250.1,-137.64 252.63,-131.11"/>
</a>
</g>
</g>
<!-- Node9 -->
<g id="Node000009" class="node">
<title>Node9</title>
<g id="a_Node000009"><a xlink:href="_d_o_f_handler_8h.html" target="_top" xlink:title="model::DOFHandler source file">
<polygon fill="white" stroke="#666666" points="216.03,-74.5 138.53,-74.5 138.53,-55.25 216.03,-55.25 216.03,-74.5"/>
<text text-anchor="middle" x="177.28" y="-61" font-family="Helvetica,sans-Serif" font-size="10.00">DOFHandler.h</text>
</a>
</g>
</g>
<!-- Node2&#45;&gt;Node9 -->
<g id="edge8_Node000002_Node000009" class="edge">
<title>Node2&#45;&gt;Node9</title>
<g id="a_edge8_Node000002_Node000009"><a xlink:title=" ">
<path fill="none" stroke="#63b8ff" d="M342.24,-165.45C324.78,-152.66 291.26,-128.68 261.28,-110.5 243.21,-99.54 222.22,-88.39 205.74,-79.97"/>
<polygon fill="#63b8ff" stroke="#63b8ff" points="207.49,-76.94 196.99,-75.55 204.33,-83.19 207.49,-76.94"/>
</a>
</g>
</g>
<!-- Node10 -->
<g id="Node000010" class="node">
<title>Node10</title>
<g id="a_Node000010"><a xlink:href="_parameter_8h.html" target="_top" xlink:title="model::Parameter source file">
<polygon fill="white" stroke="#666666" points="388.53,-129.75 320.03,-129.75 320.03,-110.5 388.53,-110.5 388.53,-129.75"/>
<text text-anchor="middle" x="354.28" y="-116.25" font-family="Helvetica,sans-Serif" font-size="10.00">Parameter.h</text>
</a>
</g>
</g>
<!-- Node2&#45;&gt;Node10 -->
<g id="edge12_Node000002_Node000010" class="edge">
<title>Node2&#45;&gt;Node10</title>
<g id="a_edge12_Node000002_Node000010"><a xlink:title=" ">
<path fill="none" stroke="#63b8ff" d="M354.28,-165.58C354.28,-159.07 354.28,-149.92 354.28,-141.62"/>
<polygon fill="#63b8ff" stroke="#63b8ff" points="357.78,-141.62 354.28,-131.62 350.78,-141.62 357.78,-141.62"/>
</a>
</g>
</g>
<!-- Node2&#45;&gt;Node15 -->
<g id="edge19_Node000002_Node000015" class="edge">
<title>Node2&#45;&gt;Node15</title>
<g id="a_edge19_Node000002_Node000015"><a xlink:title=" ">
<path fill="none" stroke="#63b8ff" d="M378.81,-169.17C418.54,-160.74 497.91,-143.9 551.32,-132.57"/>
<polygon fill="#63b8ff" stroke="#63b8ff" points="551.76,-136.06 560.82,-130.56 550.31,-129.21 551.76,-136.06"/>
</a>
</g>
</g>
<!-- Node19 -->
<g id="Node000019" class="node">
<title>Node19</title>
<g id="a_Node000019"><a xlink:href="_state_8h.html" target="_top" xlink:title="State source file.">
<polygon fill="white" stroke="#666666" points="75.66,-129.75 28.91,-129.75 28.91,-110.5 75.66,-110.5 75.66,-129.75"/>
<text text-anchor="middle" x="52.28" y="-116.25" font-family="Helvetica,sans-Serif" font-size="10.00">State.h</text>
</a>
</g>
</g>
<!-- Node2&#45;&gt;Node19 -->
<g id="edge24_Node000002_Node000019" class="edge">
<title>Node2&#45;&gt;Node19</title>
<g id="a_edge24_Node000002_Node000019"><a xlink:title=" ">
<path fill="none" stroke="#63b8ff" d="M329.82,-170.06C276.4,-160.64 149.11,-138.2 87.24,-127.29"/>
<polygon fill="#63b8ff" stroke="#63b8ff" points="88.07,-123.88 77.62,-125.59 86.86,-130.78 88.07,-123.88"/>
</a>
</g>
</g>
<!-- Node8 -->
<g id="Node000008" class="node">
<title>Node8</title>
<g id="a_Node000008"><a xlink:title=" ">
<polygon fill="#e0e0e0" stroke="#999999" points="163.28,-19.25 123.28,-19.25 123.28,0 163.28,0 163.28,-19.25"/>
<text text-anchor="middle" x="143.28" y="-5.75" font-family="Helvetica,sans-Serif" font-size="10.00">string</text>
</a>
</g>
</g>
<!-- Node7&#45;&gt;Node8 -->
<g id="edge7_Node000007_Node000008" class="edge">
<title>Node7&#45;&gt;Node8</title>
<g id="a_edge7_Node000007_Node000008"><a xlink:title=" ">
<path fill="none" stroke="#63b8ff" d="M182.33,-110.98C163.1,-104.51 140.85,-93.33 129.28,-74.5 120.93,-60.9 125.98,-42.96 132.22,-29.56"/>
<polygon fill="#63b8ff" stroke="#63b8ff" points="135.22,-31.39 136.78,-20.91 129.02,-28.12 135.22,-31.39"/>
</a>
</g>
</g>
<!-- Node9&#45;&gt;Node5 -->
<g id="edge9_Node000009_Node000005" class="edge">
<title>Node9&#45;&gt;Node5</title>
<g id="a_edge9_Node000009_Node000005"><a xlink:title=" ">
<path fill="none" stroke="#63b8ff" d="M156.76,-54.84C136.91,-46.11 106.69,-32.81 84.57,-23.07"/>
<polygon fill="#63b8ff" stroke="#63b8ff" points="86.09,-19.92 75.53,-19.1 83.27,-26.33 86.09,-19.92"/>
</a>
</g>
</g>
<!-- Node9&#45;&gt;Node6 -->
<g id="edge11_Node000009_Node000006" class="edge">
<title>Node9&#45;&gt;Node6</title>
<g id="a_edge11_Node000009_Node000006"><a xlink:title=" ">
<path fill="none" stroke="#63b8ff" d="M216.25,-56.25C269.97,-45.73 365.83,-26.96 416.23,-17.1"/>
<polygon fill="#63b8ff" stroke="#63b8ff" points="416.8,-20.55 425.94,-15.19 415.46,-13.68 416.8,-20.55"/>
</a>
</g>
</g>
<!-- Node9&#45;&gt;Node8 -->
<g id="edge10_Node000009_Node000008" class="edge">
<title>Node9&#45;&gt;Node8</title>
<g id="a_edge10_Node000009_Node000008"><a xlink:title=" ">
<path fill="none" stroke="#63b8ff" d="M171.67,-55.08C167.17,-48.03 160.69,-37.9 155.07,-29.08"/>
<polygon fill="#63b8ff" stroke="#63b8ff" points="158.16,-27.43 149.83,-20.88 152.26,-31.2 158.16,-27.43"/>
</a>
</g>
</g>
<!-- Node10&#45;&gt;Node6 -->
<g id="edge16_Node000010_Node000006" class="edge">
<title>Node10&#45;&gt;Node6</title>
<g id="a_edge16_Node000010_Node000006"><a xlink:title=" ">
<path fill="none" stroke="#63b8ff" d="M379.54,-110.02C396.19,-102.79 417.26,-91.12 430.28,-74.5 440.22,-61.81 444.97,-44.01 447.23,-30.42"/>
<polygon fill="#63b8ff" stroke="#63b8ff" points="450.65,-31.27 448.49,-20.9 443.71,-30.35 450.65,-31.27"/>
</a>
</g>
</g>
<!-- Node10&#45;&gt;Node9 -->
<g id="edge18_Node000010_Node000009" class="edge">
<title>Node10&#45;&gt;Node9</title>
<g id="a_edge18_Node000010_Node000009"><a xlink:title=" ">
<path fill="none" stroke="#63b8ff" d="M324.26,-110.09C295.14,-101.33 250.74,-87.98 218.36,-78.23"/>
<polygon fill="#63b8ff" stroke="#63b8ff" points="219.49,-74.92 208.9,-75.39 217.47,-81.62 219.49,-74.92"/>
</a>
</g>
</g>
<!-- Node11 -->
<g id="Node000011" class="node">
<title>Node11</title>
<g id="a_Node000011"><a xlink:title=" ">
<polygon fill="#e0e0e0" stroke="#999999" points="278.91,-74.5 233.66,-74.5 233.66,-55.25 278.91,-55.25 278.91,-74.5"/>
<text text-anchor="middle" x="256.28" y="-61" font-family="Helvetica,sans-Serif" font-size="10.00">math.h</text>
</a>
</g>
</g>
<!-- Node10&#45;&gt;Node11 -->
<g id="edge13_Node000010_Node000011" class="edge">
<title>Node10&#45;&gt;Node11</title>
<g id="a_edge13_Node000010_Node000011"><a xlink:title=" ">
<path fill="none" stroke="#63b8ff" d="M337.66,-110.09C322.59,-101.91 300.14,-89.71 282.63,-80.19"/>
<polygon fill="#63b8ff" stroke="#63b8ff" points="284.77,-77.37 274.32,-75.68 281.43,-83.52 284.77,-77.37"/>
</a>
</g>
</g>
<!-- Node12 -->
<g id="Node000012" class="node">
<title>Node12</title>
<g id="a_Node000012"><a xlink:title=" ">
<polygon fill="#e0e0e0" stroke="#999999" points="569.03,-74.5 515.53,-74.5 515.53,-55.25 569.03,-55.25 569.03,-74.5"/>
<text text-anchor="middle" x="542.28" y="-61" font-family="Helvetica,sans-Serif" font-size="10.00">iostream</text>
</a>
</g>
</g>
<!-- Node10&#45;&gt;Node12 -->
<g id="edge14_Node000010_Node000012" class="edge">
<title>Node10&#45;&gt;Node12</title>
<g id="a_edge14_Node000010_Node000012"><a xlink:title=" ">
<path fill="none" stroke="#63b8ff" d="M386.17,-110.09C418.88,-100.83 469.75,-86.42 504.46,-76.59"/>
<polygon fill="#63b8ff" stroke="#63b8ff" points="505,-80.07 513.67,-73.98 503.09,-73.34 505,-80.07"/>
</a>
</g>
</g>
<!-- Node13 -->
<g id="Node000013" class="node">
<title>Node13</title>
<g id="a_Node000013"><a xlink:title=" ">
<polygon fill="#e0e0e0" stroke="#999999" points="347.53,-74.5 297.03,-74.5 297.03,-55.25 347.53,-55.25 347.53,-74.5"/>
<text text-anchor="middle" x="322.28" y="-61" font-family="Helvetica,sans-Serif" font-size="10.00">numeric</text>
</a>
</g>
</g>
<!-- Node10&#45;&gt;Node13 -->
<g id="edge15_Node000010_Node000013" class="edge">
<title>Node10&#45;&gt;Node13</title>
<g id="a_edge15_Node000010_Node000013"><a xlink:title=" ">
<path fill="none" stroke="#63b8ff" d="M349,-110.33C344.81,-103.36 338.8,-93.37 333.55,-84.62"/>
<polygon fill="#63b8ff" stroke="#63b8ff" points="336.61,-82.93 328.46,-76.16 330.61,-86.53 336.61,-82.93"/>
</a>
</g>
</g>
<!-- Node14 -->
<g id="Node000014" class="node">
<title>Node14</title>
<g id="a_Node000014"><a xlink:title=" ">
<polygon fill="#e0e0e0" stroke="#999999" points="421.16,-74.5 365.41,-74.5 365.41,-55.25 421.16,-55.25 421.16,-74.5"/>
<text text-anchor="middle" x="393.28" y="-61" font-family="Helvetica,sans-Serif" font-size="10.00">algorithm</text>
</a>
</g>
</g>
<!-- Node10&#45;&gt;Node14 -->
<g id="edge17_Node000010_Node000014" class="edge">
<title>Node10&#45;&gt;Node14</title>
<g id="a_edge17_Node000010_Node000014"><a xlink:title=" ">
<path fill="none" stroke="#63b8ff" d="M360.72,-110.33C365.94,-103.21 373.47,-92.93 379.97,-84.05"/>
<polygon fill="#63b8ff" stroke="#63b8ff" points="382.72,-86.22 385.81,-76.08 377.07,-82.08 382.72,-86.22"/>
</a>
</g>
</g>
<!-- Node15&#45;&gt;Node12 -->
<g id="edge22_Node000015_Node000012" class="edge">
<title>Node15&#45;&gt;Node12</title>
<g id="a_edge22_Node000015_Node000012"><a xlink:title=" ">
<path fill="none" stroke="#63b8ff" d="M594.59,-110.09C585.58,-102.47 572.45,-91.37 561.6,-82.2"/>
<polygon fill="#63b8ff" stroke="#63b8ff" points="563.86,-79.53 553.97,-75.75 559.34,-84.88 563.86,-79.53"/>
</a>
</g>
</g>
<!-- Node16 -->
<g id="Node000016" class="node">
<title>Node16</title>
<g id="a_Node000016"><a xlink:title=" ">
<polygon fill="#e0e0e0" stroke="#999999" points="729.16,-74.5 655.41,-74.5 655.41,-55.25 729.16,-55.25 729.16,-74.5"/>
<text text-anchor="middle" x="692.28" y="-61" font-family="Helvetica,sans-Serif" font-size="10.00">Eigen/Sparse</text>
</a>
</g>
</g>
<!-- Node15&#45;&gt;Node16 -->
<g id="edge20_Node000015_Node000016" class="edge">
<title>Node15&#45;&gt;Node16</title>
<g id="a_edge20_Node000015_Node000016"><a xlink:title=" ">
<path fill="none" stroke="#63b8ff" d="M620.04,-110.09C633.16,-102.06 652.6,-90.16 668.01,-80.73"/>
<polygon fill="#63b8ff" stroke="#63b8ff" points="669.46,-83.95 676.16,-75.74 665.8,-77.98 669.46,-83.95"/>
</a>
</g>
</g>
<!-- Node17 -->
<g id="Node000017" class="node">
<title>Node17</title>
<g id="a_Node000017"><a xlink:title=" ">
<polygon fill="#e0e0e0" stroke="#999999" points="834.91,-74.5 747.66,-74.5 747.66,-55.25 834.91,-55.25 834.91,-74.5"/>
<text text-anchor="middle" x="791.28" y="-61" font-family="Helvetica,sans-Serif" font-size="10.00">Eigen/SparseLU</text>
</a>
</g>
</g>
<!-- Node15&#45;&gt;Node17 -->
<g id="edge21_Node000015_Node000017" class="edge">
<title>Node15&#45;&gt;Node17</title>
<g id="a_edge21_Node000015_Node000017"><a xlink:title=" ">
<path fill="none" stroke="#63b8ff" d="M636.83,-110.09C667.56,-101.29 714.49,-87.86 748.56,-78.11"/>
<polygon fill="#63b8ff" stroke="#63b8ff" points="749.47,-81.49 758.12,-75.37 747.54,-74.76 749.47,-81.49"/>
</a>
</g>
</g>
<!-- Node18 -->
<g id="Node000018" class="node">
<title>Node18</title>
<g id="a_Node000018"><a xlink:title=" ">
<polygon fill="#e0e0e0" stroke="#999999" points="637.53,-74.5 587.03,-74.5 587.03,-55.25 637.53,-55.25 637.53,-74.5"/>
<text text-anchor="middle" x="612.28" y="-61" font-family="Helvetica,sans-Serif" font-size="10.00">memory</text>
</a>
</g>
</g>
<!-- Node15&#45;&gt;Node18 -->
<g id="edge23_Node000015_Node000018" class="edge">
<title>Node15&#45;&gt;Node18</title>
<g id="a_edge23_Node000015_Node000018"><a xlink:title=" ">
<path fill="none" stroke="#63b8ff" d="M606.44,-110.33C607.3,-103.74 608.52,-94.46 609.63,-86.07"/>
<polygon fill="#63b8ff" stroke="#63b8ff" points="613.07,-86.73 610.9,-76.36 606.13,-85.82 613.07,-86.73"/>
</a>
</g>
</g>
<!-- Node19&#45;&gt;Node3 -->
<g id="edge25_Node000019_Node000003" class="edge">
<title>Node19&#45;&gt;Node3</title>
<g id="a_edge25_Node000019_Node000003"><a xlink:title=" ">
<path fill="none" stroke="#63b8ff" d="M51.95,-110.33C51.7,-103.74 51.35,-94.46 51.04,-86.07"/>
<polygon fill="#63b8ff" stroke="#63b8ff" points="54.55,-86.23 50.68,-76.37 47.55,-86.5 54.55,-86.23"/>
</a>
</g>
</g>
<!-- Node20&#45;&gt;Node2 -->
<g id="edge27_Node000020_Node000002" class="edge">
<title>Node20&#45;&gt;Node2</title>
<g id="a_edge27_Node000020_Node000002"><a xlink:title=" ">
<path fill="none" stroke="#63b8ff" d="M535.3,-220.59C494.72,-210.68 430.05,-194.88 389.98,-185.1"/>
<polygon fill="#63b8ff" stroke="#63b8ff" points="390.9,-181.72 380.36,-182.74 389.24,-188.52 390.9,-181.72"/>
</a>
</g>
</g>
<!-- Node20&#45;&gt;Node15 -->
<g id="edge28_Node000020_Node000015" class="edge">
<title>Node20&#45;&gt;Node15</title>
<g id="a_edge28_Node000020_Node000015"><a xlink:title=" ">
<path fill="none" stroke="#63b8ff" d="M574.98,-220.75C580.25,-203.42 592.02,-164.73 599.24,-140.99"/>
<polygon fill="#63b8ff" stroke="#63b8ff" points="602.54,-142.16 602.1,-131.57 595.84,-140.12 602.54,-142.16"/>
</a>
</g>
</g>
<!-- Node21 -->
<g id="Node000021" class="node">
<title>Node21</title>
<g id="a_Node000021"><a xlink:title=" ">
<polygon fill="#e0e0e0" stroke="#999999" points="643.78,-185 600.78,-185 600.78,-165.75 643.78,-165.75 643.78,-185"/>
<text text-anchor="middle" x="622.28" y="-171.5" font-family="Helvetica,sans-Serif" font-size="10.00">cmath</text>
</a>
</g>
</g>
<!-- Node20&#45;&gt;Node21 -->
<g id="edge29_Node000020_Node000021" class="edge">
<title>Node20&#45;&gt;Node21</title>
<g id="a_edge29_Node000020_Node000021"><a xlink:title=" ">
<path fill="none" stroke="#63b8ff" d="M580.54,-220.83C587.44,-213.48 597.51,-202.76 606.02,-193.69"/>
<polygon fill="#63b8ff" stroke="#63b8ff" points="608.52,-196.15 612.81,-186.46 603.41,-191.36 608.52,-196.15"/>
</a>
</g>
</g>
</g>
</svg>
