<?xml version="1.0" encoding="UTF-8" standalone="no"?>
<!DOCTYPE svg PUBLIC "-//W3C//DTD SVG 1.1//EN"
 "http://www.w3.org/Graphics/SVG/1.1/DTD/svg11.dtd">
<!-- Generated by graphviz version 12.2.1 (20241206.2353)
 -->
<!-- Title: model/ClosedLoopRCRBC.h Pages: 1 -->
<svg width="843pt" height="248pt"
 viewBox="0.00 0.00 842.79 248.25" xmlns="http://www.w3.org/2000/svg" xmlns:xlink="http://www.w3.org/1999/xlink">
<g id="graph0" class="graph" transform="scale(1 1) rotate(0) translate(4 244.25)">
<title>model/ClosedLoopRCRBC.h</title>
<!-- Node1 -->
<g id="Node000001" class="node">
<title>Node1</title>
<g id="a_Node000001"><a xlink:title="model::ClosedLoopRCRBC source file">
<polygon fill="#999999" stroke="#666666" points="382.29,-240.25 244.04,-240.25 244.04,-221 382.29,-221 382.29,-240.25"/>
<text text-anchor="middle" x="313.16" y="-226.75" font-family="Helvetica,sans-Serif" font-size="10.00">model/ClosedLoopRCRBC.h</text>
</a>
</g>
</g>
<!-- Node2 -->
<g id="Node000002" class="node">
<title>Node2</title>
<g id="a_Node000002"><a xlink:href="_block_8h.html" target="_top" xlink:title="model::Block source file">
<polygon fill="white" stroke="#666666" points="311.29,-185 263.04,-185 263.04,-165.75 311.29,-165.75 311.29,-185"/>
<text text-anchor="middle" x="287.16" y="-171.5" font-family="Helvetica,sans-Serif" font-size="10.00">Block.h</text>
</a>
</g>
</g>
<!-- Node1&#45;&gt;Node2 -->
<g id="edge1_Node000001_Node000002" class="edge">
<title>Node1&#45;&gt;Node2</title>
<g id="a_edge1_Node000001_Node000002"><a xlink:title=" ">
<path fill="none" stroke="#63b8ff" d="M308.87,-220.83C305.54,-214.01 300.8,-204.31 296.6,-195.7"/>
<polygon fill="#63b8ff" stroke="#63b8ff" points="299.75,-194.17 292.21,-186.72 293.46,-197.24 299.75,-194.17"/>
</a>
</g>
</g>
<!-- Node15 -->
<g id="Node000015" class="node">
<title>Node15</title>
<g id="a_Node000015"><a xlink:href="_sparse_system_8h.html" target="_top" xlink:title="SparseSystem source file.">
<polygon fill="white" stroke="#666666" points="651.79,-129.75 564.54,-129.75 564.54,-110.5 651.79,-110.5 651.79,-129.75"/>
<text text-anchor="middle" x="608.16" y="-116.25" font-family="Helvetica,sans-Serif" font-size="10.00">SparseSystem.h</text>
</a>
</g>
</g>
<!-- Node1&#45;&gt;Node15 -->
<g id="edge26_Node000001_Node000015" class="edge">
<title>Node1&#45;&gt;Node15</title>
<g id="a_edge26_Node000001_Node000015"><a xlink:title=" ">
<path fill="none" stroke="#63b8ff" d="M337.81,-220.56C390.08,-201.33 512.24,-156.4 572.82,-134.12"/>
<polygon fill="#63b8ff" stroke="#63b8ff" points="573.78,-137.5 581.96,-130.76 571.37,-130.93 573.78,-137.5"/>
</a>
</g>
</g>
<!-- Node3 -->
<g id="Node000003" class="node">
<title>Node3</title>
<g id="a_Node000003"><a xlink:title=" ">
<polygon fill="#e0e0e0" stroke="#999999" points="81.79,-74.5 18.54,-74.5 18.54,-55.25 81.79,-55.25 81.79,-74.5"/>
<text text-anchor="middle" x="50.16" y="-61" font-family="Helvetica,sans-Serif" font-size="10.00">Eigen/Core</text>
</a>
</g>
</g>
<!-- Node2&#45;&gt;Node3 -->
<g id="edge2_Node000002_Node000003" class="edge">
<title>Node2&#45;&gt;Node3</title>
<g id="a_edge2_Node000002_Node000003"><a xlink:title=" ">
<path fill="none" stroke="#63b8ff" d="M262.77,-169.4C233.05,-162.79 181.77,-149.58 141.16,-129.75 114.53,-116.74 87.1,-96.36 69.42,-82.12"/>
<polygon fill="#63b8ff" stroke="#63b8ff" points="71.79,-79.54 61.84,-75.9 67.34,-84.95 71.79,-79.54"/>
</a>
</g>
</g>
<!-- Node4 -->
<g id="Node000004" class="node">
<title>Node4</title>
<g id="a_Node000004"><a xlink:title=" ">
<polygon fill="#e0e0e0" stroke="#999999" points="543.56,-129.75 514.76,-129.75 514.76,-110.5 543.56,-110.5 543.56,-129.75"/>
<text text-anchor="middle" x="529.16" y="-116.25" font-family="Helvetica,sans-Serif" font-size="10.00">list</text>
</a>
</g>
</g>
<!-- Node2&#45;&gt;Node4 -->
<g id="edge3_Node000002_Node000004" class="edge">
<title>Node2&#45;&gt;Node4</title>
<g id="a_edge3_Node000002_Node000004"><a xlink:title=" ">
<path fill="none" stroke="#63b8ff" d="M311.73,-170.02C351.69,-162.77 433.17,-147.27 501.16,-129.75 501.98,-129.54 502.8,-129.32 503.63,-129.1"/>
<polygon fill="#63b8ff" stroke="#63b8ff" points="504.34,-132.54 512.96,-126.37 502.38,-125.82 504.34,-132.54"/>
</a>
</g>
</g>
<!-- Node5 -->
<g id="Node000005" class="node">
<title>Node5</title>
<g id="a_Node000005"><a xlink:title=" ">
<polygon fill="#e0e0e0" stroke="#999999" points="73.54,-19.25 38.79,-19.25 38.79,0 73.54,0 73.54,-19.25"/>
<text text-anchor="middle" x="56.16" y="-5.75" font-family="Helvetica,sans-Serif" font-size="10.00">map</text>
</a>
</g>
</g>
<!-- Node2&#45;&gt;Node5 -->
<g id="edge4_Node000002_Node000005" class="edge">
<title>Node2&#45;&gt;Node5</title>
<g id="a_edge4_Node000002_Node000005"><a xlink:title=" ">
<path fill="none" stroke="#63b8ff" d="M262.85,-173.73C203.69,-171.64 54.58,-163.12 20.16,-129.75 -3.87,-106.45 -4.05,-86 9.16,-55.25 14.09,-43.77 23.58,-33.86 32.75,-26.31"/>
<polygon fill="#63b8ff" stroke="#63b8ff" points="34.57,-29.32 40.43,-20.49 30.34,-23.74 34.57,-29.32"/>
</a>
</g>
</g>
<!-- Node6 -->
<g id="Node000006" class="node">
<title>Node6</title>
<g id="a_Node000006"><a xlink:title=" ">
<polygon fill="#e0e0e0" stroke="#999999" points="470.66,-19.25 427.66,-19.25 427.66,0 470.66,0 470.66,-19.25"/>
<text text-anchor="middle" x="449.16" y="-5.75" font-family="Helvetica,sans-Serif" font-size="10.00">vector</text>
</a>
</g>
</g>
<!-- Node2&#45;&gt;Node6 -->
<g id="edge5_Node000002_Node000006" class="edge">
<title>Node2&#45;&gt;Node6</title>
<g id="a_edge5_Node000002_Node000006"><a xlink:title=" ">
<path fill="none" stroke="#63b8ff" d="M311.68,-167.85C349.57,-156.29 421.04,-128.17 450.16,-74.5 457.38,-61.2 456.62,-43.94 454.34,-30.72"/>
<polygon fill="#63b8ff" stroke="#63b8ff" points="457.77,-30.03 452.22,-21.01 450.93,-31.53 457.77,-30.03"/>
</a>
</g>
</g>
<!-- Node7 -->
<g id="Node000007" class="node">
<title>Node7</title>
<g id="a_Node000007"><a xlink:href="_block_type_8h.html" target="_top" xlink:title="Specifies the types of blocks and their parameters.">
<polygon fill="white" stroke="#666666" points="219.79,-129.75 150.54,-129.75 150.54,-110.5 219.79,-110.5 219.79,-129.75"/>
<text text-anchor="middle" x="185.16" y="-116.25" font-family="Helvetica,sans-Serif" font-size="10.00">BlockType.h</text>
</a>
</g>
</g>
<!-- Node2&#45;&gt;Node7 -->
<g id="edge6_Node000002_Node000007" class="edge">
<title>Node2&#45;&gt;Node7</title>
<g id="a_edge6_Node000002_Node000007"><a xlink:title=" ">
<path fill="none" stroke="#63b8ff" d="M269.86,-165.34C254.18,-157.16 230.81,-144.96 212.59,-135.44"/>
<polygon fill="#63b8ff" stroke="#63b8ff" points="214.38,-132.43 203.89,-130.9 211.14,-138.63 214.38,-132.43"/>
</a>
</g>
</g>
<!-- Node9 -->
<g id="Node000009" class="node">
<title>Node9</title>
<g id="a_Node000009"><a xlink:href="_d_o_f_handler_8h.html" target="_top" xlink:title="model::DOFHandler source file">
<polygon fill="white" stroke="#666666" points="215.91,-74.5 138.41,-74.5 138.41,-55.25 215.91,-55.25 215.91,-74.5"/>
<text text-anchor="middle" x="177.16" y="-61" font-family="Helvetica,sans-Serif" font-size="10.00">DOFHandler.h</text>
</a>
</g>
</g>
<!-- Node2&#45;&gt;Node9 -->
<g id="edge8_Node000002_Node000009" class="edge">
<title>Node2&#45;&gt;Node9</title>
<g id="a_edge8_Node000002_Node000009"><a xlink:title=" ">
<path fill="none" stroke="#63b8ff" d="M279.61,-165.38C268.85,-152.71 248.28,-129.09 229.16,-110.5 218.95,-100.57 206.92,-90.17 197,-81.91"/>
<polygon fill="#63b8ff" stroke="#63b8ff" points="199.38,-79.33 189.43,-75.69 194.94,-84.74 199.38,-79.33"/>
</a>
</g>
</g>
<!-- Node10 -->
<g id="Node000010" class="node">
<title>Node10</title>
<g id="a_Node000010"><a xlink:href="_parameter_8h.html" target="_top" xlink:title="model::Parameter source file">
<polygon fill="white" stroke="#666666" points="356.41,-129.75 287.91,-129.75 287.91,-110.5 356.41,-110.5 356.41,-129.75"/>
<text text-anchor="middle" x="322.16" y="-116.25" font-family="Helvetica,sans-Serif" font-size="10.00">Parameter.h</text>
</a>
</g>
</g>
<!-- Node2&#45;&gt;Node10 -->
<g id="edge12_Node000002_Node000010" class="edge">
<title>Node2&#45;&gt;Node10</title>
<g id="a_edge12_Node000002_Node000010"><a xlink:title=" ">
<path fill="none" stroke="#63b8ff" d="M292.94,-165.58C297.58,-158.53 304.24,-148.4 310.03,-139.58"/>
<polygon fill="#63b8ff" stroke="#63b8ff" points="312.86,-141.65 315.43,-131.37 307.01,-137.81 312.86,-141.65"/>
</a>
</g>
</g>
<!-- Node2&#45;&gt;Node15 -->
<g id="edge19_Node000002_Node000015" class="edge">
<title>Node2&#45;&gt;Node15</title>
<g id="a_edge19_Node000002_Node000015"><a xlink:title=" ">
<path fill="none" stroke="#63b8ff" d="M311.55,-170.33C362.69,-161.85 482.25,-142.01 552.97,-130.28"/>
<polygon fill="#63b8ff" stroke="#63b8ff" points="553.52,-133.74 562.82,-128.65 552.38,-126.83 553.52,-133.74"/>
</a>
</g>
</g>
<!-- Node19 -->
<g id="Node000019" class="node">
<title>Node19</title>
<g id="a_Node000019"><a xlink:href="_state_8h.html" target="_top" xlink:title="State source file.">
<polygon fill="white" stroke="#666666" points="75.54,-129.75 28.79,-129.75 28.79,-110.5 75.54,-110.5 75.54,-129.75"/>
<text text-anchor="middle" x="52.16" y="-116.25" font-family="Helvetica,sans-Serif" font-size="10.00">State.h</text>
</a>
</g>
</g>
<!-- Node2&#45;&gt;Node19 -->
<g id="edge24_Node000002_Node000019" class="edge">
<title>Node2&#45;&gt;Node19</title>
<g id="a_edge24_Node000002_Node000019"><a xlink:title=" ">
<path fill="none" stroke="#63b8ff" d="M262.9,-168.88C221.08,-159.4 135.29,-139.96 87.06,-129.03"/>
<polygon fill="#63b8ff" stroke="#63b8ff" points="87.95,-125.64 77.42,-126.85 86.4,-132.47 87.95,-125.64"/>
</a>
</g>
</g>
<!-- Node8 -->
<g id="Node000008" class="node">
<title>Node8</title>
<g id="a_Node000008"><a xlink:title=" ">
<polygon fill="#e0e0e0" stroke="#999999" points="163.16,-19.25 123.16,-19.25 123.16,0 163.16,0 163.16,-19.25"/>
<text text-anchor="middle" x="143.16" y="-5.75" font-family="Helvetica,sans-Serif" font-size="10.00">string</text>
</a>
</g>
</g>
<!-- Node7&#45;&gt;Node8 -->
<g id="edge7_Node000007_Node000008" class="edge">
<title>Node7&#45;&gt;Node8</title>
<g id="a_edge7_Node000007_Node000008"><a xlink:title=" ">
<path fill="none" stroke="#63b8ff" d="M166.57,-110.08C153.45,-102.56 136.88,-90.52 129.16,-74.5 122.38,-60.42 126.94,-43.01 132.61,-29.92"/>
<polygon fill="#63b8ff" stroke="#63b8ff" points="135.68,-31.61 136.95,-21.09 129.4,-28.52 135.68,-31.61"/>
</a>
</g>
</g>
<!-- Node9&#45;&gt;Node5 -->
<g id="edge9_Node000009_Node000005" class="edge">
<title>Node9&#45;&gt;Node5</title>
<g id="a_edge9_Node000009_Node000005"><a xlink:title=" ">
<path fill="none" stroke="#63b8ff" d="M156.64,-54.84C136.79,-46.11 106.57,-32.81 84.45,-23.07"/>
<polygon fill="#63b8ff" stroke="#63b8ff" points="85.97,-19.92 75.41,-19.1 83.15,-26.33 85.97,-19.92"/>
</a>
</g>
</g>
<!-- Node9&#45;&gt;Node6 -->
<g id="edge11_Node000009_Node000006" class="edge">
<title>Node9&#45;&gt;Node6</title>
<g id="a_edge11_Node000009_Node000006"><a xlink:title=" ">
<path fill="none" stroke="#63b8ff" d="M216.13,-56.25C269.85,-45.73 365.71,-26.96 416.11,-17.1"/>
<polygon fill="#63b8ff" stroke="#63b8ff" points="416.68,-20.55 425.82,-15.19 415.34,-13.68 416.68,-20.55"/>
</a>
</g>
</g>
<!-- Node9&#45;&gt;Node8 -->
<g id="edge10_Node000009_Node000008" class="edge">
<title>Node9&#45;&gt;Node8</title>
<g id="a_edge10_Node000009_Node000008"><a xlink:title=" ">
<path fill="none" stroke="#63b8ff" d="M171.55,-55.08C167.05,-48.03 160.58,-37.9 154.95,-29.08"/>
<polygon fill="#63b8ff" stroke="#63b8ff" points="158.05,-27.43 149.71,-20.88 152.15,-31.2 158.05,-27.43"/>
</a>
</g>
</g>
<!-- Node10&#45;&gt;Node6 -->
<g id="edge16_Node000010_Node000006" class="edge">
<title>Node10&#45;&gt;Node6</title>
<g id="a_edge16_Node000010_Node000006"><a xlink:title=" ">
<path fill="none" stroke="#63b8ff" d="M356.87,-112.93C380.62,-106.96 411.14,-95.59 430.16,-74.5 440.96,-62.53 445.63,-44.67 447.65,-30.87"/>
<polygon fill="#63b8ff" stroke="#63b8ff" points="451.11,-31.45 448.69,-21.14 444.15,-30.71 451.11,-31.45"/>
</a>
</g>
</g>
<!-- Node10&#45;&gt;Node9 -->
<g id="edge18_Node000010_Node000009" class="edge">
<title>Node10&#45;&gt;Node9</title>
<g id="a_edge18_Node000010_Node000009"><a xlink:title=" ">
<path fill="none" stroke="#63b8ff" d="M297.57,-110.09C274.23,-101.52 238.92,-88.56 212.57,-78.88"/>
<polygon fill="#63b8ff" stroke="#63b8ff" points="213.9,-75.64 203.3,-75.47 211.48,-82.21 213.9,-75.64"/>
</a>
</g>
</g>
<!-- Node11 -->
<g id="Node000011" class="node">
<title>Node11</title>
<g id="a_Node000011"><a xlink:title=" ">
<polygon fill="#e0e0e0" stroke="#999999" points="278.79,-74.5 233.54,-74.5 233.54,-55.25 278.79,-55.25 278.79,-74.5"/>
<text text-anchor="middle" x="256.16" y="-61" font-family="Helvetica,sans-Serif" font-size="10.00">math.h</text>
</a>
</g>
</g>
<!-- Node10&#45;&gt;Node11 -->
<g id="edge13_Node000010_Node000011" class="edge">
<title>Node10&#45;&gt;Node11</title>
<g id="a_edge13_Node000010_Node000011"><a xlink:title=" ">
<path fill="none" stroke="#63b8ff" d="M310.97,-110.09C301.43,-102.4 287.49,-91.15 276.06,-81.93"/>
<polygon fill="#63b8ff" stroke="#63b8ff" points="278.35,-79.28 268.37,-75.73 273.96,-84.73 278.35,-79.28"/>
</a>
</g>
</g>
<!-- Node12 -->
<g id="Node000012" class="node">
<title>Node12</title>
<g id="a_Node000012"><a xlink:title=" ">
<polygon fill="#e0e0e0" stroke="#999999" points="568.91,-74.5 515.41,-74.5 515.41,-55.25 568.91,-55.25 568.91,-74.5"/>
<text text-anchor="middle" x="542.16" y="-61" font-family="Helvetica,sans-Serif" font-size="10.00">iostream</text>
</a>
</g>
</g>
<!-- Node10&#45;&gt;Node12 -->
<g id="edge14_Node000010_Node000012" class="edge">
<title>Node10&#45;&gt;Node12</title>
<g id="a_edge14_Node000010_Node000012"><a xlink:title=" ">
<path fill="none" stroke="#63b8ff" d="M356.54,-110.8C396.53,-101.13 462.36,-85.19 503.93,-75.13"/>
<polygon fill="#63b8ff" stroke="#63b8ff" points="504.6,-78.57 513.49,-72.81 502.95,-71.76 504.6,-78.57"/>
</a>
</g>
</g>
<!-- Node13 -->
<g id="Node000013" class="node">
<title>Node13</title>
<g id="a_Node000013"><a xlink:title=" ">
<polygon fill="#e0e0e0" stroke="#999999" points="347.41,-74.5 296.91,-74.5 296.91,-55.25 347.41,-55.25 347.41,-74.5"/>
<text text-anchor="middle" x="322.16" y="-61" font-family="Helvetica,sans-Serif" font-size="10.00">numeric</text>
</a>
</g>
</g>
<!-- Node10&#45;&gt;Node13 -->
<g id="edge15_Node000010_Node000013" class="edge">
<title>Node10&#45;&gt;Node13</title>
<g id="a_edge15_Node000010_Node000013"><a xlink:title=" ">
<path fill="none" stroke="#63b8ff" d="M322.16,-110.33C322.16,-103.82 322.16,-94.67 322.16,-86.37"/>
<polygon fill="#63b8ff" stroke="#63b8ff" points="325.66,-86.37 322.16,-76.37 318.66,-86.37 325.66,-86.37"/>
</a>
</g>
</g>
<!-- Node14 -->
<g id="Node000014" class="node">
<title>Node14</title>
<g id="a_Node000014"><a xlink:title=" ">
<polygon fill="#e0e0e0" stroke="#999999" points="421.04,-74.5 365.29,-74.5 365.29,-55.25 421.04,-55.25 421.04,-74.5"/>
<text text-anchor="middle" x="393.16" y="-61" font-family="Helvetica,sans-Serif" font-size="10.00">algorithm</text>
</a>
</g>
</g>
<!-- Node10&#45;&gt;Node14 -->
<g id="edge17_Node000010_Node000014" class="edge">
<title>Node10&#45;&gt;Node14</title>
<g id="a_edge17_Node000010_Node000014"><a xlink:title=" ">
<path fill="none" stroke="#63b8ff" d="M334.21,-110.09C344.57,-102.32 359.76,-90.92 372.13,-81.65"/>
<polygon fill="#63b8ff" stroke="#63b8ff" points="374.19,-84.48 380.09,-75.68 369.99,-78.88 374.19,-84.48"/>
</a>
</g>
</g>
<!-- Node15&#45;&gt;Node12 -->
<g id="edge22_Node000015_Node000012" class="edge">
<title>Node15&#45;&gt;Node12</title>
<g id="a_edge22_Node000015_Node000012"><a xlink:title=" ">
<path fill="none" stroke="#63b8ff" d="M596.97,-110.09C587.43,-102.4 573.49,-91.15 562.06,-81.93"/>
<polygon fill="#63b8ff" stroke="#63b8ff" points="564.35,-79.28 554.37,-75.73 559.96,-84.73 564.35,-79.28"/>
</a>
</g>
</g>
<!-- Node16 -->
<g id="Node000016" class="node">
<title>Node16</title>
<g id="a_Node000016"><a xlink:title=" ">
<polygon fill="#e0e0e0" stroke="#999999" points="729.04,-74.5 655.29,-74.5 655.29,-55.25 729.04,-55.25 729.04,-74.5"/>
<text text-anchor="middle" x="692.16" y="-61" font-family="Helvetica,sans-Serif" font-size="10.00">Eigen/Sparse</text>
</a>
</g>
</g>
<!-- Node15&#45;&gt;Node16 -->
<g id="edge20_Node000015_Node000016" class="edge">
<title>Node15&#45;&gt;Node16</title>
<g id="a_edge20_Node000015_Node000016"><a xlink:title=" ">
<path fill="none" stroke="#63b8ff" d="M622.41,-110.09C634.96,-102.14 653.5,-90.39 668.31,-81"/>
<polygon fill="#63b8ff" stroke="#63b8ff" points="669.99,-84.07 676.57,-75.76 666.25,-78.16 669.99,-84.07"/>
</a>
</g>
</g>
<!-- Node17 -->
<g id="Node000017" class="node">
<title>Node17</title>
<g id="a_Node000017"><a xlink:title=" ">
<polygon fill="#e0e0e0" stroke="#999999" points="834.79,-74.5 747.54,-74.5 747.54,-55.25 834.79,-55.25 834.79,-74.5"/>
<text text-anchor="middle" x="791.16" y="-61" font-family="Helvetica,sans-Serif" font-size="10.00">Eigen/SparseLU</text>
</a>
</g>
</g>
<!-- Node15&#45;&gt;Node17 -->
<g id="edge21_Node000015_Node000017" class="edge">
<title>Node15&#45;&gt;Node17</title>
<g id="a_edge21_Node000015_Node000017"><a xlink:title=" ">
<path fill="none" stroke="#63b8ff" d="M639.21,-110.09C669.44,-101.29 715.61,-87.86 749.13,-78.11"/>
<polygon fill="#63b8ff" stroke="#63b8ff" points="749.89,-81.53 758.51,-75.38 747.93,-74.81 749.89,-81.53"/>
</a>
</g>
</g>
<!-- Node18 -->
<g id="Node000018" class="node">
<title>Node18</title>
<g id="a_Node000018"><a xlink:title=" ">
<polygon fill="#e0e0e0" stroke="#999999" points="637.41,-74.5 586.91,-74.5 586.91,-55.25 637.41,-55.25 637.41,-74.5"/>
<text text-anchor="middle" x="612.16" y="-61" font-family="Helvetica,sans-Serif" font-size="10.00">memory</text>
</a>
</g>
</g>
<!-- Node15&#45;&gt;Node18 -->
<g id="edge23_Node000015_Node000018" class="edge">
<title>Node15&#45;&gt;Node18</title>
<g id="a_edge23_Node000015_Node000018"><a xlink:title=" ">
<path fill="none" stroke="#63b8ff" d="M608.82,-110.33C609.32,-103.74 610.02,-94.46 610.65,-86.07"/>
<polygon fill="#63b8ff" stroke="#63b8ff" points="614.12,-86.6 611.37,-76.37 607.14,-86.08 614.12,-86.6"/>
</a>
</g>
</g>
<!-- Node19&#45;&gt;Node3 -->
<g id="edge25_Node000019_Node000003" class="edge">
<title>Node19&#45;&gt;Node3</title>
<g id="a_edge25_Node000019_Node000003"><a xlink:title=" ">
<path fill="none" stroke="#63b8ff" d="M51.83,-110.33C51.59,-103.74 51.24,-94.46 50.92,-86.07"/>
<polygon fill="#63b8ff" stroke="#63b8ff" points="54.43,-86.23 50.56,-76.37 47.44,-86.5 54.43,-86.23"/>
</a>
</g>
</g>
</g>
</svg>
