<?xml version="1.0" encoding="UTF-8" standalone="no"?>
<!DOCTYPE svg PUBLIC "-//W3C//DTD SVG 1.1//EN"
 "http://www.w3.org/Graphics/SVG/1.1/DTD/svg11.dtd">
<!-- Generated by graphviz version 12.2.1 (20241206.2353)
 -->
<!-- Title: model/Parameter.h Pages: 1 -->
<svg width="409pt" height="138pt"
 viewBox="0.00 0.00 408.62 137.75" xmlns="http://www.w3.org/2000/svg" xmlns:xlink="http://www.w3.org/1999/xlink">
<g id="graph0" class="graph" transform="scale(1 1) rotate(0) translate(4 133.75)">
<title>model/Parameter.h</title>
<!-- Node1 -->
<g id="Node000001" class="node">
<title>Node1</title>
<g id="a_Node000001"><a xlink:title="model::Parameter source file">
<polygon fill="#999999" stroke="#666666" points="234.5,-129.75 136.75,-129.75 136.75,-110.5 234.5,-110.5 234.5,-129.75"/>
<text text-anchor="middle" x="185.62" y="-116.25" font-family="Helvetica,sans-Serif" font-size="10.00">model/Parameter.h</text>
</a>
</g>
</g>
<!-- Node2 -->
<g id="Node000002" class="node">
<title>Node2</title>
<g id="a_Node000002"><a xlink:title=" ">
<polygon fill="#e0e0e0" stroke="#999999" points="45.25,-74.5 0,-74.5 0,-55.25 45.25,-55.25 45.25,-74.5"/>
<text text-anchor="middle" x="22.62" y="-61" font-family="Helvetica,sans-Serif" font-size="10.00">math.h</text>
</a>
</g>
</g>
<!-- Node1&#45;&gt;Node2 -->
<g id="edge1_Node000001_Node000002" class="edge">
<title>Node1&#45;&gt;Node2</title>
<g id="a_edge1_Node000001_Node000002"><a xlink:title=" ">
<path fill="none" stroke="#63b8ff" d="M157.97,-110.09C129.95,-100.94 86.54,-86.75 56.47,-76.93"/>
<polygon fill="#63b8ff" stroke="#63b8ff" points="57.69,-73.65 47.1,-73.87 55.52,-80.3 57.69,-73.65"/>
</a>
</g>
</g>
<!-- Node3 -->
<g id="Node000003" class="node">
<title>Node3</title>
<g id="a_Node000003"><a xlink:title=" ">
<polygon fill="#e0e0e0" stroke="#999999" points="116.38,-74.5 62.88,-74.5 62.88,-55.25 116.38,-55.25 116.38,-74.5"/>
<text text-anchor="middle" x="89.62" y="-61" font-family="Helvetica,sans-Serif" font-size="10.00">iostream</text>
</a>
</g>
</g>
<!-- Node1&#45;&gt;Node3 -->
<g id="edge2_Node000001_Node000003" class="edge">
<title>Node1&#45;&gt;Node3</title>
<g id="a_edge2_Node000001_Node000003"><a xlink:title=" ">
<path fill="none" stroke="#63b8ff" d="M169.34,-110.09C154.72,-101.98 133,-89.93 115.92,-80.46"/>
<polygon fill="#63b8ff" stroke="#63b8ff" points="117.76,-77.48 107.31,-75.69 114.36,-83.6 117.76,-77.48"/>
</a>
</g>
</g>
<!-- Node4 -->
<g id="Node000004" class="node">
<title>Node4</title>
<g id="a_Node000004"><a xlink:title=" ">
<polygon fill="#e0e0e0" stroke="#999999" points="184.88,-74.5 134.38,-74.5 134.38,-55.25 184.88,-55.25 184.88,-74.5"/>
<text text-anchor="middle" x="159.62" y="-61" font-family="Helvetica,sans-Serif" font-size="10.00">numeric</text>
</a>
</g>
</g>
<!-- Node1&#45;&gt;Node4 -->
<g id="edge3_Node000001_Node000004" class="edge">
<title>Node1&#45;&gt;Node4</title>
<g id="a_edge3_Node000001_Node000004"><a xlink:title=" ">
<path fill="none" stroke="#63b8ff" d="M181.33,-110.33C178,-103.51 173.26,-93.81 169.06,-85.2"/>
<polygon fill="#63b8ff" stroke="#63b8ff" points="172.21,-83.67 164.68,-76.22 165.92,-86.74 172.21,-83.67"/>
</a>
</g>
</g>
<!-- Node5 -->
<g id="Node000005" class="node">
<title>Node5</title>
<g id="a_Node000005"><a xlink:title=" ">
<polygon fill="#e0e0e0" stroke="#999999" points="276.12,-19.25 233.12,-19.25 233.12,0 276.12,0 276.12,-19.25"/>
<text text-anchor="middle" x="254.62" y="-5.75" font-family="Helvetica,sans-Serif" font-size="10.00">vector</text>
</a>
</g>
</g>
<!-- Node1&#45;&gt;Node5 -->
<g id="edge4_Node000001_Node000005" class="edge">
<title>Node1&#45;&gt;Node5</title>
<g id="a_edge4_Node000001_Node000005"><a xlink:title=" ">
<path fill="none" stroke="#63b8ff" d="M191.27,-110.25C202.49,-92.6 227.8,-52.8 242.82,-29.2"/>
<polygon fill="#63b8ff" stroke="#63b8ff" points="245.68,-31.22 248.09,-20.9 239.77,-27.46 245.68,-31.22"/>
</a>
</g>
</g>
<!-- Node6 -->
<g id="Node000006" class="node">
<title>Node6</title>
<g id="a_Node000006"><a xlink:title=" ">
<polygon fill="#e0e0e0" stroke="#999999" points="296.5,-74.5 240.75,-74.5 240.75,-55.25 296.5,-55.25 296.5,-74.5"/>
<text text-anchor="middle" x="268.62" y="-61" font-family="Helvetica,sans-Serif" font-size="10.00">algorithm</text>
</a>
</g>
</g>
<!-- Node1&#45;&gt;Node6 -->
<g id="edge5_Node000001_Node000006" class="edge">
<title>Node1&#45;&gt;Node6</title>
<g id="a_edge5_Node000001_Node000006"><a xlink:title=" ">
<path fill="none" stroke="#63b8ff" d="M199.7,-110.09C212.11,-102.14 230.42,-90.39 245.05,-81"/>
<polygon fill="#63b8ff" stroke="#63b8ff" points="246.68,-84.12 253.2,-75.77 242.9,-78.22 246.68,-84.12"/>
</a>
</g>
</g>
<!-- Node7 -->
<g id="Node000007" class="node">
<title>Node7</title>
<g id="a_Node000007"><a xlink:href="_d_o_f_handler_8h.html" target="_top" xlink:title="model::DOFHandler source file">
<polygon fill="white" stroke="#666666" points="392.38,-74.5 314.88,-74.5 314.88,-55.25 392.38,-55.25 392.38,-74.5"/>
<text text-anchor="middle" x="353.62" y="-61" font-family="Helvetica,sans-Serif" font-size="10.00">DOFHandler.h</text>
</a>
</g>
</g>
<!-- Node1&#45;&gt;Node7 -->
<g id="edge6_Node000001_Node000007" class="edge">
<title>Node1&#45;&gt;Node7</title>
<g id="a_edge6_Node000001_Node000007"><a xlink:title=" ">
<path fill="none" stroke="#63b8ff" d="M214.12,-110.09C241.64,-101.37 283.53,-88.09 314.23,-78.36"/>
<polygon fill="#63b8ff" stroke="#63b8ff" points="315.07,-81.77 323.54,-75.41 312.95,-75.09 315.07,-81.77"/>
</a>
</g>
</g>
<!-- Node7&#45;&gt;Node5 -->
<g id="edge9_Node000007_Node000005" class="edge">
<title>Node7&#45;&gt;Node5</title>
<g id="a_edge9_Node000007_Node000005"><a xlink:title=" ">
<path fill="none" stroke="#63b8ff" d="M336.83,-54.84C321.61,-46.66 298.93,-34.46 281.24,-24.94"/>
<polygon fill="#63b8ff" stroke="#63b8ff" points="283.3,-22.07 272.83,-20.42 279.98,-28.24 283.3,-22.07"/>
</a>
</g>
</g>
<!-- Node8 -->
<g id="Node000008" class="node">
<title>Node8</title>
<g id="a_Node000008"><a xlink:title=" ">
<polygon fill="#e0e0e0" stroke="#999999" points="343,-19.25 308.25,-19.25 308.25,0 343,0 343,-19.25"/>
<text text-anchor="middle" x="325.62" y="-5.75" font-family="Helvetica,sans-Serif" font-size="10.00">map</text>
</a>
</g>
</g>
<!-- Node7&#45;&gt;Node8 -->
<g id="edge7_Node000007_Node000008" class="edge">
<title>Node7&#45;&gt;Node8</title>
<g id="a_edge7_Node000007_Node000008"><a xlink:title=" ">
<path fill="none" stroke="#63b8ff" d="M349,-55.08C345.38,-48.19 340.2,-38.34 335.63,-29.66"/>
<polygon fill="#63b8ff" stroke="#63b8ff" points="338.81,-28.17 331.05,-20.95 332.61,-31.43 338.81,-28.17"/>
</a>
</g>
</g>
<!-- Node9 -->
<g id="Node000009" class="node">
<title>Node9</title>
<g id="a_Node000009"><a xlink:title=" ">
<polygon fill="#e0e0e0" stroke="#999999" points="400.62,-19.25 360.62,-19.25 360.62,0 400.62,0 400.62,-19.25"/>
<text text-anchor="middle" x="380.62" y="-5.75" font-family="Helvetica,sans-Serif" font-size="10.00">string</text>
</a>
</g>
</g>
<!-- Node7&#45;&gt;Node9 -->
<g id="edge8_Node000007_Node000009" class="edge">
<title>Node7&#45;&gt;Node9</title>
<g id="a_edge8_Node000007_Node000009"><a xlink:title=" ">
<path fill="none" stroke="#63b8ff" d="M358.08,-55.08C361.58,-48.19 366.57,-38.34 370.97,-29.66"/>
<polygon fill="#63b8ff" stroke="#63b8ff" points="373.98,-31.46 375.39,-20.96 367.74,-28.3 373.98,-31.46"/>
</a>
</g>
</g>
</g>
</svg>
