<?xml version="1.0" encoding="UTF-8" standalone="no"?>
<!DOCTYPE svg PUBLIC "-//W3C//DTD SVG 1.1//EN"
 "http://www.w3.org/Graphics/SVG/1.1/DTD/svg11.dtd">
<!-- Generated by graphviz version 12.2.1 (20241206.2353)
 -->
<!-- Title: model/ResistanceBC.h Pages: 1 -->
<svg width="904pt" height="248pt"
 viewBox="0.00 0.00 904.20 248.25" xmlns="http://www.w3.org/2000/svg" xmlns:xlink="http://www.w3.org/1999/xlink">
<g id="graph0" class="graph" transform="scale(1 1) rotate(0) translate(4 244.25)">
<title>model/ResistanceBC.h</title>
<!-- Node1 -->
<g id="Node000001" class="node">
<title>Node1</title>
<g id="a_Node000001"><a xlink:title="model::ResistanceBC source file">
<polygon fill="#999999" stroke="#666666" points="450.45,-240.25 335.45,-240.25 335.45,-221 450.45,-221 450.45,-240.25"/>
<text text-anchor="middle" x="392.95" y="-226.75" font-family="Helvetica,sans-Serif" font-size="10.00">model/ResistanceBC.h</text>
</a>
</g>
</g>
<!-- Node2 -->
<g id="Node000002" class="node">
<title>Node2</title>
<g id="a_Node000002"><a xlink:href="_block_8h.html" target="_top" xlink:title="model::Block source file">
<polygon fill="white" stroke="#666666" points="265.07,-185 216.82,-185 216.82,-165.75 265.07,-165.75 265.07,-185"/>
<text text-anchor="middle" x="240.95" y="-171.5" font-family="Helvetica,sans-Serif" font-size="10.00">Block.h</text>
</a>
</g>
</g>
<!-- Node1&#45;&gt;Node2 -->
<g id="edge1_Node000001_Node000002" class="edge">
<title>Node1&#45;&gt;Node2</title>
<g id="a_edge1_Node000001_Node000002"><a xlink:title=" ">
<path fill="none" stroke="#63b8ff" d="M367.16,-220.59C342.15,-211.83 304,-198.46 276.19,-188.72"/>
<polygon fill="#63b8ff" stroke="#63b8ff" points="277.37,-185.43 266.78,-185.42 275.06,-192.03 277.37,-185.43"/>
</a>
</g>
</g>
<!-- Node10 -->
<g id="Node000010" class="node">
<title>Node10</title>
<g id="a_Node000010"><a xlink:href="_parameter_8h.html" target="_top" xlink:title="model::Parameter source file">
<polygon fill="white" stroke="#666666" points="427.2,-129.75 358.7,-129.75 358.7,-110.5 427.2,-110.5 427.2,-129.75"/>
<text text-anchor="middle" x="392.95" y="-116.25" font-family="Helvetica,sans-Serif" font-size="10.00">Parameter.h</text>
</a>
</g>
</g>
<!-- Node1&#45;&gt;Node10 -->
<g id="edge26_Node000001_Node000010" class="edge">
<title>Node1&#45;&gt;Node10</title>
<g id="a_edge26_Node000001_Node000010"><a xlink:title=" ">
<path fill="none" stroke="#63b8ff" d="M392.95,-220.75C392.95,-203.5 392.95,-165.08 392.95,-141.31"/>
<polygon fill="#63b8ff" stroke="#63b8ff" points="396.45,-141.64 392.95,-131.64 389.45,-141.64 396.45,-141.64"/>
</a>
</g>
</g>
<!-- Node15 -->
<g id="Node000015" class="node">
<title>Node15</title>
<g id="a_Node000015"><a xlink:href="_sparse_system_8h.html" target="_top" xlink:title="SparseSystem source file.">
<polygon fill="white" stroke="#666666" points="687.57,-129.75 600.32,-129.75 600.32,-110.5 687.57,-110.5 687.57,-129.75"/>
<text text-anchor="middle" x="643.95" y="-116.25" font-family="Helvetica,sans-Serif" font-size="10.00">SparseSystem.h</text>
</a>
</g>
</g>
<!-- Node1&#45;&gt;Node15 -->
<g id="edge27_Node000001_Node000015" class="edge">
<title>Node1&#45;&gt;Node15</title>
<g id="a_edge27_Node000001_Node000015"><a xlink:title=" ">
<path fill="none" stroke="#63b8ff" d="M413.92,-220.56C458.03,-201.49 560.62,-157.15 612.58,-134.68"/>
<polygon fill="#63b8ff" stroke="#63b8ff" points="613.68,-138.02 621.47,-130.84 610.91,-131.6 613.68,-138.02"/>
</a>
</g>
</g>
<!-- Node3 -->
<g id="Node000003" class="node">
<title>Node3</title>
<g id="a_Node000003"><a xlink:title=" ">
<polygon fill="#e0e0e0" stroke="#999999" points="180.57,-74.5 117.32,-74.5 117.32,-55.25 180.57,-55.25 180.57,-74.5"/>
<text text-anchor="middle" x="148.95" y="-61" font-family="Helvetica,sans-Serif" font-size="10.00">Eigen/Core</text>
</a>
</g>
</g>
<!-- Node2&#45;&gt;Node3 -->
<g id="edge2_Node000002_Node000003" class="edge">
<title>Node2&#45;&gt;Node3</title>
<g id="a_edge2_Node000002_Node000003"><a xlink:title=" ">
<path fill="none" stroke="#63b8ff" d="M225.93,-165.4C213.29,-157.29 195.34,-144.4 182.95,-129.75 171.65,-116.4 162.59,-98.68 156.67,-85.29"/>
<polygon fill="#63b8ff" stroke="#63b8ff" points="159.98,-84.12 152.88,-76.25 153.52,-86.83 159.98,-84.12"/>
</a>
</g>
</g>
<!-- Node4 -->
<g id="Node000004" class="node">
<title>Node4</title>
<g id="a_Node000004"><a xlink:title=" ">
<polygon fill="#e0e0e0" stroke="#999999" points="48.35,-129.75 19.55,-129.75 19.55,-110.5 48.35,-110.5 48.35,-129.75"/>
<text text-anchor="middle" x="33.95" y="-116.25" font-family="Helvetica,sans-Serif" font-size="10.00">list</text>
</a>
</g>
</g>
<!-- Node2&#45;&gt;Node4 -->
<g id="edge3_Node000002_Node000004" class="edge">
<title>Node2&#45;&gt;Node4</title>
<g id="a_edge3_Node000002_Node000004"><a xlink:title=" ">
<path fill="none" stroke="#63b8ff" d="M216.58,-169.45C183.06,-162.46 120.66,-148.71 59.12,-130.14"/>
<polygon fill="#63b8ff" stroke="#63b8ff" points="60.49,-126.9 49.9,-127.31 58.44,-133.59 60.49,-126.9"/>
</a>
</g>
</g>
<!-- Node5 -->
<g id="Node000005" class="node">
<title>Node5</title>
<g id="a_Node000005"><a xlink:title=" ">
<polygon fill="#e0e0e0" stroke="#999999" points="57.32,-19.25 22.57,-19.25 22.57,0 57.32,0 57.32,-19.25"/>
<text text-anchor="middle" x="39.95" y="-5.75" font-family="Helvetica,sans-Serif" font-size="10.00">map</text>
</a>
</g>
</g>
<!-- Node2&#45;&gt;Node5 -->
<g id="edge4_Node000002_Node000005" class="edge">
<title>Node2&#45;&gt;Node5</title>
<g id="a_edge4_Node000002_Node000005"><a xlink:title=" ">
<path fill="none" stroke="#63b8ff" d="M216.46,-173.41C162.65,-170.72 36.83,-161.13 10.95,-129.75 -13.21,-100.45 10.39,-54.13 26.92,-28.74"/>
<polygon fill="#63b8ff" stroke="#63b8ff" points="29.6,-31.02 32.35,-20.79 23.82,-27.08 29.6,-31.02"/>
</a>
</g>
</g>
<!-- Node6 -->
<g id="Node000006" class="node">
<title>Node6</title>
<g id="a_Node000006"><a xlink:title=" ">
<polygon fill="#e0e0e0" stroke="#999999" points="325.45,-19.25 282.45,-19.25 282.45,0 325.45,0 325.45,-19.25"/>
<text text-anchor="middle" x="303.95" y="-5.75" font-family="Helvetica,sans-Serif" font-size="10.00">vector</text>
</a>
</g>
</g>
<!-- Node2&#45;&gt;Node6 -->
<g id="edge5_Node000002_Node000006" class="edge">
<title>Node2&#45;&gt;Node6</title>
<g id="a_edge5_Node000002_Node000006"><a xlink:title=" ">
<path fill="none" stroke="#63b8ff" d="M244.96,-165.5C249.02,-156.5 255.46,-142.18 260.95,-129.75 271.76,-105.26 275.78,-99.65 284.95,-74.5 290.29,-59.84 295.28,-42.89 298.8,-30.14"/>
<polygon fill="#63b8ff" stroke="#63b8ff" points="302.08,-31.44 301.3,-20.87 295.32,-29.62 302.08,-31.44"/>
</a>
</g>
</g>
<!-- Node7 -->
<g id="Node000007" class="node">
<title>Node7</title>
<g id="a_Node000007"><a xlink:href="_block_type_8h.html" target="_top" xlink:title="Specifies the types of blocks and their parameters.">
<polygon fill="white" stroke="#666666" points="135.57,-129.75 66.32,-129.75 66.32,-110.5 135.57,-110.5 135.57,-129.75"/>
<text text-anchor="middle" x="100.95" y="-116.25" font-family="Helvetica,sans-Serif" font-size="10.00">BlockType.h</text>
</a>
</g>
</g>
<!-- Node2&#45;&gt;Node7 -->
<g id="edge6_Node000002_Node000007" class="edge">
<title>Node2&#45;&gt;Node7</title>
<g id="a_edge6_Node000002_Node000007"><a xlink:title=" ">
<path fill="none" stroke="#63b8ff" d="M217.2,-165.34C194.77,-156.81 160.89,-143.92 135.47,-134.26"/>
<polygon fill="#63b8ff" stroke="#63b8ff" points="136.82,-131.02 126.23,-130.74 134.33,-137.57 136.82,-131.02"/>
</a>
</g>
</g>
<!-- Node9 -->
<g id="Node000009" class="node">
<title>Node9</title>
<g id="a_Node000009"><a xlink:href="_d_o_f_handler_8h.html" target="_top" xlink:title="model::DOFHandler source file">
<polygon fill="white" stroke="#666666" points="275.7,-74.5 198.2,-74.5 198.2,-55.25 275.7,-55.25 275.7,-74.5"/>
<text text-anchor="middle" x="236.95" y="-61" font-family="Helvetica,sans-Serif" font-size="10.00">DOFHandler.h</text>
</a>
</g>
</g>
<!-- Node2&#45;&gt;Node9 -->
<g id="edge8_Node000002_Node000009" class="edge">
<title>Node2&#45;&gt;Node9</title>
<g id="a_edge8_Node000002_Node000009"><a xlink:title=" ">
<path fill="none" stroke="#63b8ff" d="M242.97,-165.27C245.46,-152.87 249.11,-129.98 246.95,-110.5 246.04,-102.31 244.23,-93.43 242.39,-85.76"/>
<polygon fill="#63b8ff" stroke="#63b8ff" points="245.79,-84.94 239.9,-76.13 239.02,-86.69 245.79,-84.94"/>
</a>
</g>
</g>
<!-- Node2&#45;&gt;Node10 -->
<g id="edge12_Node000002_Node000010" class="edge">
<title>Node2&#45;&gt;Node10</title>
<g id="a_edge12_Node000002_Node000010"><a xlink:title=" ">
<path fill="none" stroke="#63b8ff" d="M265.37,-165.82C289.97,-157.2 328.21,-143.8 356.42,-133.92"/>
<polygon fill="#63b8ff" stroke="#63b8ff" points="357.35,-137.3 365.63,-130.69 355.04,-130.7 357.35,-137.3"/>
</a>
</g>
</g>
<!-- Node2&#45;&gt;Node15 -->
<g id="edge19_Node000002_Node000015" class="edge">
<title>Node2&#45;&gt;Node15</title>
<g id="a_edge19_Node000002_Node000015"><a xlink:title=" ">
<path fill="none" stroke="#63b8ff" d="M265.55,-171.12C329.16,-162.72 500.24,-140.11 588.94,-128.39"/>
<polygon fill="#63b8ff" stroke="#63b8ff" points="589.15,-131.9 598.61,-127.12 588.24,-124.96 589.15,-131.9"/>
</a>
</g>
</g>
<!-- Node19 -->
<g id="Node000019" class="node">
<title>Node19</title>
<g id="a_Node000019"><a xlink:href="_state_8h.html" target="_top" xlink:title="State source file.">
<polygon fill="white" stroke="#666666" points="238.32,-129.75 191.57,-129.75 191.57,-110.5 238.32,-110.5 238.32,-129.75"/>
<text text-anchor="middle" x="214.95" y="-116.25" font-family="Helvetica,sans-Serif" font-size="10.00">State.h</text>
</a>
</g>
</g>
<!-- Node2&#45;&gt;Node19 -->
<g id="edge24_Node000002_Node000019" class="edge">
<title>Node2&#45;&gt;Node19</title>
<g id="a_edge24_Node000002_Node000019"><a xlink:title=" ">
<path fill="none" stroke="#63b8ff" d="M236.66,-165.58C233.33,-158.76 228.59,-149.06 224.38,-140.45"/>
<polygon fill="#63b8ff" stroke="#63b8ff" points="227.53,-138.92 220,-131.47 221.24,-141.99 227.53,-138.92"/>
</a>
</g>
</g>
<!-- Node8 -->
<g id="Node000008" class="node">
<title>Node8</title>
<g id="a_Node000008"><a xlink:title=" ">
<polygon fill="#e0e0e0" stroke="#999999" points="209.95,-19.25 169.95,-19.25 169.95,0 209.95,0 209.95,-19.25"/>
<text text-anchor="middle" x="189.95" y="-5.75" font-family="Helvetica,sans-Serif" font-size="10.00">string</text>
</a>
</g>
</g>
<!-- Node7&#45;&gt;Node8 -->
<g id="edge7_Node000007_Node000008" class="edge">
<title>Node7&#45;&gt;Node8</title>
<g id="a_edge7_Node000007_Node000008"><a xlink:title=" ">
<path fill="none" stroke="#63b8ff" d="M99.53,-110.43C97.87,-97.28 96.64,-72.11 107.95,-55.25 119.78,-37.61 140.99,-26.34 158.87,-19.53"/>
<polygon fill="#63b8ff" stroke="#63b8ff" points="160,-22.85 168.3,-16.27 157.71,-16.23 160,-22.85"/>
</a>
</g>
</g>
<!-- Node9&#45;&gt;Node5 -->
<g id="edge9_Node000009_Node000005" class="edge">
<title>Node9&#45;&gt;Node5</title>
<g id="a_edge9_Node000009_Node000005"><a xlink:title=" ">
<path fill="none" stroke="#63b8ff" d="M203.53,-54.84C165.66,-44.6 104.55,-28.09 68.72,-18.4"/>
<polygon fill="#63b8ff" stroke="#63b8ff" points="69.63,-15.02 59.07,-15.79 67.81,-21.78 69.63,-15.02"/>
</a>
</g>
</g>
<!-- Node9&#45;&gt;Node6 -->
<g id="edge11_Node000009_Node000006" class="edge">
<title>Node9&#45;&gt;Node6</title>
<g id="a_edge11_Node000009_Node000006"><a xlink:title=" ">
<path fill="none" stroke="#63b8ff" d="M248.31,-54.84C258,-47.15 272.15,-35.9 283.75,-26.68"/>
<polygon fill="#63b8ff" stroke="#63b8ff" points="285.92,-29.43 291.57,-20.47 281.56,-23.95 285.92,-29.43"/>
</a>
</g>
</g>
<!-- Node9&#45;&gt;Node8 -->
<g id="edge10_Node000009_Node000008" class="edge">
<title>Node9&#45;&gt;Node8</title>
<g id="a_edge10_Node000009_Node000008"><a xlink:title=" ">
<path fill="none" stroke="#63b8ff" d="M229.19,-55.08C222.76,-47.8 213.43,-37.23 205.48,-28.23"/>
<polygon fill="#63b8ff" stroke="#63b8ff" points="208.12,-25.93 198.88,-20.74 202.87,-30.56 208.12,-25.93"/>
</a>
</g>
</g>
<!-- Node10&#45;&gt;Node6 -->
<g id="edge16_Node000010_Node000006" class="edge">
<title>Node10&#45;&gt;Node6</title>
<g id="a_edge16_Node000010_Node000006"><a xlink:title=" ">
<path fill="none" stroke="#63b8ff" d="M385.67,-110.25C371,-92.36 337.66,-51.72 318.4,-28.25"/>
<polygon fill="#63b8ff" stroke="#63b8ff" points="321.34,-26.31 312.29,-20.8 315.93,-30.75 321.34,-26.31"/>
</a>
</g>
</g>
<!-- Node10&#45;&gt;Node9 -->
<g id="edge18_Node000010_Node000009" class="edge">
<title>Node10&#45;&gt;Node9</title>
<g id="a_edge18_Node000010_Node000009"><a xlink:title=" ">
<path fill="none" stroke="#63b8ff" d="M366.49,-110.09C341.16,-101.45 302.72,-88.32 274.28,-78.62"/>
<polygon fill="#63b8ff" stroke="#63b8ff" points="275.57,-75.36 264.97,-75.44 273.31,-81.98 275.57,-75.36"/>
</a>
</g>
</g>
<!-- Node11 -->
<g id="Node000011" class="node">
<title>Node11</title>
<g id="a_Node000011"><a xlink:title=" ">
<polygon fill="#e0e0e0" stroke="#999999" points="415.57,-74.5 370.32,-74.5 370.32,-55.25 415.57,-55.25 415.57,-74.5"/>
<text text-anchor="middle" x="392.95" y="-61" font-family="Helvetica,sans-Serif" font-size="10.00">math.h</text>
</a>
</g>
</g>
<!-- Node10&#45;&gt;Node11 -->
<g id="edge13_Node000010_Node000011" class="edge">
<title>Node10&#45;&gt;Node11</title>
<g id="a_edge13_Node000010_Node000011"><a xlink:title=" ">
<path fill="none" stroke="#63b8ff" d="M392.95,-110.33C392.95,-103.82 392.95,-94.67 392.95,-86.37"/>
<polygon fill="#63b8ff" stroke="#63b8ff" points="396.45,-86.37 392.95,-76.37 389.45,-86.37 396.45,-86.37"/>
</a>
</g>
</g>
<!-- Node12 -->
<g id="Node000012" class="node">
<title>Node12</title>
<g id="a_Node000012"><a xlink:title=" ">
<polygon fill="#e0e0e0" stroke="#999999" points="629.7,-74.5 576.2,-74.5 576.2,-55.25 629.7,-55.25 629.7,-74.5"/>
<text text-anchor="middle" x="602.95" y="-61" font-family="Helvetica,sans-Serif" font-size="10.00">iostream</text>
</a>
</g>
</g>
<!-- Node10&#45;&gt;Node12 -->
<g id="edge14_Node000010_Node000012" class="edge">
<title>Node10&#45;&gt;Node12</title>
<g id="a_edge14_Node000010_Node000012"><a xlink:title=" ">
<path fill="none" stroke="#63b8ff" d="M427.63,-110.33C465.48,-100.73 525.9,-85.41 565,-75.5"/>
<polygon fill="#63b8ff" stroke="#63b8ff" points="565.61,-78.95 574.44,-73.1 563.89,-72.17 565.61,-78.95"/>
</a>
</g>
</g>
<!-- Node13 -->
<g id="Node000013" class="node">
<title>Node13</title>
<g id="a_Node000013"><a xlink:title=" ">
<polygon fill="#e0e0e0" stroke="#999999" points="484.2,-74.5 433.7,-74.5 433.7,-55.25 484.2,-55.25 484.2,-74.5"/>
<text text-anchor="middle" x="458.95" y="-61" font-family="Helvetica,sans-Serif" font-size="10.00">numeric</text>
</a>
</g>
</g>
<!-- Node10&#45;&gt;Node13 -->
<g id="edge15_Node000010_Node000013" class="edge">
<title>Node10&#45;&gt;Node13</title>
<g id="a_edge15_Node000010_Node000013"><a xlink:title=" ">
<path fill="none" stroke="#63b8ff" d="M404.14,-110.09C413.68,-102.4 427.62,-91.15 439.06,-81.93"/>
<polygon fill="#63b8ff" stroke="#63b8ff" points="441.16,-84.73 446.74,-75.73 436.76,-79.28 441.16,-84.73"/>
</a>
</g>
</g>
<!-- Node14 -->
<g id="Node000014" class="node">
<title>Node14</title>
<g id="a_Node000014"><a xlink:title=" ">
<polygon fill="#e0e0e0" stroke="#999999" points="557.82,-74.5 502.07,-74.5 502.07,-55.25 557.82,-55.25 557.82,-74.5"/>
<text text-anchor="middle" x="529.95" y="-61" font-family="Helvetica,sans-Serif" font-size="10.00">algorithm</text>
</a>
</g>
</g>
<!-- Node10&#45;&gt;Node14 -->
<g id="edge17_Node000010_Node000014" class="edge">
<title>Node10&#45;&gt;Node14</title>
<g id="a_edge17_Node000010_Node000014"><a xlink:title=" ">
<path fill="none" stroke="#63b8ff" d="M416.19,-110.09C438.13,-101.56 471.3,-88.67 496.16,-79.01"/>
<polygon fill="#63b8ff" stroke="#63b8ff" points="497.13,-82.39 505.18,-75.5 494.6,-75.86 497.13,-82.39"/>
</a>
</g>
</g>
<!-- Node15&#45;&gt;Node12 -->
<g id="edge22_Node000015_Node000012" class="edge">
<title>Node15&#45;&gt;Node12</title>
<g id="a_edge22_Node000015_Node000012"><a xlink:title=" ">
<path fill="none" stroke="#63b8ff" d="M637.18,-110.33C631.63,-103.13 623.61,-92.71 616.72,-83.76"/>
<polygon fill="#63b8ff" stroke="#63b8ff" points="619.66,-81.85 610.79,-76.06 614.12,-86.12 619.66,-81.85"/>
</a>
</g>
</g>
<!-- Node16 -->
<g id="Node000016" class="node">
<title>Node16</title>
<g id="a_Node000016"><a xlink:title=" ">
<polygon fill="#e0e0e0" stroke="#999999" points="721.82,-74.5 648.07,-74.5 648.07,-55.25 721.82,-55.25 721.82,-74.5"/>
<text text-anchor="middle" x="684.95" y="-61" font-family="Helvetica,sans-Serif" font-size="10.00">Eigen/Sparse</text>
</a>
</g>
</g>
<!-- Node15&#45;&gt;Node16 -->
<g id="edge20_Node000015_Node000016" class="edge">
<title>Node15&#45;&gt;Node16</title>
<g id="a_edge20_Node000015_Node000016"><a xlink:title=" ">
<path fill="none" stroke="#63b8ff" d="M650.72,-110.33C656.26,-103.13 664.29,-92.71 671.18,-83.76"/>
<polygon fill="#63b8ff" stroke="#63b8ff" points="673.78,-86.12 677.11,-76.06 668.23,-81.85 673.78,-86.12"/>
</a>
</g>
</g>
<!-- Node17 -->
<g id="Node000017" class="node">
<title>Node17</title>
<g id="a_Node000017"><a xlink:title=" ">
<polygon fill="#e0e0e0" stroke="#999999" points="827.57,-74.5 740.32,-74.5 740.32,-55.25 827.57,-55.25 827.57,-74.5"/>
<text text-anchor="middle" x="783.95" y="-61" font-family="Helvetica,sans-Serif" font-size="10.00">Eigen/SparseLU</text>
</a>
</g>
</g>
<!-- Node15&#45;&gt;Node17 -->
<g id="edge21_Node000015_Node000017" class="edge">
<title>Node15&#45;&gt;Node17</title>
<g id="a_edge21_Node000015_Node000017"><a xlink:title=" ">
<path fill="none" stroke="#63b8ff" d="M667.7,-110.09C690.12,-101.56 724.01,-88.67 749.42,-79.01"/>
<polygon fill="#63b8ff" stroke="#63b8ff" points="750.57,-82.32 758.67,-75.49 748.08,-75.77 750.57,-82.32"/>
</a>
</g>
</g>
<!-- Node18 -->
<g id="Node000018" class="node">
<title>Node18</title>
<g id="a_Node000018"><a xlink:title=" ">
<polygon fill="#e0e0e0" stroke="#999999" points="896.2,-74.5 845.7,-74.5 845.7,-55.25 896.2,-55.25 896.2,-74.5"/>
<text text-anchor="middle" x="870.95" y="-61" font-family="Helvetica,sans-Serif" font-size="10.00">memory</text>
</a>
</g>
</g>
<!-- Node15&#45;&gt;Node18 -->
<g id="edge23_Node000015_Node000018" class="edge">
<title>Node15&#45;&gt;Node18</title>
<g id="a_edge23_Node000015_Node000018"><a xlink:title=" ">
<path fill="none" stroke="#63b8ff" d="M684.3,-110.06C721.02,-101.75 777.01,-88.93 834.26,-75.12"/>
<polygon fill="#63b8ff" stroke="#63b8ff" points="834.98,-78.54 843.87,-72.79 833.33,-71.74 834.98,-78.54"/>
</a>
</g>
</g>
<!-- Node19&#45;&gt;Node3 -->
<g id="edge25_Node000019_Node000003" class="edge">
<title>Node19&#45;&gt;Node3</title>
<g id="a_edge25_Node000019_Node000003"><a xlink:title=" ">
<path fill="none" stroke="#63b8ff" d="M203.75,-110.09C194.21,-102.4 180.27,-91.15 168.84,-81.93"/>
<polygon fill="#63b8ff" stroke="#63b8ff" points="171.14,-79.28 161.16,-75.73 166.74,-84.73 171.14,-79.28"/>
</a>
</g>
</g>
</g>
</svg>
