<?xml version="1.0" encoding="UTF-8" standalone="no"?>
<!DOCTYPE svg PUBLIC "-//W3C//DTD SVG 1.1//EN"
 "http://www.w3.org/Graphics/SVG/1.1/DTD/svg11.dtd">
<!-- Generated by graphviz version 12.2.1 (20241206.2353)
 -->
<!-- Title: model/ValveTanh.h Pages: 1 -->
<svg width="884pt" height="248pt"
 viewBox="0.00 0.00 883.88 248.25" xmlns="http://www.w3.org/2000/svg" xmlns:xlink="http://www.w3.org/1999/xlink">
<g id="graph0" class="graph" transform="scale(1 1) rotate(0) translate(4 244.25)">
<title>model/ValveTanh.h</title>
<!-- Node1 -->
<g id="Node000001" class="node">
<title>Node1</title>
<g id="a_Node000001"><a xlink:title="model::ValveTanh source file">
<polygon fill="#999999" stroke="#666666" points="398.25,-240.25 299,-240.25 299,-221 398.25,-221 398.25,-240.25"/>
<text text-anchor="middle" x="348.62" y="-226.75" font-family="Helvetica,sans-Serif" font-size="10.00">model/ValveTanh.h</text>
</a>
</g>
</g>
<!-- Node2 -->
<g id="Node000002" class="node">
<title>Node2</title>
<g id="a_Node000002"><a xlink:title=" ">
<polygon fill="#e0e0e0" stroke="#999999" points="319.25,-74.5 274,-74.5 274,-55.25 319.25,-55.25 319.25,-74.5"/>
<text text-anchor="middle" x="296.62" y="-61" font-family="Helvetica,sans-Serif" font-size="10.00">math.h</text>
</a>
</g>
</g>
<!-- Node1&#45;&gt;Node2 -->
<g id="edge1_Node000001_Node000002" class="edge">
<title>Node1&#45;&gt;Node2</title>
<g id="a_edge1_Node000001_Node000002"><a xlink:title=" ">
<path fill="none" stroke="#63b8ff" d="M345.83,-220.82C337.75,-195.39 314.24,-121.35 302.9,-85.62"/>
<polygon fill="#63b8ff" stroke="#63b8ff" points="306.26,-84.64 299.89,-76.16 299.58,-86.76 306.26,-84.64"/>
</a>
</g>
</g>
<!-- Node3 -->
<g id="Node000003" class="node">
<title>Node3</title>
<g id="a_Node000003"><a xlink:href="_block_8h.html" target="_top" xlink:title="model::Block source file">
<polygon fill="white" stroke="#666666" points="270.75,-185 222.5,-185 222.5,-165.75 270.75,-165.75 270.75,-185"/>
<text text-anchor="middle" x="246.62" y="-171.5" font-family="Helvetica,sans-Serif" font-size="10.00">Block.h</text>
</a>
</g>
</g>
<!-- Node1&#45;&gt;Node3 -->
<g id="edge2_Node000001_Node000003" class="edge">
<title>Node1&#45;&gt;Node3</title>
<g id="a_edge2_Node000001_Node000003"><a xlink:title=" ">
<path fill="none" stroke="#63b8ff" d="M331.32,-220.59C315.64,-212.41 292.27,-200.21 274.05,-190.69"/>
<polygon fill="#63b8ff" stroke="#63b8ff" points="275.84,-187.68 265.35,-186.15 272.6,-193.88 275.84,-187.68"/>
</a>
</g>
</g>
<!-- Node15 -->
<g id="Node000015" class="node">
<title>Node15</title>
<g id="a_Node000015"><a xlink:href="_sparse_system_8h.html" target="_top" xlink:title="SparseSystem source file.">
<polygon fill="white" stroke="#666666" points="698.25,-129.75 611,-129.75 611,-110.5 698.25,-110.5 698.25,-129.75"/>
<text text-anchor="middle" x="654.62" y="-116.25" font-family="Helvetica,sans-Serif" font-size="10.00">SparseSystem.h</text>
</a>
</g>
</g>
<!-- Node1&#45;&gt;Node15 -->
<g id="edge27_Node000001_Node000015" class="edge">
<title>Node1&#45;&gt;Node15</title>
<g id="a_edge27_Node000001_Node000015"><a xlink:title=" ">
<path fill="none" stroke="#63b8ff" d="M385.28,-220.51C417.15,-212.27 464.4,-199.26 504.62,-185 547.39,-169.84 595.42,-148.62 625.35,-134.87"/>
<polygon fill="#63b8ff" stroke="#63b8ff" points="626.53,-138.18 634.14,-130.81 623.59,-131.83 626.53,-138.18"/>
</a>
</g>
</g>
<!-- Node20 -->
<g id="Node000020" class="node">
<title>Node20</title>
<g id="a_Node000020"><a xlink:href="debug_8h.html" target="_top" xlink:title="DEBUG_MSG source file.">
<polygon fill="white" stroke="#666666" points="495.5,-185 445.75,-185 445.75,-165.75 495.5,-165.75 495.5,-185"/>
<text text-anchor="middle" x="470.62" y="-171.5" font-family="Helvetica,sans-Serif" font-size="10.00">debug.h</text>
</a>
</g>
</g>
<!-- Node1&#45;&gt;Node20 -->
<g id="edge28_Node000001_Node000020" class="edge">
<title>Node1&#45;&gt;Node20</title>
<g id="a_edge28_Node000001_Node000020"><a xlink:title=" ">
<path fill="none" stroke="#63b8ff" d="M369.32,-220.59C388.51,-212.22 417.34,-199.63 439.34,-190.03"/>
<polygon fill="#63b8ff" stroke="#63b8ff" points="440.68,-193.27 448.44,-186.06 437.88,-186.85 440.68,-193.27"/>
</a>
</g>
</g>
<!-- Node4 -->
<g id="Node000004" class="node">
<title>Node4</title>
<g id="a_Node000004"><a xlink:title=" ">
<polygon fill="#e0e0e0" stroke="#999999" points="63.25,-74.5 0,-74.5 0,-55.25 63.25,-55.25 63.25,-74.5"/>
<text text-anchor="middle" x="31.62" y="-61" font-family="Helvetica,sans-Serif" font-size="10.00">Eigen/Core</text>
</a>
</g>
</g>
<!-- Node3&#45;&gt;Node4 -->
<g id="edge3_Node000003_Node000004" class="edge">
<title>Node3&#45;&gt;Node4</title>
<g id="a_edge3_Node000003_Node000004"><a xlink:title=" ">
<path fill="none" stroke="#63b8ff" d="M222.35,-173.11C170.93,-169.87 53.75,-159.34 29.62,-129.75 19.76,-117.65 21.35,-99.54 24.78,-85.69"/>
<polygon fill="#63b8ff" stroke="#63b8ff" points="28.06,-86.91 27.59,-76.33 21.36,-84.9 28.06,-86.91"/>
</a>
</g>
</g>
<!-- Node5 -->
<g id="Node000005" class="node">
<title>Node5</title>
<g id="a_Node000005"><a xlink:title=" ">
<polygon fill="#e0e0e0" stroke="#999999" points="169.03,-129.75 140.22,-129.75 140.22,-110.5 169.03,-110.5 169.03,-129.75"/>
<text text-anchor="middle" x="154.62" y="-116.25" font-family="Helvetica,sans-Serif" font-size="10.00">list</text>
</a>
</g>
</g>
<!-- Node3&#45;&gt;Node5 -->
<g id="edge4_Node000003_Node000005" class="edge">
<title>Node3&#45;&gt;Node5</title>
<g id="a_edge4_Node000003_Node000005"><a xlink:title=" ">
<path fill="none" stroke="#63b8ff" d="M231.02,-165.34C216.75,-157.09 195.43,-144.74 178.93,-135.2"/>
<polygon fill="#63b8ff" stroke="#63b8ff" points="181.11,-132.41 170.7,-130.43 177.61,-138.47 181.11,-132.41"/>
</a>
</g>
</g>
<!-- Node6 -->
<g id="Node000006" class="node">
<title>Node6</title>
<g id="a_Node000006"><a xlink:title=" ">
<polygon fill="#e0e0e0" stroke="#999999" points="143,-19.25 108.25,-19.25 108.25,0 143,0 143,-19.25"/>
<text text-anchor="middle" x="125.62" y="-5.75" font-family="Helvetica,sans-Serif" font-size="10.00">map</text>
</a>
</g>
</g>
<!-- Node3&#45;&gt;Node6 -->
<g id="edge5_Node000003_Node000006" class="edge">
<title>Node3&#45;&gt;Node6</title>
<g id="a_edge5_Node000003_Node000006"><a xlink:title=" ">
<path fill="none" stroke="#63b8ff" d="M222.18,-172.46C195.12,-168.9 152.56,-158.74 131.62,-129.75 110.57,-100.6 115.32,-56.18 120.55,-30.62"/>
<polygon fill="#63b8ff" stroke="#63b8ff" points="123.95,-31.45 122.79,-20.92 117.13,-29.88 123.95,-31.45"/>
</a>
</g>
</g>
<!-- Node7 -->
<g id="Node000007" class="node">
<title>Node7</title>
<g id="a_Node000007"><a xlink:title=" ">
<polygon fill="#e0e0e0" stroke="#999999" points="369.12,-19.25 326.12,-19.25 326.12,0 369.12,0 369.12,-19.25"/>
<text text-anchor="middle" x="347.62" y="-5.75" font-family="Helvetica,sans-Serif" font-size="10.00">vector</text>
</a>
</g>
</g>
<!-- Node3&#45;&gt;Node7 -->
<g id="edge6_Node000003_Node000007" class="edge">
<title>Node3&#45;&gt;Node7</title>
<g id="a_edge6_Node000003_Node000007"><a xlink:title=" ">
<path fill="none" stroke="#63b8ff" d="M270.96,-174.51C326.79,-173.3 462.8,-161.23 508.62,-74.5 535.13,-24.34 435.13,-13.42 380.69,-11.15"/>
<polygon fill="#63b8ff" stroke="#63b8ff" points="381.13,-7.66 371.02,-10.82 380.9,-14.66 381.13,-7.66"/>
</a>
</g>
</g>
<!-- Node8 -->
<g id="Node000008" class="node">
<title>Node8</title>
<g id="a_Node000008"><a xlink:href="_block_type_8h.html" target="_top" xlink:title="Specifies the types of blocks and their parameters.">
<polygon fill="white" stroke="#666666" points="256.25,-129.75 187,-129.75 187,-110.5 256.25,-110.5 256.25,-129.75"/>
<text text-anchor="middle" x="221.62" y="-116.25" font-family="Helvetica,sans-Serif" font-size="10.00">BlockType.h</text>
</a>
</g>
</g>
<!-- Node3&#45;&gt;Node8 -->
<g id="edge7_Node000003_Node000008" class="edge">
<title>Node3&#45;&gt;Node8</title>
<g id="a_edge7_Node000003_Node000008"><a xlink:title=" ">
<path fill="none" stroke="#63b8ff" d="M242.5,-165.58C239.3,-158.76 234.74,-149.06 230.7,-140.45"/>
<polygon fill="#63b8ff" stroke="#63b8ff" points="233.9,-139.04 226.49,-131.48 227.57,-142.02 233.9,-139.04"/>
</a>
</g>
</g>
<!-- Node10 -->
<g id="Node000010" class="node">
<title>Node10</title>
<g id="a_Node000010"><a xlink:href="_d_o_f_handler_8h.html" target="_top" xlink:title="model::DOFHandler source file">
<polygon fill="white" stroke="#666666" points="256.38,-74.5 178.88,-74.5 178.88,-55.25 256.38,-55.25 256.38,-74.5"/>
<text text-anchor="middle" x="217.62" y="-61" font-family="Helvetica,sans-Serif" font-size="10.00">DOFHandler.h</text>
</a>
</g>
</g>
<!-- Node3&#45;&gt;Node10 -->
<g id="edge9_Node000003_Node000010" class="edge">
<title>Node3&#45;&gt;Node10</title>
<g id="a_edge9_Node000003_Node000010"><a xlink:title=" ">
<path fill="none" stroke="#63b8ff" d="M253.13,-165.46C261.45,-152.89 273.85,-129.38 265.62,-110.5 260.58,-98.92 250.89,-88.99 241.52,-81.46"/>
<polygon fill="#63b8ff" stroke="#63b8ff" points="243.79,-78.79 233.67,-75.66 239.63,-84.42 243.79,-78.79"/>
</a>
</g>
</g>
<!-- Node11 -->
<g id="Node000011" class="node">
<title>Node11</title>
<g id="a_Node000011"><a xlink:href="_parameter_8h.html" target="_top" xlink:title="model::Parameter source file">
<polygon fill="white" stroke="#666666" points="418.88,-129.75 350.38,-129.75 350.38,-110.5 418.88,-110.5 418.88,-129.75"/>
<text text-anchor="middle" x="384.62" y="-116.25" font-family="Helvetica,sans-Serif" font-size="10.00">Parameter.h</text>
</a>
</g>
</g>
<!-- Node3&#45;&gt;Node11 -->
<g id="edge13_Node000003_Node000011" class="edge">
<title>Node3&#45;&gt;Node11</title>
<g id="a_edge13_Node000003_Node000011"><a xlink:title=" ">
<path fill="none" stroke="#63b8ff" d="M270.03,-165.34C292.14,-156.81 325.54,-143.92 350.59,-134.26"/>
<polygon fill="#63b8ff" stroke="#63b8ff" points="351.62,-137.61 359.69,-130.75 349.1,-131.08 351.62,-137.61"/>
</a>
</g>
</g>
<!-- Node3&#45;&gt;Node15 -->
<g id="edge20_Node000003_Node000015" class="edge">
<title>Node3&#45;&gt;Node15</title>
<g id="a_edge20_Node000003_Node000015"><a xlink:title=" ">
<path fill="none" stroke="#63b8ff" d="M271.23,-171.16C335.52,-162.77 509.74,-140.03 599.51,-128.32"/>
<polygon fill="#63b8ff" stroke="#63b8ff" points="599.85,-131.8 609.31,-127.04 598.94,-124.86 599.85,-131.8"/>
</a>
</g>
</g>
<!-- Node19 -->
<g id="Node000019" class="node">
<title>Node19</title>
<g id="a_Node000019"><a xlink:href="_state_8h.html" target="_top" xlink:title="State source file.">
<polygon fill="white" stroke="#666666" points="85,-129.75 38.25,-129.75 38.25,-110.5 85,-110.5 85,-129.75"/>
<text text-anchor="middle" x="61.62" y="-116.25" font-family="Helvetica,sans-Serif" font-size="10.00">State.h</text>
</a>
</g>
</g>
<!-- Node3&#45;&gt;Node19 -->
<g id="edge25_Node000003_Node000019" class="edge">
<title>Node3&#45;&gt;Node19</title>
<g id="a_edge25_Node000003_Node000019"><a xlink:title=" ">
<path fill="none" stroke="#63b8ff" d="M222.06,-167.3C189.72,-158 132.71,-141.59 96.08,-131.04"/>
<polygon fill="#63b8ff" stroke="#63b8ff" points="97.45,-127.79 86.87,-128.39 95.51,-134.52 97.45,-127.79"/>
</a>
</g>
</g>
<!-- Node9 -->
<g id="Node000009" class="node">
<title>Node9</title>
<g id="a_Node000009"><a xlink:title=" ">
<polygon fill="#e0e0e0" stroke="#999999" points="212.62,-19.25 172.62,-19.25 172.62,0 212.62,0 212.62,-19.25"/>
<text text-anchor="middle" x="192.62" y="-5.75" font-family="Helvetica,sans-Serif" font-size="10.00">string</text>
</a>
</g>
</g>
<!-- Node8&#45;&gt;Node9 -->
<g id="edge8_Node000008_Node000009" class="edge">
<title>Node8&#45;&gt;Node9</title>
<g id="a_edge8_Node000008_Node000009"><a xlink:title=" ">
<path fill="none" stroke="#63b8ff" d="M204.84,-110.07C192.55,-102.41 176.83,-90.17 169.62,-74.5 162.71,-59.46 170.31,-41.69 178.57,-28.72"/>
<polygon fill="#63b8ff" stroke="#63b8ff" points="181.31,-30.92 184.21,-20.73 175.59,-26.89 181.31,-30.92"/>
</a>
</g>
</g>
<!-- Node10&#45;&gt;Node6 -->
<g id="edge10_Node000010_Node000006" class="edge">
<title>Node10&#45;&gt;Node6</title>
<g id="a_edge10_Node000010_Node000006"><a xlink:title=" ">
<path fill="none" stroke="#63b8ff" d="M202.02,-54.84C188.01,-46.73 167.19,-34.68 150.82,-25.21"/>
<polygon fill="#63b8ff" stroke="#63b8ff" points="153.03,-22.44 142.62,-20.46 149.52,-28.5 153.03,-22.44"/>
</a>
</g>
</g>
<!-- Node10&#45;&gt;Node7 -->
<g id="edge12_Node000010_Node000007" class="edge">
<title>Node10&#45;&gt;Node7</title>
<g id="a_edge12_Node000010_Node000007"><a xlink:title=" ">
<path fill="none" stroke="#63b8ff" d="M239.68,-54.84C260.44,-46.34 291.78,-33.5 315.36,-23.84"/>
<polygon fill="#63b8ff" stroke="#63b8ff" points="316.57,-27.13 324.5,-20.1 313.92,-20.65 316.57,-27.13"/>
</a>
</g>
</g>
<!-- Node10&#45;&gt;Node9 -->
<g id="edge11_Node000010_Node000009" class="edge">
<title>Node10&#45;&gt;Node9</title>
<g id="a_edge11_Node000010_Node000009"><a xlink:title=" ">
<path fill="none" stroke="#63b8ff" d="M213.5,-55.08C210.3,-48.26 205.74,-38.56 201.7,-29.95"/>
<polygon fill="#63b8ff" stroke="#63b8ff" points="204.9,-28.54 197.49,-20.98 198.57,-31.52 204.9,-28.54"/>
</a>
</g>
</g>
<!-- Node11&#45;&gt;Node2 -->
<g id="edge14_Node000011_Node000002" class="edge">
<title>Node11&#45;&gt;Node2</title>
<g id="a_edge14_Node000011_Node000002"><a xlink:title=" ">
<path fill="none" stroke="#63b8ff" d="M369.7,-110.09C356.42,-102.06 336.76,-90.16 321.17,-80.73"/>
<polygon fill="#63b8ff" stroke="#63b8ff" points="323.29,-77.92 312.92,-75.74 319.66,-83.91 323.29,-77.92"/>
</a>
</g>
</g>
<!-- Node11&#45;&gt;Node7 -->
<g id="edge17_Node000011_Node000007" class="edge">
<title>Node11&#45;&gt;Node7</title>
<g id="a_edge17_Node000011_Node000007"><a xlink:title=" ">
<path fill="none" stroke="#63b8ff" d="M380.79,-110.33C376.96,-101.39 371.04,-87.12 366.62,-74.5 361.48,-59.77 356.48,-42.83 352.9,-30.09"/>
<polygon fill="#63b8ff" stroke="#63b8ff" points="356.38,-29.56 350.35,-20.85 349.64,-31.42 356.38,-29.56"/>
</a>
</g>
</g>
<!-- Node11&#45;&gt;Node10 -->
<g id="edge19_Node000011_Node000010" class="edge">
<title>Node11&#45;&gt;Node10</title>
<g id="a_edge19_Node000011_Node000010"><a xlink:title=" ">
<path fill="none" stroke="#63b8ff" d="M356.3,-110.09C328.95,-101.37 287.3,-88.09 256.79,-78.36"/>
<polygon fill="#63b8ff" stroke="#63b8ff" points="258.13,-75.12 247.54,-75.41 256,-81.78 258.13,-75.12"/>
</a>
</g>
</g>
<!-- Node12 -->
<g id="Node000012" class="node">
<title>Node12</title>
<g id="a_Node000012"><a xlink:title=" ">
<polygon fill="#e0e0e0" stroke="#999999" points="609.38,-74.5 555.88,-74.5 555.88,-55.25 609.38,-55.25 609.38,-74.5"/>
<text text-anchor="middle" x="582.62" y="-61" font-family="Helvetica,sans-Serif" font-size="10.00">iostream</text>
</a>
</g>
</g>
<!-- Node11&#45;&gt;Node12 -->
<g id="edge15_Node000011_Node000012" class="edge">
<title>Node11&#45;&gt;Node12</title>
<g id="a_edge15_Node000011_Node000012"><a xlink:title=" ">
<path fill="none" stroke="#63b8ff" d="M418.21,-110.09C453.31,-100.65 508.26,-85.88 544.84,-76.04"/>
<polygon fill="#63b8ff" stroke="#63b8ff" points="545.36,-79.52 554.1,-73.55 543.54,-72.76 545.36,-79.52"/>
</a>
</g>
</g>
<!-- Node13 -->
<g id="Node000013" class="node">
<title>Node13</title>
<g id="a_Node000013"><a xlink:title=" ">
<polygon fill="#e0e0e0" stroke="#999999" points="425.88,-74.5 375.38,-74.5 375.38,-55.25 425.88,-55.25 425.88,-74.5"/>
<text text-anchor="middle" x="400.62" y="-61" font-family="Helvetica,sans-Serif" font-size="10.00">numeric</text>
</a>
</g>
</g>
<!-- Node11&#45;&gt;Node13 -->
<g id="edge16_Node000011_Node000013" class="edge">
<title>Node11&#45;&gt;Node13</title>
<g id="a_edge16_Node000011_Node000013"><a xlink:title=" ">
<path fill="none" stroke="#63b8ff" d="M387.27,-110.33C389.27,-103.67 392.1,-94.24 394.64,-85.78"/>
<polygon fill="#63b8ff" stroke="#63b8ff" points="397.96,-86.89 397.49,-76.31 391.26,-84.88 397.96,-86.89"/>
</a>
</g>
</g>
<!-- Node14 -->
<g id="Node000014" class="node">
<title>Node14</title>
<g id="a_Node000014"><a xlink:title=" ">
<polygon fill="#e0e0e0" stroke="#999999" points="499.5,-74.5 443.75,-74.5 443.75,-55.25 499.5,-55.25 499.5,-74.5"/>
<text text-anchor="middle" x="471.62" y="-61" font-family="Helvetica,sans-Serif" font-size="10.00">algorithm</text>
</a>
</g>
</g>
<!-- Node11&#45;&gt;Node14 -->
<g id="edge18_Node000011_Node000014" class="edge">
<title>Node11&#45;&gt;Node14</title>
<g id="a_edge18_Node000011_Node000014"><a xlink:title=" ">
<path fill="none" stroke="#63b8ff" d="M399.38,-110.09C412.51,-102.06 431.95,-90.16 447.36,-80.73"/>
<polygon fill="#63b8ff" stroke="#63b8ff" points="448.8,-83.95 455.5,-75.74 445.15,-77.98 448.8,-83.95"/>
</a>
</g>
</g>
<!-- Node15&#45;&gt;Node12 -->
<g id="edge23_Node000015_Node000012" class="edge">
<title>Node15&#45;&gt;Node12</title>
<g id="a_edge23_Node000015_Node000012"><a xlink:title=" ">
<path fill="none" stroke="#63b8ff" d="M642.41,-110.09C631.8,-102.24 616.19,-90.7 603.58,-81.37"/>
<polygon fill="#63b8ff" stroke="#63b8ff" points="606,-78.81 595.88,-75.67 601.83,-84.44 606,-78.81"/>
</a>
</g>
</g>
<!-- Node16 -->
<g id="Node000016" class="node">
<title>Node16</title>
<g id="a_Node000016"><a xlink:title=" ">
<polygon fill="#e0e0e0" stroke="#999999" points="701.5,-74.5 627.75,-74.5 627.75,-55.25 701.5,-55.25 701.5,-74.5"/>
<text text-anchor="middle" x="664.62" y="-61" font-family="Helvetica,sans-Serif" font-size="10.00">Eigen/Sparse</text>
</a>
</g>
</g>
<!-- Node15&#45;&gt;Node16 -->
<g id="edge21_Node000015_Node000016" class="edge">
<title>Node15&#45;&gt;Node16</title>
<g id="a_edge21_Node000015_Node000016"><a xlink:title=" ">
<path fill="none" stroke="#63b8ff" d="M656.28,-110.33C657.51,-103.74 659.26,-94.46 660.83,-86.07"/>
<polygon fill="#63b8ff" stroke="#63b8ff" points="664.25,-86.82 662.66,-76.35 657.37,-85.53 664.25,-86.82"/>
</a>
</g>
</g>
<!-- Node17 -->
<g id="Node000017" class="node">
<title>Node17</title>
<g id="a_Node000017"><a xlink:title=" ">
<polygon fill="#e0e0e0" stroke="#999999" points="807.25,-74.5 720,-74.5 720,-55.25 807.25,-55.25 807.25,-74.5"/>
<text text-anchor="middle" x="763.62" y="-61" font-family="Helvetica,sans-Serif" font-size="10.00">Eigen/SparseLU</text>
</a>
</g>
</g>
<!-- Node15&#45;&gt;Node17 -->
<g id="edge22_Node000015_Node000017" class="edge">
<title>Node15&#45;&gt;Node17</title>
<g id="a_edge22_Node000015_Node000017"><a xlink:title=" ">
<path fill="none" stroke="#63b8ff" d="M673.12,-110.09C690.03,-101.83 715.31,-89.48 734.86,-79.93"/>
<polygon fill="#63b8ff" stroke="#63b8ff" points="736.24,-83.15 743.68,-75.62 733.16,-76.86 736.24,-83.15"/>
</a>
</g>
</g>
<!-- Node18 -->
<g id="Node000018" class="node">
<title>Node18</title>
<g id="a_Node000018"><a xlink:title=" ">
<polygon fill="#e0e0e0" stroke="#999999" points="875.88,-74.5 825.38,-74.5 825.38,-55.25 875.88,-55.25 875.88,-74.5"/>
<text text-anchor="middle" x="850.62" y="-61" font-family="Helvetica,sans-Serif" font-size="10.00">memory</text>
</a>
</g>
</g>
<!-- Node15&#45;&gt;Node18 -->
<g id="edge24_Node000015_Node000018" class="edge">
<title>Node15&#45;&gt;Node18</title>
<g id="a_edge24_Node000015_Node000018"><a xlink:title=" ">
<path fill="none" stroke="#63b8ff" d="M687.87,-110.09C722.86,-100.59 777.77,-85.67 813.99,-75.83"/>
<polygon fill="#63b8ff" stroke="#63b8ff" points="814.84,-79.22 823.58,-73.22 813.01,-72.47 814.84,-79.22"/>
</a>
</g>
</g>
<!-- Node19&#45;&gt;Node4 -->
<g id="edge26_Node000019_Node000004" class="edge">
<title>Node19&#45;&gt;Node4</title>
<g id="a_edge26_Node000019_Node000004"><a xlink:title=" ">
<path fill="none" stroke="#63b8ff" d="M56.67,-110.33C52.74,-103.36 47.11,-93.37 42.19,-84.62"/>
<polygon fill="#63b8ff" stroke="#63b8ff" points="45.39,-83.17 37.43,-76.18 39.29,-86.61 45.39,-83.17"/>
</a>
</g>
</g>
<!-- Node20&#45;&gt;Node12 -->
<g id="edge29_Node000020_Node000012" class="edge">
<title>Node20&#45;&gt;Node12</title>
<g id="a_edge29_Node000020_Node000012"><a xlink:title=" ">
<path fill="none" stroke="#63b8ff" d="M489.7,-165.35C504.98,-157.46 526.32,-144.91 541.62,-129.75 554.94,-116.56 566.11,-98.32 573.41,-84.71"/>
<polygon fill="#63b8ff" stroke="#63b8ff" points="576.47,-86.41 577.91,-75.92 570.24,-83.23 576.47,-86.41"/>
</a>
</g>
</g>
</g>
</svg>
